# MagicaVoxel @ Ephtracy

# group
g build1

# material
mtllib build1.mtl
usemtl palette

# normals
vn -1 0 0
vn 1 0 0
vn 0 0 1
vn 0 0 -1
vn 0 -1 0
vn 0 1 0

# texcoords
vt 0.119141 0.5
vt 0.251953 0.5
vt 0.771484 0.5
vt 0.787109 0.5
vt 0.798828 0.5
vt 0.931641 0.5
vt 0.982422 0.5

# verts
v -20 0 12
v -20 0 -1
v -20 0 -20
v -20 1 12
v -20 1 -1
v -20 31 12
v -20 31 -20
v -17 31 -11
v -17 31 -16
v -17 32 -11
v -17 32 -16
v -13 31 9
v -13 31 3
v -13 32 9
v -13 32 3
v -11 32 8
v -11 32 4
v -11 36 8
v -11 36 4
v -2 31 -5
v -2 31 -15
v -2 32 -5
v -2 32 -15
v -1 32 -10
v -1 32 -14
v -1 36 -10
v -1 36 -14
v -7 31 -11
v -7 31 -16
v -7 32 -11
v -7 32 -16
v -3 32 8
v -3 32 4
v -3 36 8
v -3 36 4
v -2 31 9
v -2 31 3
v -2 32 9
v -2 32 3
v 2 32 -10
v 2 32 -14
v 2 36 -10
v 2 36 -14
v 3 31 -5
v 3 31 -15
v 3 32 -5
v 3 32 -15
v 6 1 -9
v 6 1 -10
v 6 15 -9
v 6 15 -10
v 7 1 -1
v 7 1 -9
v 7 1 -10
v 7 1 -18
v 7 15 -1
v 7 15 -9
v 7 15 -10
v 7 15 -18
v 7 29 12
v 7 29 10
v 7 29 -18
v 7 29 -20
v 7 31 12
v 7 31 -20
v 8 0 12
v 8 0 -20
v 8 1 -1
v 8 1 -18
v 8 2 10
v 8 2 -0
v 8 15 -1
v 8 15 -18
v 8 16 -0
v 8 16 -18
v 8 18 9
v 8 18 -17
v 8 19 8
v 8 19 -16
v 8 26 8
v 8 26 -16
v 8 27 9
v 8 27 -17
v 8 29 12
v 8 29 10
v 8 29 -18
v 8 29 -20
v 9 19 8
v 9 19 -16
v 9 21 5
v 9 21 4
v 9 21 1
v 9 21 -0
v 9 21 -3
v 9 21 -4
v 9 21 -5
v 9 21 -6
v 9 21 -10
v 9 21 -11
v 9 22 5
v 9 22 4
v 9 22 1
v 9 22 -0
v 9 22 -1
v 9 22 -2
v 9 22 -3
v 9 22 -4
v 9 22 -5
v 9 22 -6
v 9 22 -10
v 9 22 -11
v 9 22 -12
v 9 22 -13
v 9 23 -1
v 9 23 -2
v 9 23 -6
v 9 23 -7
v 9 23 -8
v 9 23 -9
v 9 23 -12
v 9 23 -13
v 9 23 -14
v 9 23 -15
v 9 24 3
v 9 24 2
v 9 24 -4
v 9 24 -5
v 9 24 -6
v 9 24 -7
v 9 24 -8
v 9 24 -9
v 9 24 -14
v 9 24 -15
v 9 25 3
v 9 25 2
v 9 25 -4
v 9 25 -5
v 9 26 8
v 9 26 -16
v -20 0 12
v -20 1 12
v -20 31 12
v 6 2 12
v 6 31 12
v 7 1 12
v 7 2 12
v 7 29 12
v 7 31 12
v 8 0 12
v 8 29 12
v -13 31 9
v -13 32 9
v -2 31 9
v -2 32 9
v -11 32 8
v -11 36 8
v -3 32 8
v -3 36 8
v 8 19 8
v 8 26 8
v 9 19 8
v 9 26 8
v -2 31 -5
v -2 32 -5
v 3 31 -5
v 3 32 -5
v -1 32 -10
v -1 36 -10
v 2 32 -10
v 2 36 -10
v 6 1 -10
v 6 15 -10
v 7 1 -10
v 7 15 -10
v -17 31 -11
v -17 32 -11
v -7 31 -11
v -7 32 -11
v 7 1 -18
v 7 15 -18
v 8 1 -18
v 8 15 -18
v -11 32 4
v -11 36 4
v -3 32 4
v -3 36 4
v -13 31 3
v -13 32 3
v -2 31 3
v -2 32 3
v 7 1 -1
v 7 15 -1
v 8 1 -1
v 8 15 -1
v 6 1 -9
v 6 15 -9
v 7 1 -9
v 7 15 -9
v -1 32 -14
v -1 36 -14
v 2 32 -14
v 2 36 -14
v -2 31 -15
v -2 32 -15
v 3 31 -15
v 3 32 -15
v -17 31 -16
v -17 32 -16
v -7 31 -16
v -7 32 -16
v 8 19 -16
v 8 26 -16
v 9 19 -16
v 9 26 -16
v -20 0 -20
v -20 31 -20
v 6 0 -20
v 6 31 -20
v 7 29 -20
v 7 31 -20
v 8 0 -20
v 8 29 -20
v -20 0 12
v 8 0 12
v -20 0 -1
v 7 0 -1
v 6 0 -9
v 7 0 -9
v 6 0 -10
v 7 0 -10
v 6 0 -19
v 7 0 -19
v -20 0 -20
v 6 0 -20
v 8 0 -20
v 7 15 -1
v 8 15 -1
v 6 15 -9
v 7 15 -9
v 6 15 -10
v 7 15 -10
v 7 15 -18
v 8 15 -18
v 8 19 8
v 9 19 8
v 8 19 -16
v 9 19 -16
v 7 1 -1
v 8 1 -1
v 6 1 -9
v 7 1 -9
v 6 1 -10
v 7 1 -10
v 7 1 -18
v 8 1 -18
v 8 26 8
v 9 26 8
v 8 26 -16
v 9 26 -16
v 7 29 12
v 8 29 12
v 7 29 10
v 8 29 10
v 7 29 -18
v 8 29 -18
v 7 29 -20
v 8 29 -20
v -20 31 12
v 6 31 12
v 7 31 12
v -13 31 9
v -2 31 9
v -13 31 3
v -2 31 3
v -2 31 -5
v 3 31 -5
v -17 31 -11
v -7 31 -11
v -2 31 -15
v 3 31 -15
v -17 31 -16
v -7 31 -16
v -20 31 -20
v 6 31 -20
v 7 31 -20
v -13 32 9
v -2 32 9
v -11 32 8
v -3 32 8
v -11 32 4
v -3 32 4
v -13 32 3
v -2 32 3
v -2 32 -5
v 3 32 -5
v -1 32 -10
v 2 32 -10
v -17 32 -11
v -7 32 -11
v -1 32 -14
v 2 32 -14
v -2 32 -15
v 3 32 -15
v -17 32 -16
v -7 32 -16
v -11 36 8
v -3 36 8
v -11 36 4
v -3 36 4
v -1 36 -10
v 2 36 -10
v -1 36 -14
v 2 36 -14

# faces
f 4/2/1 2/2/1 1/2/1
f 5/7/1 3/7/1 2/7/1
f 5/2/1 2/2/1 4/2/1
f 6/7/1 5/7/1 4/7/1
f 7/7/1 3/7/1 5/7/1
f 7/7/1 5/7/1 6/7/1
f 10/6/1 9/6/1 8/6/1
f 11/6/1 9/6/1 10/6/1
f 14/6/1 13/6/1 12/6/1
f 15/6/1 13/6/1 14/6/1
f 18/6/1 17/6/1 16/6/1
f 19/6/1 17/6/1 18/6/1
f 22/6/1 21/6/1 20/6/1
f 23/6/1 21/6/1 22/6/1
f 26/6/1 25/6/1 24/6/1
f 27/6/1 25/6/1 26/6/1
f 28/6/2 29/6/2 30/6/2
f 30/6/2 29/6/2 31/6/2
f 32/6/2 33/6/2 34/6/2
f 34/6/2 33/6/2 35/6/2
f 36/6/2 37/6/2 38/6/2
f 38/6/2 37/6/2 39/6/2
f 40/6/2 41/6/2 42/6/2
f 42/6/2 41/6/2 43/6/2
f 44/6/2 45/6/2 46/6/2
f 46/6/2 45/6/2 47/6/2
f 48/1/2 49/1/2 50/1/2
f 50/1/2 49/1/2 51/1/2
f 52/1/2 53/1/2 56/1/2
f 56/1/2 53/1/2 57/1/2
f 54/1/2 55/1/2 58/1/2
f 58/1/2 55/1/2 59/1/2
f 61/2/2 62/2/2 64/2/2
f 62/2/2 63/2/2 64/2/2
f 60/2/2 61/2/2 64/2/2
f 64/2/2 63/2/2 65/2/2
f 66/2/2 67/2/2 68/2/2
f 68/2/2 67/2/2 69/2/2
f 66/2/2 68/2/2 70/2/2
f 70/2/2 68/2/2 71/2/2
f 71/2/2 68/2/2 72/2/2
f 69/2/2 67/2/2 73/2/2
f 71/2/2 72/2/2 74/2/2
f 72/2/2 73/2/2 74/2/2
f 70/7/2 71/7/2 74/7/2
f 73/2/2 67/2/2 75/2/2
f 74/2/2 73/2/2 75/2/2
f 70/7/2 74/7/2 76/7/2
f 74/7/2 75/7/2 76/7/2
f 76/7/2 75/7/2 77/7/2
f 76/4/2 77/4/2 78/4/2
f 78/4/2 77/4/2 79/4/2
f 76/4/2 78/4/2 80/4/2
f 79/4/2 77/4/2 81/4/2
f 70/7/2 76/7/2 82/7/2
f 80/4/2 81/4/2 82/4/2
f 76/4/2 80/4/2 82/4/2
f 81/4/2 77/4/2 83/4/2
f 82/4/2 81/4/2 83/4/2
f 77/7/2 75/7/2 83/7/2
f 66/2/2 70/2/2 84/2/2
f 70/7/2 82/7/2 85/7/2
f 84/2/2 70/2/2 85/2/2
f 82/7/2 83/7/2 85/7/2
f 75/2/2 67/2/2 86/2/2
f 85/7/2 83/7/2 86/7/2
f 83/7/2 75/7/2 86/7/2
f 86/2/2 67/2/2 87/2/2
f 88/5/2 89/5/2 90/5/2
f 90/5/2 89/5/2 91/5/2
f 91/5/2 89/5/2 92/5/2
f 92/5/2 89/5/2 93/5/2
f 93/5/2 89/5/2 94/5/2
f 94/5/2 89/5/2 95/5/2
f 95/5/2 89/5/2 96/5/2
f 96/5/2 89/5/2 97/5/2
f 97/5/2 89/5/2 98/5/2
f 98/5/2 89/5/2 99/5/2
f 88/5/2 90/5/2 100/5/2
f 90/3/2 91/3/2 100/3/2
f 91/5/2 92/5/2 101/5/2
f 100/3/2 91/3/2 101/3/2
f 92/3/2 93/3/2 102/3/2
f 101/5/2 92/5/2 102/5/2
f 93/5/2 94/5/2 103/5/2
f 102/3/2 93/3/2 103/3/2
f 103/5/2 94/5/2 104/5/2
f 104/5/2 94/5/2 105/5/2
f 94/3/2 95/3/2 106/3/2
f 105/5/2 94/5/2 106/5/2
f 95/5/2 96/5/2 107/5/2
f 106/3/2 95/3/2 107/3/2
f 96/3/2 97/3/2 108/3/2
f 107/5/2 96/5/2 108/5/2
f 97/5/2 98/5/2 109/5/2
f 108/3/2 97/3/2 109/3/2
f 98/3/2 99/3/2 110/3/2
f 109/5/2 98/5/2 110/5/2
f 99/5/2 89/5/2 111/5/2
f 110/3/2 99/3/2 111/3/2
f 111/5/2 89/5/2 112/5/2
f 112/5/2 89/5/2 113/5/2
f 100/5/2 101/5/2 114/5/2
f 101/5/2 102/5/2 114/5/2
f 104/3/2 105/3/2 114/3/2
f 102/5/2 103/5/2 114/5/2
f 103/5/2 104/5/2 114/5/2
f 109/5/2 110/5/2 115/5/2
f 114/3/2 105/3/2 115/3/2
f 108/5/2 109/5/2 115/5/2
f 110/5/2 111/5/2 115/5/2
f 107/5/2 108/5/2 115/5/2
f 106/5/2 107/5/2 115/5/2
f 105/5/2 106/5/2 115/5/2
f 111/5/2 112/5/2 115/5/2
f 115/5/2 112/5/2 116/5/2
f 116/5/2 112/5/2 117/5/2
f 117/5/2 112/5/2 118/5/2
f 118/5/2 112/5/2 119/5/2
f 112/3/2 113/3/2 120/3/2
f 119/5/2 112/5/2 120/5/2
f 113/5/2 89/5/2 121/5/2
f 120/3/2 113/3/2 121/3/2
f 121/5/2 89/5/2 122/5/2
f 122/5/2 89/5/2 123/5/2
f 100/5/2 114/5/2 124/5/2
f 114/5/2 115/5/2 124/5/2
f 115/5/2 116/5/2 124/5/2
f 124/5/2 116/5/2 125/5/2
f 125/5/2 116/5/2 126/5/2
f 126/5/2 116/5/2 127/5/2
f 116/3/2 117/3/2 128/3/2
f 127/5/2 116/5/2 128/5/2
f 117/5/2 118/5/2 129/5/2
f 128/3/2 117/3/2 129/3/2
f 118/3/2 119/3/2 130/3/2
f 129/5/2 118/5/2 130/5/2
f 119/5/2 120/5/2 131/5/2
f 130/3/2 119/3/2 131/3/2
f 121/5/2 122/5/2 131/5/2
f 120/5/2 121/5/2 131/5/2
f 122/3/2 123/3/2 132/3/2
f 131/5/2 122/5/2 132/5/2
f 123/5/2 89/5/2 133/5/2
f 132/3/2 123/3/2 133/3/2
f 124/3/2 125/3/2 134/3/2
f 100/5/2 124/5/2 134/5/2
f 125/5/2 126/5/2 135/5/2
f 134/3/2 125/3/2 135/3/2
f 126/3/2 127/3/2 136/3/2
f 135/5/2 126/5/2 136/5/2
f 131/5/2 132/5/2 137/5/2
f 136/3/2 127/3/2 137/3/2
f 128/5/2 129/5/2 137/5/2
f 132/5/2 133/5/2 137/5/2
f 129/5/2 130/5/2 137/5/2
f 127/5/2 128/5/2 137/5/2
f 130/5/2 131/5/2 137/5/2
f 135/5/2 136/5/2 138/5/2
f 88/5/2 100/5/2 138/5/2
f 136/5/2 137/5/2 138/5/2
f 100/5/2 134/5/2 138/5/2
f 134/5/2 135/5/2 138/5/2
f 137/5/2 133/5/2 139/5/2
f 138/5/2 137/5/2 139/5/2
f 133/5/2 89/5/2 139/5/2
f 143/7/3 142/7/3 141/7/3
f 144/7/3 142/7/3 143/7/3
f 145/2/3 141/2/3 140/2/3
f 145/7/3 143/7/3 141/7/3
f 146/2/3 144/2/3 143/2/3
f 146/7/3 143/7/3 145/7/3
f 147/2/3 144/2/3 146/2/3
f 148/2/3 144/2/3 147/2/3
f 149/2/3 145/2/3 140/2/3
f 149/2/3 146/2/3 145/2/3
f 149/2/3 147/2/3 146/2/3
f 150/2/3 147/2/3 149/2/3
f 153/6/3 152/6/3 151/6/3
f 154/6/3 152/6/3 153/6/3
f 157/6/3 156/6/3 155/6/3
f 158/6/3 156/6/3 157/6/3
f 161/5/3 160/5/3 159/5/3
f 162/5/3 160/5/3 161/5/3
f 165/6/3 164/6/3 163/6/3
f 166/6/3 164/6/3 165/6/3
f 169/6/3 168/6/3 167/6/3
f 170/6/3 168/6/3 169/6/3
f 173/1/3 172/1/3 171/1/3
f 174/1/3 172/1/3 173/1/3
f 177/6/3 176/6/3 175/6/3
f 178/6/3 176/6/3 177/6/3
f 181/2/3 180/2/3 179/2/3
f 182/2/3 180/2/3 181/2/3
f 183/6/4 184/6/4 185/6/4
f 185/6/4 184/6/4 186/6/4
f 187/6/4 188/6/4 189/6/4
f 189/6/4 188/6/4 190/6/4
f 191/2/4 192/2/4 193/2/4
f 193/2/4 192/2/4 194/2/4
f 195/1/4 196/1/4 197/1/4
f 197/1/4 196/1/4 198/1/4
f 199/6/4 200/6/4 201/6/4
f 201/6/4 200/6/4 202/6/4
f 203/6/4 204/6/4 205/6/4
f 205/6/4 204/6/4 206/6/4
f 207/6/4 208/6/4 209/6/4
f 209/6/4 208/6/4 210/6/4
f 211/5/4 212/5/4 213/5/4
f 213/5/4 212/5/4 214/5/4
f 215/7/4 216/7/4 217/7/4
f 217/7/4 216/7/4 218/7/4
f 217/2/4 218/2/4 219/2/4
f 219/2/4 218/2/4 220/2/4
f 217/2/4 219/2/4 221/2/4
f 221/2/4 219/2/4 222/2/4
f 225/2/5 224/2/5 223/2/5
f 226/2/5 224/2/5 225/2/5
f 227/7/5 226/7/5 225/7/5
f 228/2/5 224/2/5 226/2/5
f 228/7/5 226/7/5 227/7/5
f 229/7/5 227/7/5 225/7/5
f 229/1/5 228/1/5 227/1/5
f 230/2/5 224/2/5 228/2/5
f 230/1/5 228/1/5 229/1/5
f 231/7/5 229/7/5 225/7/5
f 231/7/5 230/7/5 229/7/5
f 232/2/5 224/2/5 230/2/5
f 232/7/5 230/7/5 231/7/5
f 233/7/5 231/7/5 225/7/5
f 234/2/5 232/2/5 231/2/5
f 234/7/5 231/7/5 233/7/5
f 235/2/5 224/2/5 232/2/5
f 235/2/5 232/2/5 234/2/5
f 239/2/5 237/2/5 236/2/5
f 240/2/5 239/2/5 238/2/5
f 241/2/5 237/2/5 239/2/5
f 241/2/5 239/2/5 240/2/5
f 242/2/5 237/2/5 241/2/5
f 243/2/5 237/2/5 242/2/5
f 246/5/5 245/5/5 244/5/5
f 247/5/5 245/5/5 246/5/5
f 248/2/6 249/2/6 251/2/6
f 250/1/6 251/1/6 252/1/6
f 251/2/6 249/2/6 253/2/6
f 252/1/6 251/1/6 253/1/6
f 253/2/6 249/2/6 254/2/6
f 254/2/6 249/2/6 255/2/6
f 256/5/6 257/5/6 258/5/6
f 258/5/6 257/5/6 259/5/6
f 260/2/6 261/2/6 262/2/6
f 262/2/6 261/2/6 263/2/6
f 262/7/6 263/7/6 264/7/6
f 264/7/6 263/7/6 265/7/6
f 264/2/6 265/2/6 266/2/6
f 266/2/6 265/2/6 267/2/6
f 268/7/6 269/7/6 271/7/6
f 271/7/6 269/7/6 272/7/6
f 268/7/6 271/7/6 273/7/6
f 272/7/6 269/7/6 274/7/6
f 274/7/6 269/7/6 275/7/6
f 273/7/6 274/7/6 275/7/6
f 275/7/6 269/7/6 276/7/6
f 268/7/6 273/7/6 277/7/6
f 273/7/6 275/7/6 277/7/6
f 277/7/6 275/7/6 278/7/6
f 278/7/6 275/7/6 279/7/6
f 276/7/6 269/7/6 280/7/6
f 268/7/6 277/7/6 281/7/6
f 278/7/6 279/7/6 282/7/6
f 279/7/6 280/7/6 282/7/6
f 268/7/6 281/7/6 283/7/6
f 281/7/6 282/7/6 283/7/6
f 269/2/6 270/2/6 284/2/6
f 283/7/6 282/7/6 284/7/6
f 282/7/6 280/7/6 284/7/6
f 280/7/6 269/7/6 284/7/6
f 284/2/6 270/2/6 285/2/6
f 286/6/6 287/6/6 288/6/6
f 288/6/6 287/6/6 289/6/6
f 286/6/6 288/6/6 290/6/6
f 289/6/6 287/6/6 291/6/6
f 286/6/6 290/6/6 292/6/6
f 290/6/6 291/6/6 292/6/6
f 291/6/6 287/6/6 293/6/6
f 292/6/6 291/6/6 293/6/6
f 294/6/6 295/6/6 296/6/6
f 296/6/6 295/6/6 297/6/6
f 294/6/6 296/6/6 300/6/6
f 297/6/6 295/6/6 301/6/6
f 294/6/6 300/6/6 302/6/6
f 300/6/6 301/6/6 302/6/6
f 301/6/6 295/6/6 303/6/6
f 302/6/6 301/6/6 303/6/6
f 298/6/6 299/6/6 304/6/6
f 304/6/6 299/6/6 305/6/6
f 306/6/6 307/6/6 308/6/6
f 308/6/6 307/6/6 309/6/6
f 310/6/6 311/6/6 312/6/6
f 312/6/6 311/6/6 313/6/6
