# MagicaVoxel @ Ephtracy

# group
g car1

# material
mtllib car1.mtl
usemtl palette

# normals
vn -1 0 0
vn 1 0 0
vn 0 0 1
vn 0 0 -1
vn 0 -1 0
vn 0 1 0

# texcoords
vt 0.150391 0.5
vt 0.947266 0.5
vt 0.986328 0.5
vt 0.990234 0.5

# verts
v -6 1 5
v -6 1 -0
v -6 2 11
v -6 2 10
v -6 2 5
v -6 2 -0
v -6 2 -4
v -6 3 -3
v -6 3 -4
v -6 4 11
v -6 4 10
v -6 4 5
v -6 4 -0
v -6 4 -3
v -5 1 9
v -5 1 5
v -5 1 -0
v -5 1 -3
v -5 2 9
v -5 2 5
v -5 2 -0
v -5 2 -3
v -5 3 -3
v -5 3 -4
v -5 4 9
v -5 4 5
v -5 4 -0
v -5 4 -2
v -5 4 -3
v -5 4 -4
v -5 5 9
v -5 5 6
v -5 5 -1
v -5 5 -2
v -5 7 5
v -5 7 -0
v -5 8 6
v -5 8 -1
v -4 2 5
v -4 2 -0
v -4 4 -2
v -4 4 -3
v -4 5 8
v -4 5 6
v -4 5 -1
v -4 5 -2
v -4 5 -3
v -4 7 5
v -4 7 -0
v -4 8 8
v -4 8 6
v -4 8 -1
v -4 8 -2
v -3 2 10
v -3 2 9
v -3 4 10
v -3 4 9
v -3 7 -2
v -3 7 -3
v -3 8 -0
v -3 8 -2
v -3 9 -0
v -3 9 -3
v -1 4 -3
v -1 4 -4
v -1 5 -3
v -1 5 -4
v 2 2 10
v 2 2 9
v 2 2 -3
v 2 2 -4
v 2 3 10
v 2 3 9
v 2 4 -3
v 2 4 -4
v 2 7 -2
v 2 7 -3
v 2 8 -0
v 2 8 -2
v 2 9 -0
v 2 9 -3
v 3 1 9
v 3 1 5
v 3 1 -0
v 3 1 -3
v 3 2 9
v 3 2 5
v 3 2 -0
v 3 2 -3
v 3 5 8
v 3 5 7
v 3 5 -1
v 3 5 -2
v 3 7 8
v 3 7 7
v 3 7 -1
v 3 7 -2
v 5 2 11
v 5 2 10
v 5 2 9
v 5 4 11
v 5 4 10
v 5 4 9
v -5 2 11
v -5 2 10
v -5 2 9
v -5 4 11
v -5 4 10
v -5 4 9
v -3 1 9
v -3 1 -3
v -3 2 9
v -3 2 5
v -3 2 -0
v -3 2 -3
v -3 5 8
v -3 5 7
v -3 5 -1
v -3 5 -2
v -3 7 8
v -3 7 7
v -3 7 -1
v -3 7 -2
v -2 2 10
v -2 2 9
v -2 2 -3
v -2 2 -4
v -2 3 10
v -2 3 9
v -2 4 -3
v -2 4 -4
v -2 7 -2
v -2 7 -3
v -2 8 -0
v -2 8 -2
v -2 9 -0
v -2 9 -3
v 1 4 -3
v 1 4 -4
v 1 5 -3
v 1 5 -4
v 3 2 10
v 3 2 9
v 3 4 10
v 3 4 9
v 3 7 -2
v 3 7 -3
v 3 8 -0
v 3 8 -2
v 3 9 -0
v 3 9 -3
v 4 2 5
v 4 2 -0
v 4 4 -2
v 4 4 -3
v 4 5 8
v 4 5 6
v 4 5 -1
v 4 5 -2
v 4 5 -3
v 4 7 5
v 4 7 -0
v 4 8 8
v 4 8 6
v 4 8 -1
v 4 8 -2
v 5 1 9
v 5 1 5
v 5 1 -0
v 5 1 -3
v 5 2 9
v 5 2 5
v 5 2 -0
v 5 2 -3
v 5 3 -3
v 5 3 -4
v 5 4 9
v 5 4 5
v 5 4 -0
v 5 4 -2
v 5 4 -3
v 5 4 -4
v 5 5 9
v 5 5 6
v 5 5 -1
v 5 5 -2
v 5 7 5
v 5 7 -0
v 5 8 6
v 5 8 -1
v 6 1 5
v 6 1 -0
v 6 2 11
v 6 2 10
v 6 2 5
v 6 2 -0
v 6 2 -4
v 6 3 -3
v 6 3 -4
v 6 4 11
v 6 4 10
v 6 4 5
v 6 4 -0
v 6 4 -3
v -6 2 11
v -6 4 11
v -5 2 11
v -5 4 11
v 5 2 11
v 5 4 11
v 6 2 11
v 6 4 11
v -3 2 10
v -3 4 10
v -2 2 10
v -2 3 10
v 2 2 10
v 2 3 10
v 3 2 10
v 3 4 10
v -5 1 9
v -5 2 9
v -5 4 9
v -5 5 9
v -3 1 9
v -3 2 9
v -3 4 9
v -2 2 9
v -2 3 9
v 2 2 9
v 2 3 9
v 3 1 9
v 3 2 9
v 3 4 9
v 5 1 9
v 5 2 9
v 5 4 9
v 5 5 9
v -4 5 8
v -4 8 8
v -3 5 8
v -3 7 8
v 3 5 8
v 3 7 8
v 4 5 8
v 4 8 8
v -3 5 7
v -3 7 7
v 3 5 7
v 3 7 7
v -5 5 6
v -5 8 6
v -4 5 6
v -4 8 6
v 4 5 6
v 4 8 6
v 5 5 6
v 5 8 6
v -6 1 5
v -6 2 5
v -5 1 5
v -5 2 5
v 5 1 5
v 5 2 5
v 6 1 5
v 6 2 5
v -6 2 -0
v -6 4 -0
v -5 4 -0
v -5 7 -0
v -4 2 -0
v -4 7 -0
v -3 8 -0
v -3 9 -0
v -2 8 -0
v -2 9 -0
v 2 8 -0
v 2 9 -0
v 3 8 -0
v 3 9 -0
v 4 2 -0
v 4 7 -0
v 5 4 -0
v 5 7 -0
v 6 2 -0
v 6 4 -0
v -6 2 5
v -6 4 5
v -5 4 5
v -5 7 5
v -4 2 5
v -4 7 5
v 4 2 5
v 4 7 5
v 5 4 5
v 5 7 5
v 6 2 5
v 6 4 5
v -6 1 -0
v -6 2 -0
v -5 1 -0
v -5 2 -0
v 5 1 -0
v 5 2 -0
v 6 1 -0
v 6 2 -0
v -5 5 -1
v -5 8 -1
v -4 5 -1
v -4 8 -1
v -3 5 -1
v -3 7 -1
v 3 5 -1
v 3 7 -1
v 4 5 -1
v 4 8 -1
v 5 5 -1
v 5 8 -1
v -5 4 -2
v -5 5 -2
v -4 4 -2
v -4 5 -2
v -4 8 -2
v -3 5 -2
v -3 7 -2
v -3 8 -2
v -2 7 -2
v -2 8 -2
v 2 7 -2
v 2 8 -2
v 3 5 -2
v 3 7 -2
v 3 8 -2
v 4 4 -2
v 4 5 -2
v 4 8 -2
v 5 4 -2
v 5 5 -2
v -6 3 -3
v -6 4 -3
v -5 1 -3
v -5 2 -3
v -5 3 -3
v -5 4 -3
v -4 4 -3
v -4 5 -3
v -3 1 -3
v -3 2 -3
v -3 7 -3
v -3 9 -3
v -2 2 -3
v -2 4 -3
v -2 7 -3
v -2 9 -3
v -1 4 -3
v -1 5 -3
v 1 4 -3
v 1 5 -3
v 2 2 -3
v 2 4 -3
v 2 7 -3
v 2 9 -3
v 3 1 -3
v 3 2 -3
v 3 7 -3
v 3 9 -3
v 4 4 -3
v 4 5 -3
v 5 1 -3
v 5 2 -3
v 5 3 -3
v 5 4 -3
v 6 3 -3
v 6 4 -3
v -6 2 -4
v -6 3 -4
v -5 2 -4
v -5 3 -4
v -5 4 -4
v -2 2 -4
v -2 4 -4
v -1 4 -4
v -1 5 -4
v 1 4 -4
v 1 5 -4
v 2 2 -4
v 2 4 -4
v 5 2 -4
v 5 3 -4
v 5 4 -4
v 6 2 -4
v 6 3 -4
v -5 1 9
v -3 1 9
v 3 1 9
v 5 1 9
v -6 1 5
v -5 1 5
v -4 1 5
v 3 1 5
v 5 1 5
v 6 1 5
v -6 1 -0
v -5 1 -0
v -4 1 -0
v 3 1 -0
v 5 1 -0
v 6 1 -0
v -5 1 -3
v -3 1 -3
v 3 1 -3
v 5 1 -3
v -6 2 11
v -5 2 11
v 5 2 11
v 6 2 11
v -6 2 10
v -5 2 10
v -3 2 10
v -2 2 10
v 2 2 10
v 3 2 10
v 5 2 10
v 6 2 10
v -5 2 9
v -3 2 9
v -2 2 9
v 2 2 9
v 3 2 9
v 5 2 9
v -6 2 5
v -5 2 5
v -3 2 5
v 3 2 5
v 5 2 5
v 6 2 5
v -6 2 -0
v -5 2 -0
v -3 2 -0
v 3 2 -0
v 5 2 -0
v 6 2 -0
v -5 2 -3
v -3 2 -3
v -2 2 -3
v 2 2 -3
v 3 2 -3
v 5 2 -3
v -6 2 -4
v -5 2 -4
v -2 2 -4
v 2 2 -4
v 5 2 -4
v 6 2 -4
v -2 3 10
v 2 3 10
v -2 3 9
v 2 3 9
v -1 4 -3
v 1 4 -3
v -1 4 -4
v 1 4 -4
v -3 7 8
v 3 7 8
v -3 7 7
v 3 7 7
v -5 7 5
v -4 7 5
v 4 7 5
v 5 7 5
v -5 7 -0
v -4 7 -0
v 4 7 -0
v 5 7 -0
v -3 7 -1
v 3 7 -1
v -3 7 -2
v -2 7 -2
v 2 7 -2
v 3 7 -2
v -3 7 -3
v -2 7 -3
v 2 7 -3
v 3 7 -3
v -6 2 5
v -4 2 5
v 4 2 5
v 6 2 5
v -6 2 -0
v -4 2 -0
v 4 2 -0
v 6 2 -0
v -6 3 -3
v -5 3 -3
v 5 3 -3
v 6 3 -3
v -6 3 -4
v -5 3 -4
v 5 3 -4
v 6 3 -4
v -6 4 11
v -5 4 11
v 5 4 11
v 6 4 11
v -6 4 10
v -5 4 10
v -3 4 10
v 3 4 10
v 5 4 10
v 6 4 10
v -5 4 9
v -3 4 9
v 3 4 9
v 5 4 9
v -6 4 5
v -5 4 5
v 5 4 5
v 6 4 5
v -6 4 -0
v -5 4 -0
v 5 4 -0
v 6 4 -0
v -5 4 -2
v -4 4 -2
v 4 4 -2
v 5 4 -2
v -6 4 -3
v -5 4 -3
v -4 4 -3
v -2 4 -3
v 2 4 -3
v 4 4 -3
v 5 4 -3
v 6 4 -3
v -5 4 -4
v -2 4 -4
v 2 4 -4
v 5 4 -4
v -5 5 9
v 5 5 9
v -4 5 8
v -3 5 8
v 3 5 8
v 4 5 8
v -3 5 7
v 3 5 7
v -5 5 6
v -4 5 6
v 4 5 6
v 5 5 6
v -5 5 -1
v -4 5 -1
v -3 5 -1
v 3 5 -1
v 4 5 -1
v 5 5 -1
v -5 5 -2
v -4 5 -2
v -3 5 -2
v 3 5 -2
v 4 5 -2
v 5 5 -2
v -4 5 -3
v -1 5 -3
v 1 5 -3
v 4 5 -3
v -1 5 -4
v 1 5 -4
v -4 8 8
v 4 8 8
v -5 8 6
v -4 8 6
v 4 8 6
v 5 8 6
v -3 8 -0
v -2 8 -0
v 2 8 -0
v 3 8 -0
v -5 8 -1
v -4 8 -1
v 4 8 -1
v 5 8 -1
v -4 8 -2
v -3 8 -2
v -2 8 -2
v 2 8 -2
v 3 8 -2
v 4 8 -2
v -3 9 -0
v -2 9 -0
v 2 9 -0
v 3 9 -0
v -3 9 -3
v -2 9 -3
v 2 9 -3
v 3 9 -3

# faces
f 5/3/1 2/3/1 1/3/1
f 6/3/1 2/3/1 5/3/1
f 8/3/1 7/3/1 6/3/1
f 9/3/1 7/3/1 8/3/1
f 10/1/1 4/1/1 3/1/1
f 11/3/1 5/3/1 4/3/1
f 11/1/1 4/1/1 10/1/1
f 12/3/1 5/3/1 11/3/1
f 13/3/1 8/3/1 6/3/1
f 14/3/1 8/3/1 13/3/1
f 19/2/1 16/2/1 15/2/1
f 20/2/1 16/2/1 19/2/1
f 21/2/1 18/2/1 17/2/1
f 22/2/1 18/2/1 21/2/1
f 29/1/1 24/1/1 23/1/1
f 30/1/1 24/1/1 29/1/1
f 31/3/1 26/3/1 25/3/1
f 32/3/1 26/3/1 31/3/1
f 33/3/1 28/3/1 27/3/1
f 34/3/1 28/3/1 33/3/1
f 35/3/1 26/3/1 32/3/1
f 36/3/1 33/3/1 27/3/1
f 37/3/1 35/3/1 32/3/1
f 37/3/1 36/3/1 35/3/1
f 38/3/1 33/3/1 36/3/1
f 38/3/1 36/3/1 37/3/1
f 46/3/1 42/3/1 41/3/1
f 47/3/1 42/3/1 46/3/1
f 48/2/1 40/2/1 39/2/1
f 49/2/1 40/2/1 48/2/1
f 50/3/1 44/3/1 43/3/1
f 51/3/1 44/3/1 50/3/1
f 52/3/1 46/3/1 45/3/1
f 53/3/1 46/3/1 52/3/1
f 56/1/1 55/1/1 54/1/1
f 57/1/1 55/1/1 56/1/1
f 61/3/1 59/3/1 58/3/1
f 62/3/1 61/3/1 60/3/1
f 63/3/1 59/3/1 61/3/1
f 63/3/1 61/3/1 62/3/1
f 66/1/1 65/1/1 64/1/1
f 67/1/1 65/1/1 66/1/1
f 72/1/1 69/1/1 68/1/1
f 73/1/1 69/1/1 72/1/1
f 74/1/1 71/1/1 70/1/1
f 75/1/1 71/1/1 74/1/1
f 79/3/1 77/3/1 76/3/1
f 80/3/1 79/3/1 78/3/1
f 81/3/1 77/3/1 79/3/1
f 81/3/1 79/3/1 80/3/1
f 86/2/1 83/2/1 82/2/1
f 87/3/1 84/3/1 83/3/1
f 87/2/1 83/2/1 86/2/1
f 88/2/1 85/2/1 84/2/1
f 88/3/1 84/3/1 87/3/1
f 89/2/1 85/2/1 88/2/1
f 94/3/1 91/3/1 90/3/1
f 95/3/1 91/3/1 94/3/1
f 96/3/1 93/3/1 92/3/1
f 97/3/1 93/3/1 96/3/1
f 101/1/1 99/1/1 98/1/1
f 102/3/1 100/3/1 99/3/1
f 102/1/1 99/1/1 101/1/1
f 103/3/1 100/3/1 102/3/1
f 104/1/2 105/1/2 107/1/2
f 105/3/2 106/3/2 108/3/2
f 107/1/2 105/1/2 108/1/2
f 108/3/2 106/3/2 109/3/2
f 110/2/2 111/2/2 112/2/2
f 112/2/2 111/2/2 113/2/2
f 113/2/2 111/2/2 114/2/2
f 114/2/2 111/2/2 115/2/2
f 116/3/2 117/3/2 120/3/2
f 120/3/2 117/3/2 121/3/2
f 118/3/2 119/3/2 122/3/2
f 122/3/2 119/3/2 123/3/2
f 124/1/2 125/1/2 128/1/2
f 128/1/2 125/1/2 129/1/2
f 126/1/2 127/1/2 130/1/2
f 130/1/2 127/1/2 131/1/2
f 132/3/2 133/3/2 135/3/2
f 134/3/2 135/3/2 136/3/2
f 135/3/2 133/3/2 137/3/2
f 136/3/2 135/3/2 137/3/2
f 138/1/2 139/1/2 140/1/2
f 140/1/2 139/1/2 141/1/2
f 142/1/2 143/1/2 144/1/2
f 144/1/2 143/1/2 145/1/2
f 146/3/2 147/3/2 149/3/2
f 148/3/2 149/3/2 150/3/2
f 149/3/2 147/3/2 151/3/2
f 150/3/2 149/3/2 151/3/2
f 154/3/2 155/3/2 159/3/2
f 159/3/2 155/3/2 160/3/2
f 152/2/2 153/2/2 161/2/2
f 161/2/2 153/2/2 162/2/2
f 156/3/2 157/3/2 163/3/2
f 163/3/2 157/3/2 164/3/2
f 158/3/2 159/3/2 165/3/2
f 165/3/2 159/3/2 166/3/2
f 167/2/2 168/2/2 171/2/2
f 171/2/2 168/2/2 172/2/2
f 169/2/2 170/2/2 173/2/2
f 173/2/2 170/2/2 174/2/2
f 175/1/2 176/1/2 181/1/2
f 181/1/2 176/1/2 182/1/2
f 177/3/2 178/3/2 183/3/2
f 183/3/2 178/3/2 184/3/2
f 179/3/2 180/3/2 185/3/2
f 185/3/2 180/3/2 186/3/2
f 184/3/2 178/3/2 187/3/2
f 179/3/2 185/3/2 188/3/2
f 184/3/2 187/3/2 189/3/2
f 187/3/2 188/3/2 189/3/2
f 188/3/2 185/3/2 190/3/2
f 189/3/2 188/3/2 190/3/2
f 191/3/2 192/3/2 195/3/2
f 195/3/2 192/3/2 196/3/2
f 196/3/2 197/3/2 198/3/2
f 198/3/2 197/3/2 199/3/2
f 193/1/2 194/1/2 200/1/2
f 194/3/2 195/3/2 201/3/2
f 200/1/2 194/1/2 201/1/2
f 201/3/2 195/3/2 202/3/2
f 196/3/2 198/3/2 203/3/2
f 203/3/2 198/3/2 204/3/2
f 207/1/3 206/1/3 205/1/3
f 208/1/3 206/1/3 207/1/3
f 211/1/3 210/1/3 209/1/3
f 212/1/3 210/1/3 211/1/3
f 215/1/3 214/1/3 213/1/3
f 216/1/3 214/1/3 215/1/3
f 218/1/3 214/1/3 216/1/3
f 219/1/3 218/1/3 217/1/3
f 220/1/3 214/1/3 218/1/3
f 220/1/3 218/1/3 219/1/3
f 225/2/3 222/2/3 221/2/3
f 226/3/3 224/3/3 223/3/3
f 226/2/3 222/2/3 225/2/3
f 226/3/3 223/3/3 222/3/3
f 227/3/3 224/3/3 226/3/3
f 230/3/3 229/3/3 228/3/3
f 231/3/3 229/3/3 230/3/3
f 234/3/3 224/3/3 227/3/3
f 235/2/3 233/2/3 232/2/3
f 236/3/3 234/3/3 233/3/3
f 236/2/3 233/2/3 235/2/3
f 237/3/3 224/3/3 234/3/3
f 237/3/3 234/3/3 236/3/3
f 238/3/3 224/3/3 237/3/3
f 241/3/3 240/3/3 239/3/3
f 242/3/3 240/3/3 241/3/3
f 244/3/3 240/3/3 242/3/3
f 245/3/3 244/3/3 243/3/3
f 246/3/3 240/3/3 244/3/3
f 246/3/3 244/3/3 245/3/3
f 249/2/3 248/2/3 247/2/3
f 250/2/3 248/2/3 249/2/3
f 253/3/3 252/3/3 251/3/3
f 254/3/3 252/3/3 253/3/3
f 257/3/3 256/3/3 255/3/3
f 258/3/3 256/3/3 257/3/3
f 261/3/3 260/3/3 259/3/3
f 262/3/3 260/3/3 261/3/3
f 265/3/3 264/3/3 263/3/3
f 266/3/3 264/3/3 265/3/3
f 269/3/3 268/3/3 267/3/3
f 271/3/3 269/3/3 267/3/3
f 271/3/3 270/3/3 269/3/3
f 272/3/3 270/3/3 271/3/3
f 275/3/3 274/3/3 273/3/3
f 276/3/3 274/3/3 275/3/3
f 279/3/3 278/3/3 277/3/3
f 280/3/3 278/3/3 279/3/3
f 283/3/3 282/3/3 281/3/3
f 284/3/3 282/3/3 283/3/3
f 285/3/3 283/3/3 281/3/3
f 286/3/3 283/3/3 285/3/3
f 287/3/4 288/3/4 289/3/4
f 287/3/4 289/3/4 291/3/4
f 289/3/4 290/3/4 291/3/4
f 291/3/4 290/3/4 292/3/4
f 293/3/4 294/3/4 295/3/4
f 295/3/4 294/3/4 296/3/4
f 293/3/4 295/3/4 297/3/4
f 297/3/4 295/3/4 298/3/4
f 299/3/4 300/3/4 301/3/4
f 301/3/4 300/3/4 302/3/4
f 303/3/4 304/3/4 305/3/4
f 305/3/4 304/3/4 306/3/4
f 307/3/4 308/3/4 309/3/4
f 309/3/4 308/3/4 310/3/4
f 311/2/4 312/2/4 313/2/4
f 313/2/4 312/2/4 314/2/4
f 315/3/4 316/3/4 317/3/4
f 317/3/4 316/3/4 318/3/4
f 319/3/4 320/3/4 321/3/4
f 321/3/4 320/3/4 322/3/4
f 322/3/4 323/3/4 324/3/4
f 324/3/4 323/3/4 325/3/4
f 325/3/4 323/3/4 326/3/4
f 327/3/4 328/3/4 329/3/4
f 329/3/4 328/3/4 330/3/4
f 331/3/4 332/3/4 335/3/4
f 332/3/4 333/3/4 335/3/4
f 335/3/4 333/3/4 336/3/4
f 334/3/4 335/3/4 337/3/4
f 337/3/4 335/3/4 338/3/4
f 339/3/4 340/3/4 343/3/4
f 343/3/4 340/3/4 344/3/4
f 341/2/4 342/2/4 347/2/4
f 347/2/4 342/2/4 348/2/4
f 345/3/4 346/3/4 352/3/4
f 349/3/4 350/3/4 353/3/4
f 353/3/4 350/3/4 354/3/4
f 351/3/4 352/3/4 355/3/4
f 352/3/4 346/3/4 355/3/4
f 355/3/4 346/3/4 356/3/4
f 351/3/4 355/3/4 357/3/4
f 351/3/4 357/3/4 359/3/4
f 357/3/4 358/3/4 359/3/4
f 359/3/4 358/3/4 360/3/4
f 361/3/4 362/3/4 365/3/4
f 365/3/4 362/3/4 366/3/4
f 360/3/4 358/3/4 367/3/4
f 367/3/4 358/3/4 368/3/4
f 363/2/4 364/2/4 369/2/4
f 369/2/4 364/2/4 370/2/4
f 371/3/4 372/3/4 373/3/4
f 373/3/4 372/3/4 374/3/4
f 375/3/4 376/3/4 377/3/4
f 377/3/4 376/3/4 378/3/4
f 377/1/4 378/1/4 380/1/4
f 378/1/4 379/1/4 380/1/4
f 380/1/4 379/1/4 381/1/4
f 382/1/4 383/1/4 384/1/4
f 384/1/4 383/1/4 385/1/4
f 386/1/4 387/1/4 388/1/4
f 388/1/4 387/1/4 389/1/4
f 389/1/4 387/1/4 390/1/4
f 388/3/4 389/3/4 391/3/4
f 391/3/4 389/3/4 392/3/4
f 398/2/5 394/2/5 393/2/5
f 399/2/5 394/2/5 398/2/5
f 400/2/5 396/2/5 395/2/5
f 401/2/5 396/2/5 400/2/5
f 403/3/5 398/3/5 397/3/5
f 403/3/5 399/3/5 398/3/5
f 404/3/5 399/3/5 403/3/5
f 405/2/5 394/2/5 399/2/5
f 405/3/5 399/3/5 404/3/5
f 406/3/5 402/3/5 401/3/5
f 406/3/5 401/3/5 400/3/5
f 407/3/5 402/3/5 406/3/5
f 408/3/5 402/3/5 407/3/5
f 409/2/5 405/2/5 404/2/5
f 410/2/5 394/2/5 405/2/5
f 410/2/5 405/2/5 409/2/5
f 411/2/5 407/2/5 406/2/5
f 412/2/5 407/2/5 411/2/5
f 417/1/5 414/1/5 413/1/5
f 418/1/5 414/1/5 417/1/5
f 423/1/5 416/1/5 415/1/5
f 424/1/5 416/1/5 423/1/5
f 425/3/5 418/3/5 417/3/5
f 426/1/5 420/1/5 419/1/5
f 427/1/5 420/1/5 426/1/5
f 428/1/5 422/1/5 421/1/5
f 429/1/5 422/1/5 428/1/5
f 430/3/5 424/3/5 423/3/5
f 431/3/5 425/3/5 417/3/5
f 432/3/5 425/3/5 431/3/5
f 433/3/5 427/3/5 426/3/5
f 433/3/5 429/3/5 428/3/5
f 433/3/5 428/3/5 427/3/5
f 434/3/5 429/3/5 433/3/5
f 435/3/5 424/3/5 430/3/5
f 436/3/5 424/3/5 435/3/5
f 439/4/5 434/4/5 433/4/5
f 440/4/5 434/4/5 439/4/5
f 443/3/5 438/3/5 437/3/5
f 444/3/5 440/3/5 439/3/5
f 445/3/5 440/3/5 444/3/5
f 446/3/5 440/3/5 445/3/5
f 447/3/5 440/3/5 446/3/5
f 448/3/5 442/3/5 441/3/5
f 449/3/5 443/3/5 437/3/5
f 450/1/5 444/1/5 443/1/5
f 450/3/5 443/3/5 449/3/5
f 450/1/5 445/1/5 444/1/5
f 451/1/5 445/1/5 450/1/5
f 452/1/5 447/1/5 446/1/5
f 452/1/5 448/1/5 447/1/5
f 453/3/5 442/3/5 448/3/5
f 453/1/5 448/1/5 452/1/5
f 454/3/5 442/3/5 453/3/5
f 457/1/5 456/1/5 455/1/5
f 458/1/5 456/1/5 457/1/5
f 461/1/5 460/1/5 459/1/5
f 462/1/5 460/1/5 461/1/5
f 465/3/5 464/3/5 463/3/5
f 466/3/5 464/3/5 465/3/5
f 471/3/5 468/3/5 467/3/5
f 472/3/5 468/3/5 471/3/5
f 473/3/5 470/3/5 469/3/5
f 474/3/5 470/3/5 473/3/5
f 477/3/5 476/3/5 475/3/5
f 478/3/5 476/3/5 477/3/5
f 479/3/5 476/3/5 478/3/5
f 480/3/5 476/3/5 479/3/5
f 481/3/5 478/3/5 477/3/5
f 482/3/5 478/3/5 481/3/5
f 483/3/5 480/3/5 479/3/5
f 484/3/5 480/3/5 483/3/5
f 485/3/6 486/3/6 489/3/6
f 489/3/6 486/3/6 490/3/6
f 487/3/6 488/3/6 491/3/6
f 491/3/6 488/3/6 492/3/6
f 493/3/6 494/3/6 497/3/6
f 497/3/6 494/3/6 498/3/6
f 495/3/6 496/3/6 499/3/6
f 499/3/6 496/3/6 500/3/6
f 501/1/6 502/1/6 505/1/6
f 505/1/6 502/1/6 506/1/6
f 503/1/6 504/1/6 509/1/6
f 509/1/6 504/1/6 510/1/6
f 505/3/6 506/3/6 511/3/6
f 507/1/6 508/1/6 512/1/6
f 512/1/6 508/1/6 513/1/6
f 509/3/6 510/3/6 514/3/6
f 505/3/6 511/3/6 515/3/6
f 515/3/6 511/3/6 516/3/6
f 514/3/6 510/3/6 517/3/6
f 517/3/6 510/3/6 518/3/6
f 519/3/6 520/3/6 523/3/6
f 521/3/6 522/3/6 526/3/6
f 523/3/6 524/3/6 527/3/6
f 519/3/6 523/3/6 527/3/6
f 527/3/6 524/3/6 528/3/6
f 528/3/6 524/3/6 529/3/6
f 525/3/6 526/3/6 532/3/6
f 526/3/6 522/3/6 533/3/6
f 532/3/6 526/3/6 533/3/6
f 533/3/6 522/3/6 534/3/6
f 529/1/6 530/1/6 535/1/6
f 528/1/6 529/1/6 535/1/6
f 535/1/6 530/1/6 536/1/6
f 531/1/6 532/1/6 537/1/6
f 532/1/6 533/1/6 537/1/6
f 537/1/6 533/1/6 538/1/6
f 539/3/6 540/3/6 541/3/6
f 541/3/6 540/3/6 542/3/6
f 542/3/6 540/3/6 543/3/6
f 543/3/6 540/3/6 544/3/6
f 542/3/6 543/3/6 545/3/6
f 545/3/6 543/3/6 546/3/6
f 539/3/6 541/3/6 547/3/6
f 547/3/6 541/3/6 548/3/6
f 544/3/6 540/3/6 549/3/6
f 549/3/6 540/3/6 550/3/6
f 551/3/6 552/3/6 557/3/6
f 557/3/6 552/3/6 558/3/6
f 553/3/6 554/3/6 559/3/6
f 559/3/6 554/3/6 560/3/6
f 555/3/6 556/3/6 561/3/6
f 561/3/6 556/3/6 562/3/6
f 559/3/6 560/3/6 563/3/6
f 560/3/6 561/3/6 563/3/6
f 558/3/6 559/3/6 563/3/6
f 563/3/6 561/3/6 564/3/6
f 564/3/6 561/3/6 565/3/6
f 565/3/6 561/3/6 566/3/6
f 564/1/6 565/1/6 567/1/6
f 567/1/6 565/1/6 568/1/6
f 569/3/6 570/3/6 572/3/6
f 572/3/6 570/3/6 573/3/6
f 571/3/6 572/3/6 575/3/6
f 573/3/6 574/3/6 575/3/6
f 572/3/6 573/3/6 575/3/6
f 575/3/6 574/3/6 576/3/6
f 576/3/6 574/3/6 577/3/6
f 577/3/6 574/3/6 578/3/6
f 571/3/6 575/3/6 579/3/6
f 579/3/6 575/3/6 580/3/6
f 578/3/6 574/3/6 581/3/6
f 581/3/6 574/3/6 582/3/6
f 580/3/6 575/3/6 583/3/6
f 583/3/6 575/3/6 584/3/6
f 576/3/6 577/3/6 585/3/6
f 585/3/6 577/3/6 586/3/6
f 578/3/6 581/3/6 587/3/6
f 587/3/6 581/3/6 588/3/6
f 589/3/6 590/3/6 593/3/6
f 593/3/6 590/3/6 594/3/6
f 591/3/6 592/3/6 595/3/6
f 595/3/6 592/3/6 596/3/6
