# MagicaVoxel @ Ephtracy

# group
g lamp2

# material
mtllib lamp2.mtl
usemtl palette

# normals
vn -1 0 0
vn 1 0 0
vn 0 0 1
vn 0 0 -1
vn 0 -1 0
vn 0 1 0

# texcoords
vt 0.0566406 0.5
vt 0.990234 0.5

# verts
v -5 0 5
v -5 0 4
v -5 1 5
v -5 1 4
v -4 0 1
v -4 0 -0
v -4 0 -2
v -4 0 -3
v -4 1 1
v -4 1 -0
v -4 1 -2
v -4 1 -3
v -3 0 2
v -3 0 1
v -3 0 -3
v -3 0 -4
v -3 1 2
v -3 1 1
v -3 1 -3
v -3 1 -4
v -2 10 1
v -2 10 -0
v -2 10 -1
v -2 10 -2
v -2 11 1
v -2 11 -0
v -2 11 -1
v -2 11 -2
v -2 14 1
v -2 14 -0
v -2 14 -1
v -2 14 -2
v -2 15 1
v -2 15 -0
v -2 15 -1
v -2 15 -2
v -1 0 1
v -1 0 -0
v -1 0 -1
v -1 0 -2
v -1 0 -3
v -1 0 -4
v -1 1 1
v -1 1 -3
v -1 1 -4
v -1 2 1
v -1 2 -0
v -1 2 -1
v -1 2 -2
v -1 10 2
v -1 10 1
v -1 10 -2
v -1 10 -3
v -1 11 2
v -1 11 1
v -1 11 -0
v -1 11 -1
v -1 11 -2
v -1 11 -3
v -1 12 -0
v -1 12 -1
v -1 14 2
v -1 14 1
v -1 14 -0
v -1 14 -1
v -1 14 -2
v -1 14 -3
v -1 15 2
v -1 15 1
v -1 15 -0
v -1 15 -1
v -1 15 -2
v -1 15 -3
v -1 16 1
v -1 16 -0
v -1 16 -1
v -1 16 -2
v 0 0 5
v 0 0 4
v 0 0 3
v 0 0 2
v 0 0 -0
v 0 0 -1
v 0 0 -4
v 0 0 -5
v 0 1 5
v 0 1 4
v 0 1 3
v 0 1 2
v 0 1 -4
v 0 1 -5
v 0 2 -0
v 0 2 -1
v 0 10 -0
v 0 10 -1
v 0 12 -0
v 0 12 -1
v 0 14 -0
v 0 14 -1
v 1 0 1
v 1 0 -0
v 1 0 -1
v 1 0 -2
v 1 0 -5
v 1 0 -6
v 1 1 -5
v 1 1 -6
v 1 2 1
v 1 2 -0
v 1 2 -1
v 1 2 -2
v 1 10 -0
v 1 10 -1
v 1 11 -0
v 1 11 -1
v 1 12 1
v 1 12 -0
v 1 12 -1
v 1 12 -2
v 1 14 2
v 1 14 1
v 1 14 -0
v 1 14 -1
v 1 14 -2
v 1 14 -3
v 1 15 2
v 1 15 1
v 1 15 -0
v 1 15 -1
v 1 15 -2
v 1 15 -3
v 1 16 1
v 1 16 -0
v 1 16 -1
v 1 16 -2
v 2 0 -0
v 2 0 -1
v 2 1 -0
v 2 1 -1
v 3 0 1
v 3 0 -0
v 3 0 -2
v 3 0 -4
v 3 1 1
v 3 1 -0
v 3 1 -2
v 3 1 -4
v 6 0 -3
v 6 0 -4
v 6 1 -3
v 6 1 -4
v 7 0 3
v 7 0 2
v 7 1 3
v 7 1 2
v -4 0 5
v -4 0 4
v -4 1 5
v -4 1 4
v -3 0 1
v -3 0 -0
v -3 0 -2
v -3 0 -3
v -3 1 1
v -3 1 -0
v -3 1 -2
v -3 1 -3
v -2 0 -3
v -2 0 -4
v -2 1 -3
v -2 1 -4
v -1 0 2
v -1 0 1
v -1 1 2
v -1 1 1
v 0 0 1
v 0 0 -0
v 0 0 -1
v 0 0 -2
v 0 0 -3
v 0 0 -4
v 0 1 -3
v 0 1 -4
v 0 2 1
v 0 2 -0
v 0 2 -1
v 0 2 -2
v 0 10 -0
v 0 10 -1
v 0 11 -0
v 0 11 -1
v 0 12 1
v 0 12 -0
v 0 12 -1
v 0 12 -2
v 0 14 2
v 0 14 1
v 0 14 -0
v 0 14 -1
v 0 14 -2
v 0 14 -3
v 0 15 2
v 0 15 1
v 0 15 -0
v 0 15 -1
v 0 15 -2
v 0 15 -3
v 0 16 1
v 0 16 -0
v 0 16 -1
v 0 16 -2
v 1 0 5
v 1 0 4
v 1 0 3
v 1 0 2
v 1 0 -0
v 1 0 -1
v 1 0 -4
v 1 0 -5
v 1 1 5
v 1 1 4
v 1 1 3
v 1 1 2
v 1 1 -4
v 1 1 -5
v 1 2 -0
v 1 2 -1
v 1 10 -0
v 1 10 -1
v 1 12 -0
v 1 12 -1
v 1 14 -0
v 1 14 -1
v 2 0 1
v 2 0 -0
v 2 0 -1
v 2 0 -2
v 2 0 -5
v 2 0 -6
v 2 1 -0
v 2 1 -1
v 2 1 -5
v 2 1 -6
v 2 2 1
v 2 2 -0
v 2 2 -1
v 2 2 -2
v 2 10 2
v 2 10 1
v 2 10 -2
v 2 10 -3
v 2 11 2
v 2 11 1
v 2 11 -0
v 2 11 -1
v 2 11 -2
v 2 11 -3
v 2 12 -0
v 2 12 -1
v 2 14 2
v 2 14 1
v 2 14 -0
v 2 14 -1
v 2 14 -2
v 2 14 -3
v 2 15 2
v 2 15 1
v 2 15 -0
v 2 15 -1
v 2 15 -2
v 2 15 -3
v 2 16 1
v 2 16 -0
v 2 16 -1
v 2 16 -2
v 3 0 -0
v 3 0 -1
v 3 1 -0
v 3 1 -1
v 3 10 1
v 3 10 -0
v 3 10 -1
v 3 10 -2
v 3 11 1
v 3 11 -0
v 3 11 -1
v 3 11 -2
v 3 14 1
v 3 14 -0
v 3 14 -1
v 3 14 -2
v 3 15 1
v 3 15 -0
v 3 15 -1
v 3 15 -2
v 4 0 1
v 4 0 -0
v 4 0 -2
v 4 0 -4
v 4 1 1
v 4 1 -0
v 4 1 -2
v 4 1 -4
v 7 0 -3
v 7 0 -4
v 7 1 -3
v 7 1 -4
v 8 0 3
v 8 0 2
v 8 1 3
v 8 1 2
v -5 0 5
v -5 1 5
v -4 0 5
v -4 1 5
v 0 0 5
v 0 1 5
v 1 0 5
v 1 1 5
v 0 0 3
v 0 1 3
v 1 0 3
v 1 1 3
v 7 0 3
v 7 1 3
v 8 0 3
v 8 1 3
v -3 0 2
v -3 1 2
v -1 0 2
v -1 1 2
v -1 10 2
v -1 11 2
v -1 14 2
v -1 15 2
v 0 10 2
v 0 11 2
v 0 14 2
v 0 15 2
v 1 10 2
v 1 11 2
v 1 14 2
v 1 15 2
v 2 10 2
v 2 11 2
v 2 14 2
v 2 15 2
v -4 0 1
v -4 1 1
v -3 0 1
v -3 1 1
v -2 10 1
v -2 11 1
v -2 14 1
v -2 15 1
v -1 0 1
v -1 1 1
v -1 2 1
v -1 10 1
v -1 11 1
v -1 14 1
v -1 15 1
v -1 16 1
v 0 0 1
v 0 2 1
v 0 11 1
v 0 12 1
v 0 14 1
v 0 15 1
v 0 16 1
v 1 0 1
v 1 2 1
v 1 11 1
v 1 12 1
v 1 14 1
v 1 15 1
v 1 16 1
v 2 0 1
v 2 2 1
v 2 10 1
v 2 11 1
v 2 14 1
v 2 15 1
v 2 16 1
v 3 0 1
v 3 1 1
v 3 10 1
v 3 11 1
v 3 14 1
v 3 15 1
v 4 0 1
v 4 1 1
v 0 0 -0
v 0 2 -0
v 0 10 -0
v 0 12 -0
v 0 14 -0
v 1 0 -0
v 1 2 -0
v 1 10 -0
v 1 12 -0
v 1 14 -0
v 2 0 -0
v 2 1 -0
v 3 0 -0
v 3 1 -0
v -2 14 -1
v -2 15 -1
v -1 0 -1
v -1 2 -1
v -1 12 -1
v -1 14 -1
v -1 15 -1
v -1 16 -1
v 0 0 -1
v 0 2 -1
v 0 10 -1
v 0 11 -1
v 0 12 -1
v 0 14 -1
v 0 15 -1
v 0 16 -1
v 1 0 -1
v 1 2 -1
v 1 10 -1
v 1 11 -1
v 1 12 -1
v 1 14 -1
v 1 15 -1
v 1 16 -1
v 2 0 -1
v 2 1 -1
v 2 2 -1
v 2 12 -1
v 2 14 -1
v 2 15 -1
v 2 16 -1
v 3 14 -1
v 3 15 -1
v -4 0 -2
v -4 1 -2
v -3 0 -2
v -3 1 -2
v 3 0 -2
v 3 1 -2
v 4 0 -2
v 4 1 -2
v -3 0 -3
v -3 1 -3
v -2 0 -3
v -2 1 -3
v -1 0 -3
v -1 1 -3
v 0 0 -3
v 0 1 -3
v 6 0 -3
v 6 1 -3
v 7 0 -3
v 7 1 -3
v 0 0 -4
v 0 1 -4
v 1 0 -4
v 1 1 -4
v 1 0 -5
v 1 1 -5
v 2 0 -5
v 2 1 -5
v -5 0 4
v -5 1 4
v -4 0 4
v -4 1 4
v 0 0 4
v 0 1 4
v 1 0 4
v 1 1 4
v 0 0 2
v 0 1 2
v 1 0 2
v 1 1 2
v 7 0 2
v 7 1 2
v 8 0 2
v 8 1 2
v -3 0 1
v -3 1 1
v -1 0 1
v -1 1 1
v -4 0 -0
v -4 1 -0
v -3 0 -0
v -3 1 -0
v -2 14 -0
v -2 15 -0
v -1 0 -0
v -1 2 -0
v -1 12 -0
v -1 14 -0
v -1 15 -0
v -1 16 -0
v 0 0 -0
v 0 2 -0
v 0 10 -0
v 0 11 -0
v 0 12 -0
v 0 14 -0
v 0 15 -0
v 0 16 -0
v 1 0 -0
v 1 2 -0
v 1 10 -0
v 1 11 -0
v 1 12 -0
v 1 14 -0
v 1 15 -0
v 1 16 -0
v 2 0 -0
v 2 1 -0
v 2 2 -0
v 2 12 -0
v 2 14 -0
v 2 15 -0
v 2 16 -0
v 3 0 -0
v 3 1 -0
v 3 14 -0
v 3 15 -0
v 4 0 -0
v 4 1 -0
v 0 0 -1
v 0 2 -1
v 0 10 -1
v 0 12 -1
v 0 14 -1
v 1 0 -1
v 1 2 -1
v 1 10 -1
v 1 12 -1
v 1 14 -1
v 2 0 -1
v 2 1 -1
v 3 0 -1
v 3 1 -1
v -2 10 -2
v -2 11 -2
v -2 14 -2
v -2 15 -2
v -1 0 -2
v -1 2 -2
v -1 10 -2
v -1 11 -2
v -1 14 -2
v -1 15 -2
v -1 16 -2
v 0 0 -2
v 0 2 -2
v 0 11 -2
v 0 12 -2
v 0 14 -2
v 0 15 -2
v 0 16 -2
v 1 0 -2
v 1 2 -2
v 1 11 -2
v 1 12 -2
v 1 14 -2
v 1 15 -2
v 1 16 -2
v 2 0 -2
v 2 2 -2
v 2 10 -2
v 2 11 -2
v 2 14 -2
v 2 15 -2
v 2 16 -2
v 3 10 -2
v 3 11 -2
v 3 14 -2
v 3 15 -2
v -4 0 -3
v -4 1 -3
v -3 0 -3
v -3 1 -3
v -1 10 -3
v -1 11 -3
v -1 14 -3
v -1 15 -3
v 0 10 -3
v 0 11 -3
v 0 14 -3
v 0 15 -3
v 1 10 -3
v 1 11 -3
v 1 14 -3
v 1 15 -3
v 2 10 -3
v 2 11 -3
v 2 14 -3
v 2 15 -3
v -3 0 -4
v -3 1 -4
v -2 0 -4
v -2 1 -4
v -1 0 -4
v -1 1 -4
v 0 0 -4
v 0 1 -4
v 3 0 -4
v 3 1 -4
v 4 0 -4
v 4 1 -4
v 6 0 -4
v 6 1 -4
v 7 0 -4
v 7 1 -4
v 0 0 -5
v 0 1 -5
v 1 0 -5
v 1 1 -5
v 1 0 -6
v 1 1 -6
v 2 0 -6
v 2 1 -6
v -5 0 5
v -4 0 5
v 0 0 5
v 1 0 5
v -5 0 4
v -4 0 4
v 0 0 4
v 1 0 4
v 0 0 3
v 1 0 3
v 7 0 3
v 8 0 3
v -3 0 2
v -1 0 2
v 0 0 2
v 1 0 2
v 7 0 2
v 8 0 2
v -4 0 1
v -3 0 1
v -1 0 1
v 0 0 1
v 1 0 1
v 2 0 1
v 3 0 1
v 4 0 1
v -4 0 -0
v -3 0 -0
v -1 0 -0
v 0 0 -0
v 1 0 -0
v 2 0 -0
v 3 0 -0
v 4 0 -0
v -1 0 -1
v 0 0 -1
v 1 0 -1
v 2 0 -1
v 3 0 -1
v -4 0 -2
v -3 0 -2
v -1 0 -2
v 0 0 -2
v 1 0 -2
v 2 0 -2
v 3 0 -2
v 4 0 -2
v -4 0 -3
v -3 0 -3
v -2 0 -3
v -1 0 -3
v 0 0 -3
v 6 0 -3
v 7 0 -3
v -3 0 -4
v -2 0 -4
v -1 0 -4
v 0 0 -4
v 1 0 -4
v 3 0 -4
v 4 0 -4
v 6 0 -4
v 7 0 -4
v 0 0 -5
v 1 0 -5
v 2 0 -5
v 1 0 -6
v 2 0 -6
v -1 10 2
v 0 10 2
v 1 10 2
v 2 10 2
v -2 10 1
v -1 10 1
v 0 10 1
v 1 10 1
v 2 10 1
v 3 10 1
v -2 10 -0
v -1 10 -0
v 0 10 -0
v 1 10 -0
v 2 10 -0
v 3 10 -0
v -2 10 -1
v -1 10 -1
v 0 10 -1
v 1 10 -1
v 2 10 -1
v 3 10 -1
v -2 10 -2
v -1 10 -2
v 0 10 -2
v 1 10 -2
v 2 10 -2
v 3 10 -2
v -1 10 -3
v 0 10 -3
v 1 10 -3
v 2 10 -3
v 0 11 -0
v 1 11 -0
v 0 11 -1
v 1 11 -1
v -1 14 2
v 0 14 2
v 1 14 2
v 2 14 2
v -2 14 1
v -1 14 1
v 0 14 1
v 1 14 1
v 2 14 1
v 3 14 1
v -2 14 -0
v -1 14 -0
v 0 14 -0
v 1 14 -0
v 2 14 -0
v 3 14 -0
v -2 14 -1
v -1 14 -1
v 0 14 -1
v 1 14 -1
v 2 14 -1
v 3 14 -1
v -2 14 -2
v -1 14 -2
v 0 14 -2
v 1 14 -2
v 2 14 -2
v 3 14 -2
v -1 14 -3
v 0 14 -3
v 1 14 -3
v 2 14 -3
v -5 1 5
v -4 1 5
v 0 1 5
v 1 1 5
v -5 1 4
v -4 1 4
v 0 1 4
v 1 1 4
v 0 1 3
v 1 1 3
v 7 1 3
v 8 1 3
v -3 1 2
v -1 1 2
v 0 1 2
v 1 1 2
v 7 1 2
v 8 1 2
v -4 1 1
v -3 1 1
v -1 1 1
v 3 1 1
v 4 1 1
v -4 1 -0
v -3 1 -0
v 2 1 -0
v 3 1 -0
v 4 1 -0
v 2 1 -1
v 3 1 -1
v -4 1 -2
v -3 1 -2
v 3 1 -2
v 4 1 -2
v -4 1 -3
v -3 1 -3
v -2 1 -3
v -1 1 -3
v 0 1 -3
v 6 1 -3
v 7 1 -3
v -3 1 -4
v -2 1 -4
v -1 1 -4
v 0 1 -4
v 1 1 -4
v 3 1 -4
v 4 1 -4
v 6 1 -4
v 7 1 -4
v 0 1 -5
v 1 1 -5
v 2 1 -5
v 1 1 -6
v 2 1 -6
v -1 2 1
v 0 2 1
v 1 2 1
v 2 2 1
v -1 2 -0
v 0 2 -0
v 1 2 -0
v 2 2 -0
v -1 2 -1
v 0 2 -1
v 1 2 -1
v 2 2 -1
v -1 2 -2
v 0 2 -2
v 1 2 -2
v 2 2 -2
v 0 10 -0
v 1 10 -0
v 0 10 -1
v 1 10 -1
v -1 11 2
v 0 11 2
v 1 11 2
v 2 11 2
v -2 11 1
v -1 11 1
v 0 11 1
v 1 11 1
v 2 11 1
v 3 11 1
v -2 11 -0
v -1 11 -0
v 2 11 -0
v 3 11 -0
v -2 11 -1
v -1 11 -1
v 2 11 -1
v 3 11 -1
v -2 11 -2
v -1 11 -2
v 0 11 -2
v 1 11 -2
v 2 11 -2
v 3 11 -2
v -1 11 -3
v 0 11 -3
v 1 11 -3
v 2 11 -3
v 0 12 1
v 1 12 1
v -1 12 -0
v 0 12 -0
v 1 12 -0
v 2 12 -0
v -1 12 -1
v 0 12 -1
v 1 12 -1
v 2 12 -1
v 0 12 -2
v 1 12 -2
v 0 14 -0
v 1 14 -0
v 0 14 -1
v 1 14 -1
v -1 15 2
v 0 15 2
v 1 15 2
v 2 15 2
v -2 15 1
v -1 15 1
v 0 15 1
v 1 15 1
v 2 15 1
v 3 15 1
v -2 15 -0
v -1 15 -0
v 0 15 -0
v 1 15 -0
v 2 15 -0
v 3 15 -0
v -2 15 -1
v -1 15 -1
v 0 15 -1
v 1 15 -1
v 2 15 -1
v 3 15 -1
v -2 15 -2
v -1 15 -2
v 0 15 -2
v 1 15 -2
v 2 15 -2
v 3 15 -2
v -1 15 -3
v 0 15 -3
v 1 15 -3
v 2 15 -3
v -1 16 1
v 0 16 1
v 1 16 1
v 2 16 1
v -1 16 -0
v 0 16 -0
v 1 16 -0
v 2 16 -0
v -1 16 -1
v 0 16 -1
v 1 16 -1
v 2 16 -1
v -1 16 -2
v 0 16 -2
v 1 16 -2
v 2 16 -2

# faces
f 3/1/1 2/1/1 1/1/1
f 4/1/1 2/1/1 3/1/1
f 9/1/1 6/1/1 5/1/1
f 10/1/1 6/1/1 9/1/1
f 11/1/1 8/1/1 7/1/1
f 12/1/1 8/1/1 11/1/1
f 17/1/1 14/1/1 13/1/1
f 18/1/1 14/1/1 17/1/1
f 19/1/1 16/1/1 15/1/1
f 20/1/1 16/1/1 19/1/1
f 25/2/1 22/2/1 21/2/1
f 26/1/1 23/1/1 22/1/1
f 26/2/1 22/2/1 25/2/1
f 27/2/1 24/2/1 23/2/1
f 27/1/1 23/1/1 26/1/1
f 28/2/1 24/2/1 27/2/1
f 33/2/1 30/2/1 29/2/1
f 34/2/1 30/2/1 33/2/1
f 35/2/1 32/2/1 31/2/1
f 36/2/1 32/2/1 35/2/1
f 43/2/1 38/2/1 37/2/1
f 44/1/1 42/1/1 41/1/1
f 45/1/1 42/1/1 44/1/1
f 46/2/1 38/2/1 43/2/1
f 47/2/1 38/2/1 46/2/1
f 48/2/1 40/2/1 39/2/1
f 49/2/1 40/2/1 48/2/1
f 54/2/1 51/2/1 50/2/1
f 55/2/1 51/2/1 54/2/1
f 58/2/1 53/2/1 52/2/1
f 59/2/1 53/2/1 58/2/1
f 60/1/1 57/1/1 56/1/1
f 60/2/1 56/2/1 55/2/1
f 61/2/1 58/2/1 57/2/1
f 61/1/1 57/1/1 60/1/1
f 63/2/1 60/2/1 55/2/1
f 64/2/1 60/2/1 63/2/1
f 65/2/1 58/2/1 61/2/1
f 66/2/1 58/2/1 65/2/1
f 68/2/1 63/2/1 62/2/1
f 69/2/1 63/2/1 68/2/1
f 70/1/1 65/1/1 64/1/1
f 71/1/1 65/1/1 70/1/1
f 72/2/1 67/2/1 66/2/1
f 73/2/1 67/2/1 72/2/1
f 74/2/1 70/2/1 69/2/1
f 75/2/1 70/2/1 74/2/1
f 76/2/1 72/2/1 71/2/1
f 77/2/1 72/2/1 76/2/1
f 86/1/1 79/1/1 78/1/1
f 87/1/1 79/1/1 86/1/1
f 88/1/1 81/1/1 80/1/1
f 89/1/1 81/1/1 88/1/1
f 90/1/1 85/1/1 84/1/1
f 91/1/1 85/1/1 90/1/1
f 92/2/1 83/2/1 82/2/1
f 93/2/1 83/2/1 92/2/1
f 94/2/1 93/2/1 92/2/1
f 95/2/1 93/2/1 94/2/1
f 98/1/1 97/1/1 96/1/1
f 99/1/1 97/1/1 98/1/1
f 106/1/1 105/1/1 104/1/1
f 107/1/1 105/1/1 106/1/1
f 108/2/1 101/2/1 100/2/1
f 109/2/1 101/2/1 108/2/1
f 110/2/1 103/2/1 102/2/1
f 111/2/1 103/2/1 110/2/1
f 114/2/1 113/2/1 112/2/1
f 115/2/1 113/2/1 114/2/1
f 121/2/1 117/2/1 116/2/1
f 122/2/1 117/2/1 121/2/1
f 123/2/1 119/2/1 118/2/1
f 124/2/1 119/2/1 123/2/1
f 126/2/1 121/2/1 120/2/1
f 127/2/1 121/2/1 126/2/1
f 128/1/1 123/1/1 122/1/1
f 129/1/1 123/1/1 128/1/1
f 130/2/1 125/2/1 124/2/1
f 131/2/1 125/2/1 130/2/1
f 132/2/1 128/2/1 127/2/1
f 133/2/1 128/2/1 132/2/1
f 134/2/1 130/2/1 129/2/1
f 135/2/1 130/2/1 134/2/1
f 138/1/1 137/1/1 136/1/1
f 139/1/1 137/1/1 138/1/1
f 144/1/1 141/1/1 140/1/1
f 145/1/1 141/1/1 144/1/1
f 146/1/1 143/1/1 142/1/1
f 147/1/1 143/1/1 146/1/1
f 150/1/1 149/1/1 148/1/1
f 151/1/1 149/1/1 150/1/1
f 154/1/1 153/1/1 152/1/1
f 155/1/1 153/1/1 154/1/1
f 156/1/2 157/1/2 158/1/2
f 158/1/2 157/1/2 159/1/2
f 160/1/2 161/1/2 164/1/2
f 164/1/2 161/1/2 165/1/2
f 162/1/2 163/1/2 166/1/2
f 166/1/2 163/1/2 167/1/2
f 168/1/2 169/1/2 170/1/2
f 170/1/2 169/1/2 171/1/2
f 172/1/2 173/1/2 174/1/2
f 174/1/2 173/1/2 175/1/2
f 180/1/2 181/1/2 182/1/2
f 182/1/2 181/1/2 183/1/2
f 176/2/2 177/2/2 184/2/2
f 184/2/2 177/2/2 185/2/2
f 178/2/2 179/2/2 186/2/2
f 186/2/2 179/2/2 187/2/2
f 188/2/2 189/2/2 190/2/2
f 190/2/2 189/2/2 191/2/2
f 192/2/2 193/2/2 197/2/2
f 197/2/2 193/2/2 198/2/2
f 194/2/2 195/2/2 199/2/2
f 199/2/2 195/2/2 200/2/2
f 196/2/2 197/2/2 202/2/2
f 202/2/2 197/2/2 203/2/2
f 198/1/2 199/1/2 204/1/2
f 204/1/2 199/1/2 205/1/2
f 200/2/2 201/2/2 206/2/2
f 206/2/2 201/2/2 207/2/2
f 203/2/2 204/2/2 208/2/2
f 208/2/2 204/2/2 209/2/2
f 205/2/2 206/2/2 210/2/2
f 210/2/2 206/2/2 211/2/2
f 212/1/2 213/1/2 220/1/2
f 220/1/2 213/1/2 221/1/2
f 214/1/2 215/1/2 222/1/2
f 222/1/2 215/1/2 223/1/2
f 218/1/2 219/1/2 224/1/2
f 224/1/2 219/1/2 225/1/2
f 216/2/2 217/2/2 226/2/2
f 226/2/2 217/2/2 227/2/2
f 226/2/2 227/2/2 228/2/2
f 228/2/2 227/2/2 229/2/2
f 230/1/2 231/1/2 232/1/2
f 232/1/2 231/1/2 233/1/2
f 234/2/2 235/2/2 240/2/2
f 236/2/2 237/2/2 241/2/2
f 238/1/2 239/1/2 242/1/2
f 242/1/2 239/1/2 243/1/2
f 234/2/2 240/2/2 244/2/2
f 244/2/2 240/2/2 245/2/2
f 241/2/2 237/2/2 246/2/2
f 246/2/2 237/2/2 247/2/2
f 248/2/2 249/2/2 252/2/2
f 252/2/2 249/2/2 253/2/2
f 250/2/2 251/2/2 256/2/2
f 256/2/2 251/2/2 257/2/2
f 254/1/2 255/1/2 258/1/2
f 253/2/2 254/2/2 258/2/2
f 255/2/2 256/2/2 259/2/2
f 258/1/2 255/1/2 259/1/2
f 253/2/2 258/2/2 261/2/2
f 261/2/2 258/2/2 262/2/2
f 259/2/2 256/2/2 263/2/2
f 263/2/2 256/2/2 264/2/2
f 260/2/2 261/2/2 266/2/2
f 266/2/2 261/2/2 267/2/2
f 262/1/2 263/1/2 268/1/2
f 268/1/2 263/1/2 269/1/2
f 264/2/2 265/2/2 270/2/2
f 270/2/2 265/2/2 271/2/2
f 267/2/2 268/2/2 272/2/2
f 272/2/2 268/2/2 273/2/2
f 269/2/2 270/2/2 274/2/2
f 274/2/2 270/2/2 275/2/2
f 276/1/2 277/1/2 278/1/2
f 278/1/2 277/1/2 279/1/2
f 280/2/2 281/2/2 284/2/2
f 281/1/2 282/1/2 285/1/2
f 284/2/2 281/2/2 285/2/2
f 282/2/2 283/2/2 286/2/2
f 285/1/2 282/1/2 286/1/2
f 286/2/2 283/2/2 287/2/2
f 288/2/2 289/2/2 292/2/2
f 292/2/2 289/2/2 293/2/2
f 290/2/2 291/2/2 294/2/2
f 294/2/2 291/2/2 295/2/2
f 296/1/2 297/1/2 300/1/2
f 300/1/2 297/1/2 301/1/2
f 298/1/2 299/1/2 302/1/2
f 302/1/2 299/1/2 303/1/2
f 304/1/2 305/1/2 306/1/2
f 306/1/2 305/1/2 307/1/2
f 308/1/2 309/1/2 310/1/2
f 310/1/2 309/1/2 311/1/2
f 314/1/3 313/1/3 312/1/3
f 315/1/3 313/1/3 314/1/3
f 318/1/3 317/1/3 316/1/3
f 319/1/3 317/1/3 318/1/3
f 322/1/3 321/1/3 320/1/3
f 323/1/3 321/1/3 322/1/3
f 326/1/3 325/1/3 324/1/3
f 327/1/3 325/1/3 326/1/3
f 330/1/3 329/1/3 328/1/3
f 331/1/3 329/1/3 330/1/3
f 336/2/3 333/2/3 332/2/3
f 337/2/3 333/2/3 336/2/3
f 338/2/3 335/2/3 334/2/3
f 339/2/3 335/2/3 338/2/3
f 340/1/3 337/1/3 336/1/3
f 341/1/3 337/1/3 340/1/3
f 344/2/3 341/2/3 340/2/3
f 345/2/3 341/2/3 344/2/3
f 346/2/3 343/2/3 342/2/3
f 347/2/3 343/2/3 346/2/3
f 350/1/3 349/1/3 348/1/3
f 351/1/3 349/1/3 350/1/3
f 359/2/3 353/2/3 352/2/3
f 360/2/3 353/2/3 359/2/3
f 361/2/3 355/2/3 354/2/3
f 362/2/3 355/2/3 361/2/3
f 364/2/3 358/2/3 357/2/3
f 364/2/3 357/2/3 356/2/3
f 365/2/3 358/2/3 364/2/3
f 366/2/3 361/2/3 360/2/3
f 367/2/3 361/2/3 366/2/3
f 368/2/3 361/2/3 367/2/3
f 369/2/3 363/2/3 362/2/3
f 370/2/3 363/2/3 369/2/3
f 373/1/3 367/1/3 366/1/3
f 374/1/3 367/1/3 373/1/3
f 375/1/3 369/1/3 368/1/3
f 376/1/3 369/1/3 375/1/3
f 378/2/3 372/2/3 371/2/3
f 379/2/3 372/2/3 378/2/3
f 381/2/3 374/2/3 373/2/3
f 381/2/3 375/2/3 374/2/3
f 382/2/3 375/2/3 381/2/3
f 383/2/3 377/2/3 376/2/3
f 384/2/3 377/2/3 383/2/3
f 387/2/3 381/2/3 380/2/3
f 388/2/3 381/2/3 387/2/3
f 389/2/3 383/2/3 382/2/3
f 390/2/3 383/2/3 389/2/3
f 391/1/3 386/1/3 385/1/3
f 392/1/3 386/1/3 391/1/3
f 398/2/3 394/2/3 393/2/3
f 398/2/3 395/2/3 394/2/3
f 399/2/3 395/2/3 398/2/3
f 400/2/3 395/2/3 399/2/3
f 401/1/3 397/1/3 396/1/3
f 402/1/3 397/1/3 401/1/3
f 405/1/3 404/1/3 403/1/3
f 406/1/3 404/1/3 405/1/3
f 412/2/3 408/2/3 407/2/3
f 413/2/3 408/2/3 412/2/3
f 415/2/3 410/2/3 409/2/3
f 416/2/3 410/2/3 415/2/3
f 419/2/3 412/2/3 411/2/3
f 420/2/3 412/2/3 419/2/3
f 421/2/3 414/2/3 413/2/3
f 422/2/3 414/2/3 421/2/3
f 425/2/3 418/2/3 417/2/3
f 426/2/3 418/2/3 425/2/3
f 428/1/3 421/1/3 420/1/3
f 429/1/3 421/1/3 428/1/3
f 431/2/3 424/2/3 423/2/3
f 432/2/3 424/2/3 431/2/3
f 433/2/3 424/2/3 432/2/3
f 434/2/3 428/2/3 427/2/3
f 435/2/3 428/2/3 434/2/3
f 436/2/3 430/2/3 429/2/3
f 437/2/3 430/2/3 436/2/3
f 438/2/3 436/2/3 435/2/3
f 439/2/3 436/2/3 438/2/3
f 442/1/3 441/1/3 440/1/3
f 443/1/3 441/1/3 442/1/3
f 446/1/3 445/1/3 444/1/3
f 447/1/3 445/1/3 446/1/3
f 450/1/3 449/1/3 448/1/3
f 451/1/3 449/1/3 450/1/3
f 454/1/3 453/1/3 452/1/3
f 455/1/3 453/1/3 454/1/3
f 458/1/3 457/1/3 456/1/3
f 459/1/3 457/1/3 458/1/3
f 462/1/3 461/1/3 460/1/3
f 463/1/3 461/1/3 462/1/3
f 466/1/3 465/1/3 464/1/3
f 467/1/3 465/1/3 466/1/3
f 468/1/4 469/1/4 470/1/4
f 470/1/4 469/1/4 471/1/4
f 472/1/4 473/1/4 474/1/4
f 474/1/4 473/1/4 475/1/4
f 476/1/4 477/1/4 478/1/4
f 478/1/4 477/1/4 479/1/4
f 480/1/4 481/1/4 482/1/4
f 482/1/4 481/1/4 483/1/4
f 484/1/4 485/1/4 486/1/4
f 486/1/4 485/1/4 487/1/4
f 488/1/4 489/1/4 490/1/4
f 490/1/4 489/1/4 491/1/4
f 492/2/4 493/2/4 497/2/4
f 497/2/4 493/2/4 498/2/4
f 494/2/4 495/2/4 500/2/4
f 500/2/4 495/2/4 501/2/4
f 496/2/4 497/2/4 504/2/4
f 504/2/4 497/2/4 505/2/4
f 498/2/4 499/2/4 506/2/4
f 506/2/4 499/2/4 507/2/4
f 502/2/4 503/2/4 510/2/4
f 510/2/4 503/2/4 511/2/4
f 505/1/4 506/1/4 513/1/4
f 513/1/4 506/1/4 514/1/4
f 508/2/4 509/2/4 516/2/4
f 516/2/4 509/2/4 517/2/4
f 517/2/4 509/2/4 518/2/4
f 512/2/4 513/2/4 519/2/4
f 519/2/4 513/2/4 520/2/4
f 514/2/4 515/2/4 521/2/4
f 521/2/4 515/2/4 522/2/4
f 520/2/4 521/2/4 525/2/4
f 525/2/4 521/2/4 526/2/4
f 523/1/4 524/1/4 527/1/4
f 527/1/4 524/1/4 528/1/4
f 529/2/4 530/2/4 534/2/4
f 530/2/4 531/2/4 534/2/4
f 534/2/4 531/2/4 535/2/4
f 535/2/4 531/2/4 536/2/4
f 532/1/4 533/1/4 537/1/4
f 537/1/4 533/1/4 538/1/4
f 539/1/4 540/1/4 541/1/4
f 541/1/4 540/1/4 542/1/4
f 543/2/4 544/2/4 549/2/4
f 549/2/4 544/2/4 550/2/4
f 545/2/4 546/2/4 551/2/4
f 551/2/4 546/2/4 552/2/4
f 547/2/4 548/2/4 554/2/4
f 554/2/4 548/2/4 555/2/4
f 550/2/4 551/2/4 556/2/4
f 556/2/4 551/2/4 557/2/4
f 557/2/4 551/2/4 558/2/4
f 552/2/4 553/2/4 559/2/4
f 559/2/4 553/2/4 560/2/4
f 556/1/4 557/1/4 563/1/4
f 563/1/4 557/1/4 564/1/4
f 558/1/4 559/1/4 565/1/4
f 565/1/4 559/1/4 566/1/4
f 561/2/4 562/2/4 568/2/4
f 568/2/4 562/2/4 569/2/4
f 563/2/4 564/2/4 571/2/4
f 564/2/4 565/2/4 571/2/4
f 571/2/4 565/2/4 572/2/4
f 566/2/4 567/2/4 573/2/4
f 573/2/4 567/2/4 574/2/4
f 570/2/4 571/2/4 575/2/4
f 575/2/4 571/2/4 576/2/4
f 572/2/4 573/2/4 577/2/4
f 577/2/4 573/2/4 578/2/4
f 579/1/4 580/1/4 581/1/4
f 581/1/4 580/1/4 582/1/4
f 583/2/4 584/2/4 587/2/4
f 587/2/4 584/2/4 588/2/4
f 585/2/4 586/2/4 589/2/4
f 589/2/4 586/2/4 590/2/4
f 587/1/4 588/1/4 591/1/4
f 591/1/4 588/1/4 592/1/4
f 591/2/4 592/2/4 595/2/4
f 595/2/4 592/2/4 596/2/4
f 593/2/4 594/2/4 597/2/4
f 597/2/4 594/2/4 598/2/4
f 599/1/4 600/1/4 601/1/4
f 601/1/4 600/1/4 602/1/4
f 603/1/4 604/1/4 605/1/4
f 605/1/4 604/1/4 606/1/4
f 607/1/4 608/1/4 609/1/4
f 609/1/4 608/1/4 610/1/4
f 611/1/4 612/1/4 613/1/4
f 613/1/4 612/1/4 614/1/4
f 615/1/4 616/1/4 617/1/4
f 617/1/4 616/1/4 618/1/4
f 619/1/4 620/1/4 621/1/4
f 621/1/4 620/1/4 622/1/4
f 627/1/5 624/1/5 623/1/5
f 628/1/5 624/1/5 627/1/5
f 629/1/5 626/1/5 625/1/5
f 630/1/5 626/1/5 629/1/5
f 637/1/5 632/1/5 631/1/5
f 638/1/5 632/1/5 637/1/5
f 639/1/5 634/1/5 633/1/5
f 640/1/5 634/1/5 639/1/5
f 642/1/5 636/1/5 635/1/5
f 643/1/5 636/1/5 642/1/5
f 649/1/5 642/1/5 641/1/5
f 650/1/5 642/1/5 649/1/5
f 651/2/5 644/2/5 643/2/5
f 652/2/5 644/2/5 651/2/5
f 653/2/5 646/2/5 645/2/5
f 654/2/5 646/2/5 653/2/5
f 655/1/5 648/1/5 647/1/5
f 656/1/5 648/1/5 655/1/5
f 658/2/5 653/2/5 652/2/5
f 659/2/5 653/2/5 658/2/5
f 660/1/5 655/1/5 654/1/5
f 661/1/5 655/1/5 660/1/5
f 664/2/5 658/2/5 657/2/5
f 665/2/5 658/2/5 664/2/5
f 666/2/5 660/2/5 659/2/5
f 667/2/5 660/2/5 666/2/5
f 670/1/5 663/1/5 662/1/5
f 671/1/5 663/1/5 670/1/5
f 677/1/5 672/1/5 671/1/5
f 678/1/5 672/1/5 677/1/5
f 679/1/5 674/1/5 673/1/5
f 680/1/5 674/1/5 679/1/5
f 682/1/5 669/1/5 668/1/5
f 683/1/5 669/1/5 682/1/5
f 684/1/5 676/1/5 675/1/5
f 685/1/5 676/1/5 684/1/5
f 686/1/5 681/1/5 680/1/5
f 687/1/5 681/1/5 686/1/5
f 689/1/5 688/1/5 687/1/5
f 690/1/5 688/1/5 689/1/5
f 696/2/5 692/2/5 691/2/5
f 697/1/5 693/1/5 692/1/5
f 697/2/5 692/2/5 696/2/5
f 698/2/5 694/2/5 693/2/5
f 698/1/5 693/1/5 697/1/5
f 699/2/5 694/2/5 698/2/5
f 701/2/5 697/2/5 696/2/5
f 701/2/5 700/2/5 699/2/5
f 701/2/5 699/2/5 698/2/5
f 701/2/5 698/2/5 697/2/5
f 701/2/5 696/2/5 695/2/5
f 702/2/5 700/2/5 701/2/5
f 703/2/5 700/2/5 702/2/5
f 704/2/5 700/2/5 703/2/5
f 705/2/5 700/2/5 704/2/5
f 706/2/5 700/2/5 705/2/5
f 707/1/5 702/1/5 701/1/5
f 708/2/5 703/2/5 702/2/5
f 708/1/5 702/1/5 707/1/5
f 709/2/5 703/2/5 708/2/5
f 710/2/5 705/2/5 704/2/5
f 711/1/5 706/1/5 705/1/5
f 711/2/5 705/2/5 710/2/5
f 712/1/5 706/1/5 711/1/5
f 713/2/5 710/2/5 709/2/5
f 713/2/5 709/2/5 708/2/5
f 713/2/5 712/2/5 711/2/5
f 713/2/5 711/2/5 710/2/5
f 713/2/5 708/2/5 707/2/5
f 714/2/5 712/2/5 713/2/5
f 715/2/5 712/2/5 714/2/5
f 716/2/5 712/2/5 715/2/5
f 717/2/5 712/2/5 716/2/5
f 718/2/5 712/2/5 717/2/5
f 719/2/5 715/2/5 714/2/5
f 720/1/5 716/1/5 715/1/5
f 720/2/5 715/2/5 719/2/5
f 721/2/5 717/2/5 716/2/5
f 721/1/5 716/1/5 720/1/5
f 722/2/5 717/2/5 721/2/5
f 725/2/5 724/2/5 723/2/5
f 726/2/5 724/2/5 725/2/5
f 732/2/5 728/2/5 727/2/5
f 733/2/5 728/2/5 732/2/5
f 734/2/5 730/2/5 729/2/5
f 735/2/5 730/2/5 734/2/5
f 737/2/5 732/2/5 731/2/5
f 738/2/5 732/2/5 737/2/5
f 739/1/5 734/1/5 733/1/5
f 740/1/5 734/1/5 739/1/5
f 741/2/5 736/2/5 735/2/5
f 742/2/5 736/2/5 741/2/5
f 744/1/5 739/1/5 738/1/5
f 745/1/5 739/1/5 744/1/5
f 746/1/5 741/1/5 740/1/5
f 747/1/5 741/1/5 746/1/5
f 749/2/5 744/2/5 743/2/5
f 750/2/5 744/2/5 749/2/5
f 751/1/5 746/1/5 745/1/5
f 752/1/5 746/1/5 751/1/5
f 753/2/5 748/2/5 747/2/5
f 754/2/5 748/2/5 753/2/5
f 755/2/5 751/2/5 750/2/5
f 756/2/5 751/2/5 755/2/5
f 757/2/5 753/2/5 752/2/5
f 758/2/5 753/2/5 757/2/5
f 759/1/6 760/1/6 763/1/6
f 763/1/6 760/1/6 764/1/6
f 761/1/6 762/1/6 765/1/6
f 765/1/6 762/1/6 766/1/6
f 767/1/6 768/1/6 773/1/6
f 773/1/6 768/1/6 774/1/6
f 769/1/6 770/1/6 775/1/6
f 775/1/6 770/1/6 776/1/6
f 771/1/6 772/1/6 778/1/6
f 778/1/6 772/1/6 779/1/6
f 777/1/6 778/1/6 782/1/6
f 782/1/6 778/1/6 783/1/6
f 780/1/6 781/1/6 785/1/6
f 785/1/6 781/1/6 786/1/6
f 784/1/6 785/1/6 787/1/6
f 787/1/6 785/1/6 788/1/6
f 789/1/6 790/1/6 793/1/6
f 793/1/6 790/1/6 794/1/6
f 794/1/6 795/1/6 800/1/6
f 800/1/6 795/1/6 801/1/6
f 796/1/6 797/1/6 802/1/6
f 802/1/6 797/1/6 803/1/6
f 791/1/6 792/1/6 805/1/6
f 805/1/6 792/1/6 806/1/6
f 798/1/6 799/1/6 807/1/6
f 807/1/6 799/1/6 808/1/6
f 803/1/6 804/1/6 809/1/6
f 809/1/6 804/1/6 810/1/6
f 810/1/6 811/1/6 812/1/6
f 812/1/6 811/1/6 813/1/6
f 814/2/6 815/2/6 818/2/6
f 818/2/6 815/2/6 819/2/6
f 816/2/6 817/2/6 820/2/6
f 820/2/6 817/2/6 821/2/6
f 822/2/6 823/2/6 826/2/6
f 826/2/6 823/2/6 827/2/6
f 824/2/6 825/2/6 828/2/6
f 828/2/6 825/2/6 829/2/6
f 830/2/6 831/2/6 832/2/6
f 832/2/6 831/2/6 833/2/6
f 834/2/6 835/2/6 839/2/6
f 835/1/6 836/1/6 840/1/6
f 839/2/6 835/2/6 840/2/6
f 836/2/6 837/2/6 841/2/6
f 840/1/6 836/1/6 841/1/6
f 841/2/6 837/2/6 842/2/6
f 838/2/6 839/2/6 844/2/6
f 844/2/6 839/2/6 845/2/6
f 842/2/6 843/2/6 846/2/6
f 846/2/6 843/2/6 847/2/6
f 844/1/6 845/1/6 848/1/6
f 848/1/6 845/1/6 849/1/6
f 846/1/6 847/1/6 850/1/6
f 850/1/6 847/1/6 851/1/6
f 848/2/6 849/2/6 852/2/6
f 852/2/6 849/2/6 853/2/6
f 850/2/6 851/2/6 856/2/6
f 856/2/6 851/2/6 857/2/6
f 853/2/6 854/2/6 858/2/6
f 854/1/6 855/1/6 859/1/6
f 858/2/6 854/2/6 859/2/6
f 855/2/6 856/2/6 860/2/6
f 859/1/6 855/1/6 860/1/6
f 860/2/6 856/2/6 861/2/6
f 862/1/6 863/1/6 865/1/6
f 865/1/6 863/1/6 866/1/6
f 864/1/6 865/1/6 868/1/6
f 868/1/6 865/1/6 869/1/6
f 866/1/6 867/1/6 870/1/6
f 870/1/6 867/1/6 871/1/6
f 869/1/6 870/1/6 872/1/6
f 872/1/6 870/1/6 873/1/6
f 874/1/6 875/1/6 876/1/6
f 876/1/6 875/1/6 877/1/6
f 878/2/6 879/2/6 883/2/6
f 883/2/6 879/2/6 884/2/6
f 880/2/6 881/2/6 885/2/6
f 885/2/6 881/2/6 886/2/6
f 882/2/6 883/2/6 888/2/6
f 888/2/6 883/2/6 889/2/6
f 884/1/6 885/1/6 890/1/6
f 890/1/6 885/1/6 891/1/6
f 886/2/6 887/2/6 892/2/6
f 892/2/6 887/2/6 893/2/6
f 889/1/6 890/1/6 895/1/6
f 895/1/6 890/1/6 896/1/6
f 891/1/6 892/1/6 897/1/6
f 897/1/6 892/1/6 898/1/6
f 894/2/6 895/2/6 900/2/6
f 900/2/6 895/2/6 901/2/6
f 896/1/6 897/1/6 902/1/6
f 902/1/6 897/1/6 903/1/6
f 898/2/6 899/2/6 904/2/6
f 904/2/6 899/2/6 905/2/6
f 901/2/6 902/2/6 906/2/6
f 906/2/6 902/2/6 907/2/6
f 903/2/6 904/2/6 908/2/6
f 908/2/6 904/2/6 909/2/6
f 910/2/6 911/2/6 914/2/6
f 914/2/6 911/2/6 915/2/6
f 912/2/6 913/2/6 916/2/6
f 916/2/6 913/2/6 917/2/6
f 918/2/6 919/2/6 922/2/6
f 922/2/6 919/2/6 923/2/6
f 920/2/6 921/2/6 924/2/6
f 924/2/6 921/2/6 925/2/6
