# MagicaVoxel @ Ephtracy

# group
g djtable

# material
mtllib djtable.mtl
usemtl palette

# normals
vn -1 0 0
vn 1 0 0
vn 0 0 1
vn 0 0 -1
vn 0 -1 0
vn 0 1 0

# texcoords
vt 0.0566406 0.5
vt 0.404297 0.5
vt 0.583984 0.5
vt 0.771484 0.5
vt 0.974609 0.5
vt 0.994141 0.5

# verts
v -17 1 1
v -17 1 -8
v -17 11 1
v -17 11 -8
v -16 0 1
v -16 0 -8
v -16 0 -9
v -16 0 -10
v -16 1 1
v -16 1 -8
v -16 11 1
v -16 11 -8
v -16 12 -8
v -16 12 -9
v -16 12 -10
v -16 13 1
v -16 13 -8
v -15 0 2
v -15 0 1
v -15 13 1
v -15 13 -0
v -15 14 2
v -15 14 -0
v -14 1 3
v -14 1 2
v -14 11 3
v -14 11 2
v -13 2 4
v -13 2 3
v -13 10 4
v -13 10 3
v -12 3 5
v -12 3 4
v -12 9 5
v -12 9 4
v -3 3 5
v -3 3 4
v -3 9 5
v -3 9 4
v 3 3 5
v 3 3 4
v 3 9 5
v 3 9 4
v 11 0 -0
v 11 0 -8
v 11 0 -9
v 11 0 -10
v 11 1 -0
v 11 6 -0
v 11 6 -5
v 11 12 -5
v 11 12 -8
v 11 12 -9
v 11 12 -10
v 14 12 1
v 14 12 -8
v 14 13 1
v 14 13 -0
v 14 13 -8
v -15 12 1
v -15 12 -8
v -15 13 1
v -15 13 -0
v -15 13 -8
v -12 0 -0
v -12 0 -8
v -12 0 -9
v -12 0 -10
v -12 1 -0
v -12 6 -0
v -12 6 -5
v -12 12 -5
v -12 12 -8
v -12 12 -9
v -12 12 -10
v -4 3 5
v -4 3 4
v -4 9 5
v -4 9 4
v 2 3 5
v 2 3 4
v 2 9 5
v 2 9 4
v 11 3 5
v 11 3 4
v 11 9 5
v 11 9 4
v 12 2 4
v 12 2 3
v 12 10 4
v 12 10 3
v 13 1 3
v 13 1 2
v 13 11 3
v 13 11 2
v 14 0 2
v 14 0 1
v 14 13 1
v 14 13 -0
v 14 14 2
v 14 14 -0
v 15 0 1
v 15 0 -8
v 15 0 -9
v 15 0 -10
v 15 1 1
v 15 1 -8
v 15 11 1
v 15 11 -8
v 15 12 -8
v 15 12 -9
v 15 12 -10
v 15 13 1
v 15 13 -8
v 16 1 1
v 16 1 -8
v 16 11 1
v 16 11 -8
v -12 3 5
v -12 9 5
v -4 3 5
v -4 9 5
v -3 3 5
v -3 9 5
v 2 3 5
v 2 9 5
v 3 3 5
v 3 9 5
v 11 3 5
v 11 9 5
v -13 2 4
v -13 10 4
v -12 3 4
v -12 9 4
v -4 3 4
v -4 9 4
v -3 3 4
v -3 9 4
v 2 3 4
v 2 9 4
v 3 3 4
v 3 9 4
v 11 3 4
v 11 9 4
v 12 2 4
v 12 10 4
v -14 1 3
v -14 11 3
v -13 2 3
v -13 10 3
v 12 2 3
v 12 10 3
v 13 1 3
v 13 11 3
v -15 0 2
v -15 14 2
v -14 1 2
v -14 11 2
v 13 1 2
v 13 11 2
v 14 0 2
v 14 14 2
v -17 1 1
v -17 11 1
v -16 0 1
v -16 1 1
v -16 11 1
v -16 13 1
v -15 0 1
v -15 13 1
v 14 0 1
v 14 13 1
v 15 0 1
v 15 1 1
v 15 11 1
v 15 13 1
v 16 1 1
v 16 11 1
v -15 12 1
v -15 13 1
v -12 12 1
v -6 12 1
v -5 12 1
v 4 12 1
v 5 12 1
v 11 12 1
v 14 12 1
v 14 13 1
v -15 13 -0
v -15 14 -0
v -12 0 -0
v -12 1 -0
v -12 6 -0
v 11 0 -0
v 11 1 -0
v 11 6 -0
v 14 13 -0
v 14 14 -0
v -12 6 -5
v -12 12 -5
v 11 6 -5
v 11 12 -5
v -17 1 -8
v -17 11 -8
v -16 1 -8
v -16 11 -8
v -16 12 -8
v -16 13 -8
v -15 12 -8
v -15 13 -8
v 14 12 -8
v 14 13 -8
v 15 1 -8
v 15 11 -8
v 15 12 -8
v 15 13 -8
v 16 1 -8
v 16 11 -8
v -16 0 -10
v -16 12 -10
v -12 0 -10
v -12 12 -10
v 11 0 -10
v 11 12 -10
v 15 0 -10
v 15 12 -10
v -15 0 2
v 14 0 2
v -16 0 1
v -15 0 1
v 14 0 1
v 15 0 1
v -12 0 -0
v 11 0 -0
v -16 0 -8
v -12 0 -8
v 11 0 -8
v 15 0 -8
v -16 0 -9
v -12 0 -9
v 11 0 -9
v 15 0 -9
v -16 0 -10
v -12 0 -10
v 11 0 -10
v 15 0 -10
v -14 1 3
v 13 1 3
v -14 1 2
v 13 1 2
v -17 1 1
v -16 1 1
v 15 1 1
v 16 1 1
v -17 1 -8
v -16 1 -8
v 15 1 -8
v 16 1 -8
v -13 2 4
v 12 2 4
v -13 2 3
v 12 2 3
v -12 3 5
v -4 3 5
v -3 3 5
v 2 3 5
v 3 3 5
v 11 3 5
v -12 3 4
v -4 3 4
v -3 3 4
v 2 3 4
v 3 3 4
v 11 3 4
v -12 6 -0
v 11 6 -0
v -12 6 -5
v 11 6 -5
v -15 13 1
v 14 13 1
v -15 13 -0
v 14 13 -0
v -12 9 5
v -4 9 5
v -3 9 5
v 2 9 5
v 3 9 5
v 11 9 5
v -12 9 4
v -4 9 4
v -3 9 4
v 2 9 4
v 3 9 4
v 11 9 4
v -13 10 4
v 12 10 4
v -13 10 3
v 12 10 3
v -14 11 3
v 13 11 3
v -14 11 2
v 13 11 2
v -17 11 1
v -16 11 1
v 15 11 1
v 16 11 1
v -17 11 -8
v -16 11 -8
v 15 11 -8
v 16 11 -8
v -15 12 1
v -12 12 1
v -6 12 1
v -5 12 1
v 4 12 1
v 5 12 1
v 11 12 1
v 14 12 1
v -11 12 -0
v -10 12 -0
v -8 12 -0
v -7 12 -0
v -4 12 -0
v -2 12 -0
v 0 12 -0
v 1 12 -0
v 2 12 -0
v 3 12 -0
v 6 12 -0
v 7 12 -0
v 9 12 -0
v 10 12 -0
v -11 12 -1
v -10 12 -1
v -8 12 -1
v -7 12 -1
v -4 12 -1
v -3 12 -1
v -1 12 -1
v 0 12 -1
v 1 12 -1
v 2 12 -1
v 3 12 -1
v 6 12 -1
v 7 12 -1
v 8 12 -1
v 9 12 -1
v 10 12 -1
v -11 12 -2
v -10 12 -2
v -8 12 -2
v -7 12 -2
v -4 12 -2
v -3 12 -2
v -2 12 -2
v -1 12 -2
v 0 12 -2
v 1 12 -2
v 3 12 -2
v 6 12 -2
v 7 12 -2
v 8 12 -2
v 9 12 -2
v -11 12 -3
v -10 12 -3
v -8 12 -3
v -7 12 -3
v -4 12 -3
v -3 12 -3
v -2 12 -3
v -1 12 -3
v 1 12 -3
v 3 12 -3
v 6 12 -3
v 7 12 -3
v 8 12 -3
v 9 12 -3
v -12 12 -4
v -6 12 -4
v -5 12 -4
v 4 12 -4
v 5 12 -4
v 11 12 -4
v -12 12 -5
v 11 12 -5
v -16 12 -8
v -15 12 -8
v -12 12 -8
v 11 12 -8
v 14 12 -8
v 15 12 -8
v -16 12 -9
v -12 12 -9
v 11 12 -9
v 15 12 -9
v -16 12 -10
v -12 12 -10
v 11 12 -10
v 15 12 -10
v -16 13 1
v -15 13 1
v 14 13 1
v 15 13 1
v -15 13 -0
v 14 13 -0
v -16 13 -8
v -15 13 -8
v 14 13 -8
v 15 13 -8
v -15 14 2
v 14 14 2
v -15 14 -0
v 14 14 -0

# faces
f 3/1/1 2/1/1 1/1/1
f 4/1/1 2/1/1 3/1/1
f 9/6/1 6/6/1 5/6/1
f 10/5/1 7/5/1 6/5/1
f 10/6/1 6/6/1 9/6/1
f 12/5/1 7/5/1 10/5/1
f 13/5/1 7/5/1 12/5/1
f 13/6/1 12/6/1 11/6/1
f 14/6/1 8/6/1 7/6/1
f 14/5/1 7/5/1 13/5/1
f 15/6/1 8/6/1 14/6/1
f 16/6/1 13/6/1 11/6/1
f 17/6/1 13/6/1 16/6/1
f 20/6/1 19/6/1 18/6/1
f 22/6/1 20/6/1 18/6/1
f 22/6/1 21/6/1 20/6/1
f 23/6/1 21/6/1 22/6/1
f 26/1/1 25/1/1 24/1/1
f 27/1/1 25/1/1 26/1/1
f 30/4/1 29/4/1 28/4/1
f 31/4/1 29/4/1 30/4/1
f 34/3/1 33/3/1 32/3/1
f 35/3/1 33/3/1 34/3/1
f 38/2/1 37/2/1 36/2/1
f 39/2/1 37/2/1 38/2/1
f 42/3/1 41/3/1 40/3/1
f 43/3/1 41/3/1 42/3/1
f 48/6/1 45/6/1 44/6/1
f 49/6/1 45/6/1 48/6/1
f 50/6/1 45/6/1 49/6/1
f 51/6/1 45/6/1 50/6/1
f 52/5/1 46/5/1 45/5/1
f 52/6/1 45/6/1 51/6/1
f 53/6/1 47/6/1 46/6/1
f 53/5/1 46/5/1 52/5/1
f 54/6/1 47/6/1 53/6/1
f 57/6/1 56/6/1 55/6/1
f 58/6/1 56/6/1 57/6/1
f 59/6/1 56/6/1 58/6/1
f 60/6/2 61/6/2 62/6/2
f 62/6/2 61/6/2 63/6/2
f 63/6/2 61/6/2 64/6/2
f 65/6/2 66/6/2 69/6/2
f 69/6/2 66/6/2 70/6/2
f 70/6/2 66/6/2 71/6/2
f 71/6/2 66/6/2 72/6/2
f 66/5/2 67/5/2 73/5/2
f 72/6/2 66/6/2 73/6/2
f 67/6/2 68/6/2 74/6/2
f 73/5/2 67/5/2 74/5/2
f 74/6/2 68/6/2 75/6/2
f 76/3/2 77/3/2 78/3/2
f 78/3/2 77/3/2 79/3/2
f 80/2/2 81/2/2 82/2/2
f 82/2/2 81/2/2 83/2/2
f 84/3/2 85/3/2 86/3/2
f 86/3/2 85/3/2 87/3/2
f 88/4/2 89/4/2 90/4/2
f 90/4/2 89/4/2 91/4/2
f 92/1/2 93/1/2 94/1/2
f 94/1/2 93/1/2 95/1/2
f 96/6/2 97/6/2 98/6/2
f 96/6/2 98/6/2 100/6/2
f 98/6/2 99/6/2 100/6/2
f 100/6/2 99/6/2 101/6/2
f 102/6/2 103/6/2 106/6/2
f 103/5/2 104/5/2 107/5/2
f 106/6/2 103/6/2 107/6/2
f 107/5/2 104/5/2 109/5/2
f 109/5/2 104/5/2 110/5/2
f 108/6/2 109/6/2 110/6/2
f 104/6/2 105/6/2 111/6/2
f 110/5/2 104/5/2 111/5/2
f 111/6/2 105/6/2 112/6/2
f 108/6/2 110/6/2 113/6/2
f 113/6/2 110/6/2 114/6/2
f 115/1/2 116/1/2 117/1/2
f 117/1/2 116/1/2 118/1/2
f 121/3/3 120/3/3 119/3/3
f 122/3/3 120/3/3 121/3/3
f 125/2/3 124/2/3 123/2/3
f 126/2/3 124/2/3 125/2/3
f 129/3/3 128/3/3 127/3/3
f 130/3/3 128/3/3 129/3/3
f 133/4/3 132/4/3 131/4/3
f 134/4/3 132/4/3 133/4/3
f 135/4/3 133/4/3 131/4/3
f 136/4/3 132/4/3 134/4/3
f 137/4/3 135/4/3 131/4/3
f 137/4/3 136/4/3 135/4/3
f 138/4/3 132/4/3 136/4/3
f 138/4/3 136/4/3 137/4/3
f 139/4/3 137/4/3 131/4/3
f 140/4/3 132/4/3 138/4/3
f 141/4/3 139/4/3 131/4/3
f 141/4/3 140/4/3 139/4/3
f 142/4/3 132/4/3 140/4/3
f 142/4/3 140/4/3 141/4/3
f 143/4/3 141/4/3 131/4/3
f 144/4/3 132/4/3 142/4/3
f 145/4/3 143/4/3 131/4/3
f 145/4/3 144/4/3 143/4/3
f 146/4/3 132/4/3 144/4/3
f 146/4/3 144/4/3 145/4/3
f 149/1/3 148/1/3 147/1/3
f 150/1/3 148/1/3 149/1/3
f 151/1/3 149/1/3 147/1/3
f 152/1/3 148/1/3 150/1/3
f 153/1/3 151/1/3 147/1/3
f 153/1/3 152/1/3 151/1/3
f 154/1/3 148/1/3 152/1/3
f 154/1/3 152/1/3 153/1/3
f 157/6/3 156/6/3 155/6/3
f 158/6/3 156/6/3 157/6/3
f 159/6/3 157/6/3 155/6/3
f 160/6/3 156/6/3 158/6/3
f 161/6/3 159/6/3 155/6/3
f 161/6/3 160/6/3 159/6/3
f 162/6/3 156/6/3 160/6/3
f 162/6/3 160/6/3 161/6/3
f 166/1/3 164/1/3 163/1/3
f 167/1/3 164/1/3 166/1/3
f 169/6/3 166/6/3 165/6/3
f 169/6/3 168/6/3 167/6/3
f 169/6/3 167/6/3 166/6/3
f 170/6/3 168/6/3 169/6/3
f 173/6/3 172/6/3 171/6/3
f 174/6/3 172/6/3 173/6/3
f 175/6/3 172/6/3 174/6/3
f 176/6/3 172/6/3 175/6/3
f 177/1/3 175/1/3 174/1/3
f 178/1/3 175/1/3 177/1/3
f 179/6/4 180/6/4 181/6/4
f 181/6/4 180/6/4 182/6/4
f 182/6/4 180/6/4 183/6/4
f 183/6/4 180/6/4 184/6/4
f 184/6/4 180/6/4 185/6/4
f 185/6/4 180/6/4 186/6/4
f 186/6/4 180/6/4 187/6/4
f 187/6/4 180/6/4 188/6/4
f 191/6/4 192/6/4 194/6/4
f 192/5/4 193/5/4 195/5/4
f 194/6/4 192/6/4 195/6/4
f 195/5/4 193/5/4 196/5/4
f 189/6/4 190/6/4 197/6/4
f 197/6/4 190/6/4 198/6/4
f 199/6/4 200/6/4 201/6/4
f 201/6/4 200/6/4 202/6/4
f 203/1/4 204/1/4 205/1/4
f 205/1/4 204/1/4 206/1/4
f 207/6/4 208/6/4 209/6/4
f 209/6/4 208/6/4 210/6/4
f 211/6/4 212/6/4 215/6/4
f 215/6/4 212/6/4 216/6/4
f 213/1/4 214/1/4 217/1/4
f 217/1/4 214/1/4 218/1/4
f 219/6/4 220/6/4 221/6/4
f 221/6/4 220/6/4 222/6/4
f 223/6/4 224/6/4 225/6/4
f 225/6/4 224/6/4 226/6/4
f 230/6/5 228/6/5 227/6/5
f 231/6/5 228/6/5 230/6/5
f 233/6/5 230/6/5 229/6/5
f 233/6/5 232/6/5 231/6/5
f 233/6/5 231/6/5 230/6/5
f 234/6/5 232/6/5 233/6/5
f 235/6/5 233/6/5 229/6/5
f 236/6/5 233/6/5 235/6/5
f 237/6/5 232/6/5 234/6/5
f 238/6/5 232/6/5 237/6/5
f 239/5/5 236/5/5 235/5/5
f 240/5/5 236/5/5 239/5/5
f 241/5/5 238/5/5 237/5/5
f 242/5/5 238/5/5 241/5/5
f 243/6/5 240/6/5 239/6/5
f 244/6/5 240/6/5 243/6/5
f 245/6/5 242/6/5 241/6/5
f 246/6/5 242/6/5 245/6/5
f 249/1/5 248/1/5 247/1/5
f 250/1/5 248/1/5 249/1/5
f 255/1/5 252/1/5 251/1/5
f 256/1/5 252/1/5 255/1/5
f 257/1/5 254/1/5 253/1/5
f 258/1/5 254/1/5 257/1/5
f 261/4/5 260/4/5 259/4/5
f 262/4/5 260/4/5 261/4/5
f 269/3/5 264/3/5 263/3/5
f 270/3/5 264/3/5 269/3/5
f 271/2/5 266/2/5 265/2/5
f 272/2/5 266/2/5 271/2/5
f 273/3/5 268/3/5 267/3/5
f 274/3/5 268/3/5 273/3/5
f 277/6/5 276/6/5 275/6/5
f 278/6/5 276/6/5 277/6/5
f 281/6/5 280/6/5 279/6/5
f 282/6/5 280/6/5 281/6/5
f 283/3/6 284/3/6 289/3/6
f 289/3/6 284/3/6 290/3/6
f 285/2/6 286/2/6 291/2/6
f 291/2/6 286/2/6 292/2/6
f 287/3/6 288/3/6 293/3/6
f 293/3/6 288/3/6 294/3/6
f 295/4/6 296/4/6 297/4/6
f 297/4/6 296/4/6 298/4/6
f 299/1/6 300/1/6 301/1/6
f 301/1/6 300/1/6 302/1/6
f 303/1/6 304/1/6 307/1/6
f 307/1/6 304/1/6 308/1/6
f 305/1/6 306/1/6 309/1/6
f 309/1/6 306/1/6 310/1/6
f 312/5/6 313/5/6 319/5/6
f 319/5/6 313/5/6 320/5/6
f 320/5/6 313/5/6 321/5/6
f 321/5/6 313/5/6 322/5/6
f 314/5/6 315/5/6 323/5/6
f 323/5/6 315/5/6 324/5/6
f 324/5/6 315/5/6 325/5/6
f 325/5/6 315/5/6 326/5/6
f 326/5/6 315/5/6 327/5/6
f 327/5/6 315/5/6 328/5/6
f 316/5/6 317/5/6 329/5/6
f 329/5/6 317/5/6 330/5/6
f 330/5/6 317/5/6 331/5/6
f 331/5/6 317/5/6 332/5/6
f 312/5/6 319/5/6 333/5/6
f 319/2/6 320/2/6 333/2/6
f 320/5/6 321/5/6 334/5/6
f 333/2/6 320/2/6 334/2/6
f 321/2/6 322/2/6 335/2/6
f 334/5/6 321/5/6 335/5/6
f 322/5/6 313/5/6 336/5/6
f 335/2/6 322/2/6 336/2/6
f 314/5/6 323/5/6 337/5/6
f 323/1/6 324/1/6 337/1/6
f 337/1/6 324/1/6 338/1/6
f 324/5/6 325/5/6 339/5/6
f 325/1/6 326/1/6 340/1/6
f 339/5/6 325/5/6 340/5/6
f 326/5/6 327/5/6 341/5/6
f 340/1/6 326/1/6 341/1/6
f 327/1/6 328/1/6 342/1/6
f 341/5/6 327/5/6 342/5/6
f 328/5/6 315/5/6 343/5/6
f 342/1/6 328/1/6 343/1/6
f 316/5/6 329/5/6 344/5/6
f 329/3/6 330/3/6 344/3/6
f 330/5/6 331/5/6 345/5/6
f 344/3/6 330/3/6 345/3/6
f 345/5/6 331/5/6 346/5/6
f 331/3/6 332/3/6 347/3/6
f 346/5/6 331/5/6 347/5/6
f 332/5/6 317/5/6 348/5/6
f 347/3/6 332/3/6 348/3/6
f 312/5/6 333/5/6 349/5/6
f 333/5/6 334/5/6 349/5/6
f 334/2/6 335/2/6 350/2/6
f 349/5/6 334/5/6 350/5/6
f 335/5/6 336/5/6 351/5/6
f 350/2/6 335/2/6 351/2/6
f 336/5/6 313/5/6 352/5/6
f 351/5/6 336/5/6 352/5/6
f 314/5/6 337/5/6 353/5/6
f 337/5/6 338/5/6 353/5/6
f 338/1/6 324/1/6 354/1/6
f 353/5/6 338/5/6 354/5/6
f 324/5/6 339/5/6 355/5/6
f 354/1/6 324/1/6 355/1/6
f 339/1/6 340/1/6 356/1/6
f 355/5/6 339/5/6 356/5/6
f 341/5/6 342/5/6 357/5/6
f 356/1/6 340/1/6 357/1/6
f 340/5/6 341/5/6 357/5/6
f 342/5/6 343/5/6 357/5/6
f 357/5/6 343/5/6 358/5/6
f 343/5/6 315/5/6 359/5/6
f 358/5/6 343/5/6 359/5/6
f 344/5/6 345/5/6 360/5/6
f 316/5/6 344/5/6 360/5/6
f 345/3/6 346/3/6 361/3/6
f 360/5/6 345/5/6 361/5/6
f 346/5/6 347/5/6 362/5/6
f 361/3/6 346/3/6 362/3/6
f 347/5/6 348/5/6 362/5/6
f 362/5/6 348/5/6 363/5/6
f 312/5/6 349/5/6 364/5/6
f 349/2/6 350/2/6 364/2/6
f 350/5/6 351/5/6 365/5/6
f 364/2/6 350/2/6 365/2/6
f 351/2/6 352/2/6 366/2/6
f 365/5/6 351/5/6 366/5/6
f 352/5/6 313/5/6 367/5/6
f 366/2/6 352/2/6 367/2/6
f 314/5/6 353/5/6 368/5/6
f 353/1/6 354/1/6 368/1/6
f 354/5/6 355/5/6 369/5/6
f 368/1/6 354/1/6 369/1/6
f 355/1/6 356/1/6 370/1/6
f 369/5/6 355/5/6 370/5/6
f 356/5/6 357/5/6 371/5/6
f 370/1/6 356/1/6 371/1/6
f 357/5/6 358/5/6 371/5/6
f 358/1/6 359/1/6 372/1/6
f 371/5/6 358/5/6 372/5/6
f 359/5/6 315/5/6 373/5/6
f 372/1/6 359/1/6 373/1/6
f 360/3/6 361/3/6 374/3/6
f 316/5/6 360/5/6 374/5/6
f 361/5/6 362/5/6 375/5/6
f 374/3/6 361/3/6 375/3/6
f 362/3/6 363/3/6 376/3/6
f 375/5/6 362/5/6 376/5/6
f 363/5/6 348/5/6 377/5/6
f 376/3/6 363/3/6 377/3/6
f 311/6/6 312/6/6 378/6/6
f 312/5/6 364/5/6 378/5/6
f 366/5/6 367/5/6 378/5/6
f 365/5/6 366/5/6 378/5/6
f 364/5/6 365/5/6 378/5/6
f 313/6/6 314/6/6 379/6/6
f 378/5/6 367/5/6 379/5/6
f 367/5/6 313/5/6 379/5/6
f 368/5/6 369/5/6 380/5/6
f 379/6/6 314/6/6 380/6/6
f 372/5/6 373/5/6 380/5/6
f 371/5/6 372/5/6 380/5/6
f 314/5/6 368/5/6 380/5/6
f 370/5/6 371/5/6 380/5/6
f 369/5/6 370/5/6 380/5/6
f 315/6/6 316/6/6 381/6/6
f 380/5/6 373/5/6 381/5/6
f 373/5/6 315/5/6 381/5/6
f 375/5/6 376/5/6 382/5/6
f 381/6/6 316/6/6 382/6/6
f 376/5/6 377/5/6 382/5/6
f 374/5/6 375/5/6 382/5/6
f 316/5/6 374/5/6 382/5/6
f 377/5/6 348/5/6 383/5/6
f 382/5/6 377/5/6 383/5/6
f 317/6/6 318/6/6 383/6/6
f 348/5/6 317/5/6 383/5/6
f 381/6/6 382/6/6 384/6/6
f 378/6/6 379/6/6 384/6/6
f 382/6/6 383/6/6 384/6/6
f 379/6/6 380/6/6 384/6/6
f 380/6/6 381/6/6 384/6/6
f 311/6/6 378/6/6 384/6/6
f 383/6/6 318/6/6 385/6/6
f 384/6/6 383/6/6 385/6/6
f 311/6/6 384/6/6 387/6/6
f 387/6/6 384/6/6 388/6/6
f 385/6/6 318/6/6 389/6/6
f 389/6/6 318/6/6 390/6/6
f 387/5/6 388/5/6 392/5/6
f 386/5/6 387/5/6 392/5/6
f 392/5/6 388/5/6 393/5/6
f 390/5/6 391/5/6 394/5/6
f 389/5/6 390/5/6 394/5/6
f 394/5/6 391/5/6 395/5/6
f 392/6/6 393/6/6 396/6/6
f 396/6/6 393/6/6 397/6/6
f 394/6/6 395/6/6 398/6/6
f 398/6/6 395/6/6 399/6/6
f 400/6/6 401/6/6 404/6/6
f 402/6/6 403/6/6 405/6/6
f 400/6/6 404/6/6 406/6/6
f 406/6/6 404/6/6 407/6/6
f 405/6/6 403/6/6 408/6/6
f 408/6/6 403/6/6 409/6/6
f 410/6/6 411/6/6 412/6/6
f 412/6/6 411/6/6 413/6/6
