# MagicaVoxel @ Ephtracy

# group
g table1

# material
mtllib table1.mtl
usemtl palette

# normals
vn -1 0 0
vn 1 0 0
vn 0 0 1
vn 0 0 -1
vn 0 -1 0
vn 0 1 0

# texcoords
vt 0.0566406 0.5
vt 0.994141 0.5

# verts
v -11 13 2
v -11 13 -3
v -11 14 2
v -11 14 -3
v -10 13 4
v -10 13 2
v -10 13 -3
v -10 13 -5
v -10 14 4
v -10 14 2
v -10 14 -3
v -10 14 -5
v -9 13 5
v -9 13 4
v -9 13 -5
v -9 13 -6
v -9 14 5
v -9 14 4
v -9 14 -5
v -9 14 -6
v -7 0 1
v -7 0 -2
v -7 1 1
v -7 1 -2
v -7 13 6
v -7 13 5
v -7 13 -6
v -7 13 -7
v -7 14 6
v -7 14 5
v -7 14 -6
v -7 14 -7
v -6 0 2
v -6 0 1
v -6 0 -2
v -6 0 -3
v -6 1 2
v -6 1 1
v -6 1 -2
v -6 1 -3
v -5 1 -0
v -5 1 -1
v -5 13 -0
v -5 13 -1
v -4 1 -0
v -4 1 -1
v -4 13 -0
v -4 13 -1
v -3 0 2
v -3 0 1
v -3 0 -2
v -3 0 -3
v -3 1 2
v -3 1 1
v -3 1 -2
v -3 1 -3
v -2 0 1
v -2 0 -2
v -2 1 1
v -2 1 -2
v -2 13 6
v -2 13 5
v -2 13 -6
v -2 13 -7
v -2 14 6
v -2 14 5
v -2 14 -6
v -2 14 -7
v 0 13 5
v 0 13 4
v 0 13 -5
v 0 13 -6
v 0 14 5
v 0 14 4
v 0 14 -5
v 0 14 -6
v 1 13 4
v 1 13 2
v 1 13 -3
v 1 13 -5
v 1 14 4
v 1 14 2
v 1 14 -3
v 1 14 -5
v 2 13 2
v 2 13 -3
v 2 14 2
v 2 14 -3
v -7 13 6
v -7 14 6
v -2 13 6
v -2 14 6
v -9 13 5
v -9 14 5
v -7 13 5
v -7 14 5
v -2 13 5
v -2 14 5
v 0 13 5
v 0 14 5
v -10 13 4
v -10 14 4
v -9 13 4
v -9 14 4
v 0 13 4
v 0 14 4
v 1 13 4
v 1 14 4
v -11 13 2
v -11 14 2
v -10 13 2
v -10 14 2
v -6 0 2
v -6 1 2
v -3 0 2
v -3 1 2
v 1 13 2
v 1 14 2
v 2 13 2
v 2 14 2
v -7 0 1
v -7 1 1
v -6 0 1
v -6 1 1
v -3 0 1
v -3 1 1
v -2 0 1
v -2 1 1
v -5 1 -0
v -5 13 -0
v -4 1 -0
v -4 13 -0
v -5 1 -1
v -5 13 -1
v -4 1 -1
v -4 13 -1
v -7 0 -2
v -7 1 -2
v -6 0 -2
v -6 1 -2
v -3 0 -2
v -3 1 -2
v -2 0 -2
v -2 1 -2
v -11 13 -3
v -11 14 -3
v -10 13 -3
v -10 14 -3
v -6 0 -3
v -6 1 -3
v -3 0 -3
v -3 1 -3
v 1 13 -3
v 1 14 -3
v 2 13 -3
v 2 14 -3
v -10 13 -5
v -10 14 -5
v -9 13 -5
v -9 14 -5
v 0 13 -5
v 0 14 -5
v 1 13 -5
v 1 14 -5
v -9 13 -6
v -9 14 -6
v -7 13 -6
v -7 14 -6
v -2 13 -6
v -2 14 -6
v 0 13 -6
v 0 14 -6
v -7 13 -7
v -7 14 -7
v -2 13 -7
v -2 14 -7
v -6 0 2
v -3 0 2
v -7 0 1
v -6 0 1
v -3 0 1
v -2 0 1
v -7 0 -2
v -6 0 -2
v -3 0 -2
v -2 0 -2
v -6 0 -3
v -3 0 -3
v -7 13 6
v -2 13 6
v -9 13 5
v -7 13 5
v -2 13 5
v 0 13 5
v -10 13 4
v -9 13 4
v 0 13 4
v 1 13 4
v -11 13 2
v -10 13 2
v 1 13 2
v 2 13 2
v -5 13 -0
v -4 13 -0
v -5 13 -1
v -4 13 -1
v -11 13 -3
v -10 13 -3
v 1 13 -3
v 2 13 -3
v -10 13 -5
v -9 13 -5
v 0 13 -5
v 1 13 -5
v -9 13 -6
v -7 13 -6
v -2 13 -6
v 0 13 -6
v -7 13 -7
v -2 13 -7
v -6 1 2
v -3 1 2
v -7 1 1
v -6 1 1
v -3 1 1
v -2 1 1
v -5 1 -0
v -4 1 -0
v -5 1 -1
v -4 1 -1
v -7 1 -2
v -6 1 -2
v -3 1 -2
v -2 1 -2
v -6 1 -3
v -3 1 -3
v -7 14 6
v -2 14 6
v -9 14 5
v -7 14 5
v -2 14 5
v 0 14 5
v -10 14 4
v -9 14 4
v 0 14 4
v 1 14 4
v -11 14 2
v -10 14 2
v 1 14 2
v 2 14 2
v -11 14 -3
v -10 14 -3
v 1 14 -3
v 2 14 -3
v -10 14 -5
v -9 14 -5
v 0 14 -5
v 1 14 -5
v -9 14 -6
v -7 14 -6
v -2 14 -6
v 0 14 -6
v -7 14 -7
v -2 14 -7

# faces
f 3/2/1 2/2/1 1/2/1
f 4/2/1 2/2/1 3/2/1
f 9/2/1 6/2/1 5/2/1
f 10/2/1 6/2/1 9/2/1
f 11/2/1 8/2/1 7/2/1
f 12/2/1 8/2/1 11/2/1
f 17/2/1 14/2/1 13/2/1
f 18/2/1 14/2/1 17/2/1
f 19/2/1 16/2/1 15/2/1
f 20/2/1 16/2/1 19/2/1
f 23/2/1 22/2/1 21/2/1
f 24/2/1 22/2/1 23/2/1
f 29/2/1 26/2/1 25/2/1
f 30/2/1 26/2/1 29/2/1
f 31/2/1 28/2/1 27/2/1
f 32/2/1 28/2/1 31/2/1
f 37/2/1 34/2/1 33/2/1
f 38/2/1 34/2/1 37/2/1
f 39/2/1 36/2/1 35/2/1
f 40/2/1 36/2/1 39/2/1
f 43/1/1 42/1/1 41/1/1
f 44/1/1 42/1/1 43/1/1
f 45/1/2 46/1/2 47/1/2
f 47/1/2 46/1/2 48/1/2
f 49/2/2 50/2/2 53/2/2
f 53/2/2 50/2/2 54/2/2
f 51/2/2 52/2/2 55/2/2
f 55/2/2 52/2/2 56/2/2
f 57/2/2 58/2/2 59/2/2
f 59/2/2 58/2/2 60/2/2
f 61/2/2 62/2/2 65/2/2
f 65/2/2 62/2/2 66/2/2
f 63/2/2 64/2/2 67/2/2
f 67/2/2 64/2/2 68/2/2
f 69/2/2 70/2/2 73/2/2
f 73/2/2 70/2/2 74/2/2
f 71/2/2 72/2/2 75/2/2
f 75/2/2 72/2/2 76/2/2
f 77/2/2 78/2/2 81/2/2
f 81/2/2 78/2/2 82/2/2
f 79/2/2 80/2/2 83/2/2
f 83/2/2 80/2/2 84/2/2
f 85/2/2 86/2/2 87/2/2
f 87/2/2 86/2/2 88/2/2
f 91/2/3 90/2/3 89/2/3
f 92/2/3 90/2/3 91/2/3
f 95/2/3 94/2/3 93/2/3
f 96/2/3 94/2/3 95/2/3
f 99/2/3 98/2/3 97/2/3
f 100/2/3 98/2/3 99/2/3
f 103/2/3 102/2/3 101/2/3
f 104/2/3 102/2/3 103/2/3
f 107/2/3 106/2/3 105/2/3
f 108/2/3 106/2/3 107/2/3
f 111/2/3 110/2/3 109/2/3
f 112/2/3 110/2/3 111/2/3
f 115/2/3 114/2/3 113/2/3
f 116/2/3 114/2/3 115/2/3
f 119/2/3 118/2/3 117/2/3
f 120/2/3 118/2/3 119/2/3
f 123/2/3 122/2/3 121/2/3
f 124/2/3 122/2/3 123/2/3
f 127/2/3 126/2/3 125/2/3
f 128/2/3 126/2/3 127/2/3
f 131/1/3 130/1/3 129/1/3
f 132/1/3 130/1/3 131/1/3
f 133/1/4 134/1/4 135/1/4
f 135/1/4 134/1/4 136/1/4
f 137/2/4 138/2/4 139/2/4
f 139/2/4 138/2/4 140/2/4
f 141/2/4 142/2/4 143/2/4
f 143/2/4 142/2/4 144/2/4
f 145/2/4 146/2/4 147/2/4
f 147/2/4 146/2/4 148/2/4
f 149/2/4 150/2/4 151/2/4
f 151/2/4 150/2/4 152/2/4
f 153/2/4 154/2/4 155/2/4
f 155/2/4 154/2/4 156/2/4
f 157/2/4 158/2/4 159/2/4
f 159/2/4 158/2/4 160/2/4
f 161/2/4 162/2/4 163/2/4
f 163/2/4 162/2/4 164/2/4
f 165/2/4 166/2/4 167/2/4
f 167/2/4 166/2/4 168/2/4
f 169/2/4 170/2/4 171/2/4
f 171/2/4 170/2/4 172/2/4
f 173/2/4 174/2/4 175/2/4
f 175/2/4 174/2/4 176/2/4
f 180/2/5 178/2/5 177/2/5
f 181/2/5 178/2/5 180/2/5
f 183/2/5 180/2/5 179/2/5
f 183/2/5 182/2/5 181/2/5
f 183/2/5 181/2/5 180/2/5
f 184/2/5 182/2/5 183/2/5
f 185/2/5 182/2/5 184/2/5
f 186/2/5 182/2/5 185/2/5
f 187/2/5 185/2/5 184/2/5
f 188/2/5 185/2/5 187/2/5
f 192/2/5 190/2/5 189/2/5
f 193/2/5 190/2/5 192/2/5
f 196/2/5 192/2/5 191/2/5
f 196/2/5 194/2/5 193/2/5
f 196/2/5 193/2/5 192/2/5
f 197/2/5 194/2/5 196/2/5
f 200/2/5 196/2/5 195/2/5
f 200/2/5 198/2/5 197/2/5
f 200/2/5 197/2/5 196/2/5
f 201/2/5 198/2/5 200/2/5
f 203/2/5 200/2/5 199/2/5
f 203/2/5 202/2/5 201/2/5
f 203/2/5 201/2/5 200/2/5
f 204/2/5 202/2/5 203/2/5
f 205/2/5 203/2/5 199/2/5
f 206/2/5 202/2/5 204/2/5
f 207/2/5 205/2/5 199/2/5
f 207/2/5 206/2/5 205/2/5
f 208/2/5 206/2/5 207/2/5
f 209/2/5 202/2/5 206/2/5
f 209/2/5 206/2/5 208/2/5
f 210/2/5 202/2/5 209/2/5
f 211/2/5 209/2/5 208/2/5
f 212/2/5 209/2/5 211/2/5
f 213/2/5 209/2/5 212/2/5
f 214/2/5 209/2/5 213/2/5
f 215/2/5 213/2/5 212/2/5
f 216/2/5 213/2/5 215/2/5
f 217/2/5 213/2/5 216/2/5
f 218/2/5 213/2/5 217/2/5
f 219/2/5 217/2/5 216/2/5
f 220/2/5 217/2/5 219/2/5
f 221/2/6 222/2/6 224/2/6
f 224/2/6 222/2/6 225/2/6
f 223/2/6 224/2/6 227/2/6
f 225/2/6 226/2/6 227/2/6
f 224/2/6 225/2/6 227/2/6
f 227/2/6 226/2/6 228/2/6
f 223/2/6 227/2/6 229/2/6
f 228/2/6 226/2/6 230/2/6
f 223/2/6 229/2/6 231/2/6
f 229/2/6 230/2/6 231/2/6
f 231/2/6 230/2/6 232/2/6
f 230/2/6 226/2/6 233/2/6
f 232/2/6 230/2/6 233/2/6
f 233/2/6 226/2/6 234/2/6
f 232/2/6 233/2/6 235/2/6
f 235/2/6 233/2/6 236/2/6
f 237/2/6 238/2/6 240/2/6
f 240/2/6 238/2/6 241/2/6
f 239/2/6 240/2/6 244/2/6
f 241/2/6 242/2/6 244/2/6
f 240/2/6 241/2/6 244/2/6
f 244/2/6 242/2/6 245/2/6
f 243/2/6 244/2/6 248/2/6
f 245/2/6 246/2/6 248/2/6
f 244/2/6 245/2/6 248/2/6
f 248/2/6 246/2/6 249/2/6
f 247/2/6 248/2/6 251/2/6
f 249/2/6 250/2/6 251/2/6
f 248/2/6 249/2/6 251/2/6
f 251/2/6 250/2/6 252/2/6
f 252/2/6 250/2/6 253/2/6
f 253/2/6 250/2/6 254/2/6
f 252/2/6 253/2/6 255/2/6
f 255/2/6 253/2/6 256/2/6
f 256/2/6 253/2/6 257/2/6
f 257/2/6 253/2/6 258/2/6
f 256/2/6 257/2/6 259/2/6
f 259/2/6 257/2/6 260/2/6
f 260/2/6 257/2/6 261/2/6
f 261/2/6 257/2/6 262/2/6
f 260/2/6 261/2/6 263/2/6
f 263/2/6 261/2/6 264/2/6
