# MagicaVoxel @ Ephtracy

# group
g cash

# material
mtllib cash.mtl
usemtl palette

# normals
vn -1 0 0
vn 1 0 0
vn 0 0 1
vn 0 0 -1
vn 0 -1 0
vn 0 1 0

# texcoords
vt 0.0332031 0.5
vt 0.142578 0.5
vt 0.435547 0.5
vt 0.962891 0.5

# verts
v -20 0 20
v -20 0 -20
v -20 2 20
v -20 2 -20
v -18 2 17
v -18 2 -7
v -18 3 17
v -18 3 -7
v -18 4 17
v -18 4 -7
v -18 5 17
v -18 5 -7
v -18 6 17
v -18 6 -7
v -18 8 3
v -18 8 -7
v -18 9 2
v -18 9 -7
v -18 14 17
v -18 14 16
v -18 14 3
v -18 15 16
v -18 15 2
v -18 20 12
v -18 20 9
v -18 26 12
v -18 26 9
v -17 2 -8
v -17 2 -13
v -17 2 -14
v -17 2 -19
v -17 3 16
v -17 3 -7
v -17 3 -8
v -17 3 -13
v -17 3 -14
v -17 3 -19
v -17 4 16
v -17 4 -7
v -17 5 16
v -17 5 -7
v -17 6 16
v -17 6 -7
v -14 15 12
v -14 15 11
v -14 15 10
v -14 15 9
v -14 20 12
v -14 20 11
v -14 20 10
v -14 20 9
v -12 15 11
v -12 15 10
v -12 20 11
v -12 20 10
v -11 2 -8
v -11 2 -13
v -11 3 -8
v -11 3 -13
v -5 2 -8
v -5 2 -13
v -5 2 -14
v -5 2 -19
v -5 3 -8
v -5 3 -13
v -5 3 -14
v -5 3 -19
v -1 6 -6
v -1 6 -7
v -1 7 -6
v -1 7 -7
v 1 2 -8
v 1 2 -13
v 1 2 -14
v 1 2 -19
v 1 3 -8
v 1 3 -13
v 1 3 -14
v 1 3 -19
v 7 2 -8
v 7 2 -13
v 7 2 -14
v 7 2 -19
v 7 3 -8
v 7 3 -13
v 7 3 -14
v 7 3 -19
v 10 10 6
v 10 10 2
v 10 14 6
v 10 14 2
v 10 15 6
v 10 15 2
v 13 2 -8
v 13 2 -13
v 13 3 -8
v 13 3 -13
v 16 5 -6
v 16 5 -7
v 16 8 -6
v 16 8 -7
v -15 5 -6
v -15 5 -7
v -15 8 -6
v -15 8 -7
v -13 15 11
v -13 15 10
v -13 20 11
v -13 20 10
v -12 2 -8
v -12 2 -13
v -12 3 -8
v -12 3 -13
v -11 15 12
v -11 15 11
v -11 15 10
v -11 15 9
v -11 20 12
v -11 20 11
v -11 20 10
v -11 20 9
v -9 10 6
v -9 10 2
v -9 14 6
v -9 14 2
v -9 15 6
v -9 15 2
v -7 20 12
v -7 20 9
v -7 26 12
v -7 26 9
v -6 2 -8
v -6 2 -13
v -6 2 -14
v -6 2 -19
v -6 3 -8
v -6 3 -13
v -6 3 -14
v -6 3 -19
v 0 2 -8
v 0 2 -13
v 0 2 -14
v 0 2 -19
v 0 3 -8
v 0 3 -13
v 0 3 -14
v 0 3 -19
v 1 6 -6
v 1 6 -7
v 1 7 -6
v 1 7 -7
v 6 2 -8
v 6 2 -13
v 6 2 -14
v 6 2 -19
v 6 3 -8
v 6 3 -13
v 6 3 -14
v 6 3 -19
v 12 2 -8
v 12 2 -13
v 12 3 -8
v 12 3 -13
v 18 2 -8
v 18 2 -13
v 18 2 -14
v 18 2 -19
v 18 3 16
v 18 3 -7
v 18 3 -8
v 18 3 -13
v 18 3 -14
v 18 3 -19
v 18 4 16
v 18 4 -7
v 18 5 16
v 18 5 -7
v 18 6 16
v 18 6 -7
v 19 2 17
v 19 2 -7
v 19 3 17
v 19 3 -7
v 19 4 17
v 19 4 -7
v 19 5 17
v 19 5 -7
v 19 6 17
v 19 6 -7
v 19 8 3
v 19 8 -7
v 19 9 2
v 19 9 -7
v 19 14 17
v 19 14 16
v 19 14 3
v 19 15 16
v 19 15 2
v 20 0 20
v 20 0 -20
v 20 2 20
v 20 2 -20
v -20 0 20
v -20 2 20
v 20 0 20
v 20 2 20
v -18 2 17
v -18 3 17
v -18 4 17
v -18 5 17
v -18 6 17
v -18 14 17
v 19 2 17
v 19 3 17
v 19 4 17
v 19 5 17
v 19 6 17
v 19 14 17
v -18 14 16
v -18 15 16
v -17 3 16
v -17 4 16
v -17 5 16
v -17 6 16
v 18 3 16
v 18 4 16
v 18 5 16
v 18 6 16
v 19 14 16
v 19 15 16
v -18 20 12
v -18 26 12
v -14 15 12
v -14 20 12
v -11 15 12
v -11 20 12
v -7 20 12
v -7 26 12
v -13 15 10
v -13 20 10
v -12 15 10
v -12 20 10
v -17 2 -8
v -17 3 -8
v -12 2 -8
v -12 3 -8
v -11 2 -8
v -11 3 -8
v -6 2 -8
v -6 3 -8
v -5 2 -8
v -5 3 -8
v 0 2 -8
v 0 3 -8
v 1 2 -8
v 1 3 -8
v 6 2 -8
v 6 3 -8
v 7 2 -8
v 7 3 -8
v 12 2 -8
v 12 3 -8
v 13 2 -8
v 13 3 -8
v 18 2 -8
v 18 3 -8
v -17 2 -14
v -17 3 -14
v -6 2 -14
v -6 3 -14
v -5 2 -14
v -5 3 -14
v 0 2 -14
v 0 3 -14
v 1 2 -14
v 1 3 -14
v 6 2 -14
v 6 3 -14
v 7 2 -14
v 7 3 -14
v 18 2 -14
v 18 3 -14
v -13 15 11
v -13 20 11
v -12 15 11
v -12 20 11
v -18 20 9
v -18 26 9
v -17 21 9
v -17 25 9
v -14 15 9
v -14 20 9
v -13 22 9
v -13 24 9
v -11 15 9
v -11 20 9
v -8 21 9
v -8 22 9
v -8 24 9
v -8 25 9
v -7 20 9
v -7 26 9
v -9 10 6
v -9 14 6
v -9 15 6
v -8 10 6
v -8 14 6
v -7 12 6
v -7 13 6
v -6 11 6
v -6 12 6
v -6 13 6
v -5 11 6
v -5 12 6
v -5 13 6
v -4 11 6
v -4 12 6
v -4 13 6
v -3 11 6
v -3 12 6
v -3 13 6
v -2 11 6
v -2 12 6
v -2 13 6
v -1 11 6
v -1 12 6
v -1 13 6
v 0 11 6
v 0 12 6
v 0 13 6
v 1 11 6
v 1 12 6
v 1 13 6
v 2 11 6
v 2 12 6
v 2 13 6
v 3 11 6
v 3 12 6
v 3 13 6
v 4 11 6
v 4 12 6
v 4 13 6
v 5 11 6
v 5 12 6
v 5 13 6
v 6 11 6
v 6 12 6
v 6 13 6
v 7 11 6
v 7 12 6
v 7 13 6
v 8 12 6
v 8 13 6
v 9 10 6
v 9 14 6
v 10 10 6
v 10 14 6
v 10 15 6
v -18 9 2
v -18 15 2
v -17 9 2
v -17 14 2
v -9 9 2
v -9 10 2
v -9 14 2
v -9 15 2
v 10 9 2
v 10 10 2
v 10 14 2
v 10 15 2
v 18 9 2
v 18 14 2
v 19 9 2
v 19 15 2
v -15 5 -6
v -15 8 -6
v -1 6 -6
v -1 7 -6
v 1 6 -6
v 1 7 -6
v 16 5 -6
v 16 8 -6
v -18 2 -7
v -18 3 -7
v -18 4 -7
v -18 5 -7
v -18 6 -7
v -18 8 -7
v -18 9 -7
v -17 3 -7
v -17 4 -7
v -17 5 -7
v -17 6 -7
v -16 3 -7
v -16 4 -7
v -16 5 -7
v -16 6 -7
v -15 5 -7
v -15 8 -7
v -1 6 -7
v -1 7 -7
v 1 6 -7
v 1 7 -7
v 16 5 -7
v 16 8 -7
v 17 3 -7
v 17 4 -7
v 17 5 -7
v 17 6 -7
v 18 3 -7
v 18 4 -7
v 18 5 -7
v 18 6 -7
v 19 2 -7
v 19 3 -7
v 19 4 -7
v 19 5 -7
v 19 6 -7
v 19 8 -7
v 19 9 -7
v -17 2 -13
v -17 3 -13
v -12 2 -13
v -12 3 -13
v -11 2 -13
v -11 3 -13
v -6 2 -13
v -6 3 -13
v -5 2 -13
v -5 3 -13
v 0 2 -13
v 0 3 -13
v 1 2 -13
v 1 3 -13
v 6 2 -13
v 6 3 -13
v 7 2 -13
v 7 3 -13
v 12 2 -13
v 12 3 -13
v 13 2 -13
v 13 3 -13
v 18 2 -13
v 18 3 -13
v -17 2 -19
v -17 3 -19
v -6 2 -19
v -6 3 -19
v -5 2 -19
v -5 3 -19
v 0 2 -19
v 0 3 -19
v 1 2 -19
v 1 3 -19
v 6 2 -19
v 6 3 -19
v 7 2 -19
v 7 3 -19
v 18 2 -19
v 18 3 -19
v -20 0 -20
v -20 2 -20
v 20 0 -20
v 20 2 -20
v -20 0 20
v 20 0 20
v -20 0 -20
v 20 0 -20
v -18 4 17
v 19 4 17
v -17 4 16
v 18 4 16
v -18 4 -7
v -17 4 -7
v 18 4 -7
v 19 4 -7
v -18 6 17
v 19 6 17
v -17 6 16
v 18 6 16
v -1 6 -6
v 1 6 -6
v -18 6 -7
v -17 6 -7
v -1 6 -7
v 1 6 -7
v 18 6 -7
v 19 6 -7
v -15 8 -6
v 16 8 -6
v -15 8 -7
v 16 8 -7
v -18 20 12
v -14 20 12
v -11 20 12
v -7 20 12
v -17 20 11
v -14 20 11
v -13 20 11
v -12 20 11
v -11 20 11
v -8 20 11
v -17 20 10
v -14 20 10
v -13 20 10
v -12 20 10
v -11 20 10
v -8 20 10
v -18 20 9
v -14 20 9
v -11 20 9
v -7 20 9
v -20 2 20
v 20 2 20
v -18 2 17
v 19 2 17
v -18 2 -7
v 19 2 -7
v -17 2 -8
v -12 2 -8
v -11 2 -8
v -6 2 -8
v -5 2 -8
v 0 2 -8
v 1 2 -8
v 6 2 -8
v 7 2 -8
v 12 2 -8
v 13 2 -8
v 18 2 -8
v -17 2 -13
v -12 2 -13
v -11 2 -13
v -6 2 -13
v -5 2 -13
v 0 2 -13
v 1 2 -13
v 6 2 -13
v 7 2 -13
v 12 2 -13
v 13 2 -13
v 18 2 -13
v -17 2 -14
v -6 2 -14
v -5 2 -14
v 0 2 -14
v 1 2 -14
v 6 2 -14
v 7 2 -14
v 18 2 -14
v -17 2 -19
v -6 2 -19
v -5 2 -19
v 0 2 -19
v 1 2 -19
v 6 2 -19
v 7 2 -19
v 18 2 -19
v -20 2 -20
v 20 2 -20
v -18 3 17
v 19 3 17
v -17 3 16
v 18 3 16
v -18 3 -7
v -17 3 -7
v 18 3 -7
v 19 3 -7
v -17 3 -8
v -12 3 -8
v -11 3 -8
v -6 3 -8
v -5 3 -8
v 0 3 -8
v 1 3 -8
v 6 3 -8
v 7 3 -8
v 12 3 -8
v 13 3 -8
v 18 3 -8
v -17 3 -13
v -12 3 -13
v -11 3 -13
v -6 3 -13
v -5 3 -13
v 0 3 -13
v 1 3 -13
v 6 3 -13
v 7 3 -13
v 12 3 -13
v 13 3 -13
v 18 3 -13
v -17 3 -14
v -6 3 -14
v -5 3 -14
v 0 3 -14
v 1 3 -14
v 6 3 -14
v 7 3 -14
v 18 3 -14
v -17 3 -19
v -6 3 -19
v -5 3 -19
v 0 3 -19
v 1 3 -19
v 6 3 -19
v 7 3 -19
v 18 3 -19
v -18 5 17
v 19 5 17
v -17 5 16
v 18 5 16
v -15 5 -6
v 16 5 -6
v -18 5 -7
v -17 5 -7
v -15 5 -7
v 16 5 -7
v 18 5 -7
v 19 5 -7
v -1 7 -6
v 1 7 -6
v -1 7 -7
v 1 7 -7
v -18 9 2
v -17 9 2
v -9 9 2
v 10 9 2
v 18 9 2
v 19 9 2
v -17 9 -6
v 18 9 -6
v -18 9 -7
v 19 9 -7
v -9 10 6
v -8 10 6
v 9 10 6
v 10 10 6
v -8 10 3
v 9 10 3
v -9 10 2
v 10 10 2
v -18 14 17
v 19 14 17
v -18 14 16
v 19 14 16
v -18 15 16
v 19 15 16
v -14 15 12
v -11 15 12
v -14 15 11
v -13 15 11
v -12 15 11
v -11 15 11
v -14 15 10
v -13 15 10
v -12 15 10
v -11 15 10
v -14 15 9
v -11 15 9
v -9 15 6
v 10 15 6
v -18 15 2
v -9 15 2
v 10 15 2
v 19 15 2
v -18 26 12
v -7 26 12
v -17 26 11
v -8 26 11
v -17 26 10
v -8 26 10
v -18 26 9
v -7 26 9

# faces
f 3/1/1 2/1/1 1/1/1
f 4/1/1 2/1/1 3/1/1
f 7/4/1 6/4/1 5/4/1
f 8/4/1 6/4/1 7/4/1
f 11/4/1 10/4/1 9/4/1
f 12/4/1 10/4/1 11/4/1
f 15/4/1 14/4/1 13/4/1
f 16/4/1 14/4/1 15/4/1
f 17/1/1 16/1/1 15/1/1
f 18/1/1 16/1/1 17/1/1
f 19/4/1 15/4/1 13/4/1
f 20/4/1 15/4/1 19/4/1
f 21/1/1 17/1/1 15/1/1
f 21/4/1 15/4/1 20/4/1
f 22/1/1 21/1/1 20/1/1
f 23/1/1 17/1/1 21/1/1
f 23/1/1 21/1/1 22/1/1
f 26/1/1 25/1/1 24/1/1
f 27/1/1 25/1/1 26/1/1
f 34/4/1 29/4/1 28/4/1
f 35/4/1 29/4/1 34/4/1
f 36/4/1 31/4/1 30/4/1
f 37/4/1 31/4/1 36/4/1
f 38/1/1 33/1/1 32/1/1
f 39/1/1 33/1/1 38/1/1
f 42/1/1 41/1/1 40/1/1
f 43/1/1 41/1/1 42/1/1
f 48/1/1 45/1/1 44/1/1
f 49/4/1 46/4/1 45/4/1
f 49/1/1 45/1/1 48/1/1
f 50/1/1 47/1/1 46/1/1
f 50/4/1 46/4/1 49/4/1
f 51/1/1 47/1/1 50/1/1
f 54/4/1 53/4/1 52/4/1
f 55/4/1 53/4/1 54/4/1
f 58/4/1 57/4/1 56/4/1
f 59/4/1 57/4/1 58/4/1
f 64/4/1 61/4/1 60/4/1
f 65/4/1 61/4/1 64/4/1
f 66/4/1 63/4/1 62/4/1
f 67/4/1 63/4/1 66/4/1
f 70/1/1 69/1/1 68/1/1
f 71/1/1 69/1/1 70/1/1
f 76/4/1 73/4/1 72/4/1
f 77/4/1 73/4/1 76/4/1
f 78/4/1 75/4/1 74/4/1
f 79/4/1 75/4/1 78/4/1
f 84/4/1 81/4/1 80/4/1
f 85/4/1 81/4/1 84/4/1
f 86/4/1 83/4/1 82/4/1
f 87/4/1 83/4/1 86/4/1
f 90/4/1 89/4/1 88/4/1
f 91/4/1 89/4/1 90/4/1
f 92/1/1 91/1/1 90/1/1
f 93/1/1 91/1/1 92/1/1
f 96/4/1 95/4/1 94/4/1
f 97/4/1 95/4/1 96/4/1
f 100/4/1 99/4/1 98/4/1
f 101/4/1 99/4/1 100/4/1
f 102/4/2 103/4/2 104/4/2
f 104/4/2 103/4/2 105/4/2
f 106/4/2 107/4/2 108/4/2
f 108/4/2 107/4/2 109/4/2
f 110/4/2 111/4/2 112/4/2
f 112/4/2 111/4/2 113/4/2
f 114/1/2 115/1/2 118/1/2
f 115/4/2 116/4/2 119/4/2
f 118/1/2 115/1/2 119/1/2
f 116/1/2 117/1/2 120/1/2
f 119/4/2 116/4/2 120/4/2
f 120/1/2 117/1/2 121/1/2
f 122/4/2 123/4/2 124/4/2
f 124/4/2 123/4/2 125/4/2
f 124/1/2 125/1/2 126/1/2
f 126/1/2 125/1/2 127/1/2
f 128/1/2 129/1/2 130/1/2
f 130/1/2 129/1/2 131/1/2
f 132/4/2 133/4/2 136/4/2
f 136/4/2 133/4/2 137/4/2
f 134/4/2 135/4/2 138/4/2
f 138/4/2 135/4/2 139/4/2
f 140/4/2 141/4/2 144/4/2
f 144/4/2 141/4/2 145/4/2
f 142/4/2 143/4/2 146/4/2
f 146/4/2 143/4/2 147/4/2
f 148/1/2 149/1/2 150/1/2
f 150/1/2 149/1/2 151/1/2
f 152/4/2 153/4/2 156/4/2
f 156/4/2 153/4/2 157/4/2
f 154/4/2 155/4/2 158/4/2
f 158/4/2 155/4/2 159/4/2
f 160/4/2 161/4/2 162/4/2
f 162/4/2 161/4/2 163/4/2
f 164/4/2 165/4/2 170/4/2
f 170/4/2 165/4/2 171/4/2
f 166/4/2 167/4/2 172/4/2
f 172/4/2 167/4/2 173/4/2
f 168/1/2 169/1/2 174/1/2
f 174/1/2 169/1/2 175/1/2
f 176/1/2 177/1/2 178/1/2
f 178/1/2 177/1/2 179/1/2
f 180/4/2 181/4/2 182/4/2
f 182/4/2 181/4/2 183/4/2
f 184/4/2 185/4/2 186/4/2
f 186/4/2 185/4/2 187/4/2
f 188/4/2 189/4/2 190/4/2
f 190/4/2 189/4/2 191/4/2
f 190/1/2 191/1/2 192/1/2
f 192/1/2 191/1/2 193/1/2
f 188/4/2 190/4/2 194/4/2
f 194/4/2 190/4/2 195/4/2
f 190/1/2 192/1/2 196/1/2
f 195/4/2 190/4/2 196/4/2
f 195/1/2 196/1/2 197/1/2
f 196/1/2 192/1/2 198/1/2
f 197/1/2 196/1/2 198/1/2
f 199/1/2 200/1/2 201/1/2
f 201/1/2 200/1/2 202/1/2
f 205/1/3 204/1/3 203/1/3
f 206/1/3 204/1/3 205/1/3
f 213/4/3 208/4/3 207/4/3
f 214/4/3 208/4/3 213/4/3
f 215/4/3 210/4/3 209/4/3
f 216/4/3 210/4/3 215/4/3
f 217/4/3 212/4/3 211/4/3
f 218/4/3 212/4/3 217/4/3
f 225/1/3 222/1/3 221/1/3
f 226/1/3 222/1/3 225/1/3
f 227/1/3 224/1/3 223/1/3
f 228/1/3 224/1/3 227/1/3
f 229/1/3 220/1/3 219/1/3
f 230/1/3 220/1/3 229/1/3
f 234/1/3 232/1/3 231/1/3
f 235/1/3 234/1/3 233/1/3
f 236/1/3 232/1/3 234/1/3
f 236/1/3 234/1/3 235/1/3
f 237/1/3 232/1/3 236/1/3
f 238/1/3 232/1/3 237/1/3
f 241/1/3 240/1/3 239/1/3
f 242/1/3 240/1/3 241/1/3
f 245/4/3 244/4/3 243/4/3
f 246/4/3 244/4/3 245/4/3
f 249/4/3 248/4/3 247/4/3
f 250/4/3 248/4/3 249/4/3
f 253/4/3 252/4/3 251/4/3
f 254/4/3 252/4/3 253/4/3
f 257/4/3 256/4/3 255/4/3
f 258/4/3 256/4/3 257/4/3
f 261/4/3 260/4/3 259/4/3
f 262/4/3 260/4/3 261/4/3
f 265/4/3 264/4/3 263/4/3
f 266/4/3 264/4/3 265/4/3
f 269/4/3 268/4/3 267/4/3
f 270/4/3 268/4/3 269/4/3
f 273/4/3 272/4/3 271/4/3
f 274/4/3 272/4/3 273/4/3
f 277/4/3 276/4/3 275/4/3
f 278/4/3 276/4/3 277/4/3
f 281/4/3 280/4/3 279/4/3
f 282/4/3 280/4/3 281/4/3
f 283/1/4 284/1/4 285/1/4
f 285/1/4 284/1/4 286/1/4
f 287/1/4 288/1/4 289/1/4
f 289/1/4 288/1/4 290/1/4
f 287/1/4 289/1/4 292/1/4
f 289/2/4 290/2/4 293/2/4
f 293/2/4 290/2/4 294/2/4
f 291/1/4 292/1/4 295/1/4
f 292/1/4 289/1/4 296/1/4
f 295/1/4 292/1/4 296/1/4
f 289/2/4 293/2/4 297/2/4
f 296/1/4 289/1/4 297/1/4
f 293/3/4 294/3/4 298/3/4
f 297/2/4 293/2/4 298/2/4
f 294/2/4 290/2/4 299/2/4
f 298/3/4 294/3/4 299/3/4
f 290/1/4 288/1/4 300/1/4
f 299/2/4 290/2/4 300/2/4
f 298/1/4 299/1/4 301/1/4
f 297/1/4 298/1/4 301/1/4
f 299/1/4 300/1/4 301/1/4
f 296/1/4 297/1/4 301/1/4
f 300/1/4 288/1/4 302/1/4
f 301/1/4 300/1/4 302/1/4
f 303/1/4 304/1/4 306/1/4
f 304/1/4 305/1/4 306/1/4
f 306/1/4 305/1/4 307/1/4
f 306/2/4 307/2/4 308/2/4
f 308/2/4 307/2/4 309/2/4
f 306/2/4 308/2/4 310/2/4
f 308/3/4 309/3/4 311/3/4
f 310/2/4 308/2/4 311/2/4
f 309/2/4 307/2/4 312/2/4
f 311/3/4 309/3/4 312/3/4
f 310/3/4 311/3/4 313/3/4
f 306/2/4 310/2/4 313/2/4
f 311/2/4 312/2/4 314/2/4
f 313/3/4 311/3/4 314/3/4
f 312/2/4 307/2/4 315/2/4
f 314/2/4 312/2/4 315/2/4
f 313/2/4 314/2/4 316/2/4
f 306/2/4 313/2/4 316/2/4
f 314/3/4 315/3/4 317/3/4
f 316/2/4 314/2/4 317/2/4
f 315/2/4 307/2/4 318/2/4
f 317/3/4 315/3/4 318/3/4
f 316/3/4 317/3/4 319/3/4
f 306/2/4 316/2/4 319/2/4
f 317/2/4 318/2/4 320/2/4
f 319/3/4 317/3/4 320/3/4
f 318/2/4 307/2/4 321/2/4
f 320/2/4 318/2/4 321/2/4
f 319/2/4 320/2/4 322/2/4
f 306/2/4 319/2/4 322/2/4
f 320/3/4 321/3/4 323/3/4
f 322/2/4 320/2/4 323/2/4
f 321/2/4 307/2/4 324/2/4
f 323/3/4 321/3/4 324/3/4
f 322/3/4 323/3/4 325/3/4
f 306/2/4 322/2/4 325/2/4
f 323/2/4 324/2/4 326/2/4
f 325/3/4 323/3/4 326/3/4
f 324/2/4 307/2/4 327/2/4
f 326/2/4 324/2/4 327/2/4
f 325/2/4 326/2/4 328/2/4
f 306/2/4 325/2/4 328/2/4
f 326/3/4 327/3/4 329/3/4
f 328/2/4 326/2/4 329/2/4
f 327/2/4 307/2/4 330/2/4
f 329/3/4 327/3/4 330/3/4
f 328/3/4 329/3/4 331/3/4
f 306/2/4 328/2/4 331/2/4
f 329/2/4 330/2/4 332/2/4
f 331/3/4 329/3/4 332/3/4
f 330/2/4 307/2/4 333/2/4
f 332/2/4 330/2/4 333/2/4
f 331/2/4 332/2/4 334/2/4
f 306/2/4 331/2/4 334/2/4
f 332/3/4 333/3/4 335/3/4
f 334/2/4 332/2/4 335/2/4
f 333/2/4 307/2/4 336/2/4
f 335/3/4 333/3/4 336/3/4
f 334/3/4 335/3/4 337/3/4
f 306/2/4 334/2/4 337/2/4
f 335/2/4 336/2/4 338/2/4
f 337/3/4 335/3/4 338/3/4
f 336/2/4 307/2/4 339/2/4
f 338/2/4 336/2/4 339/2/4
f 337/2/4 338/2/4 340/2/4
f 306/2/4 337/2/4 340/2/4
f 338/3/4 339/3/4 341/3/4
f 340/2/4 338/2/4 341/2/4
f 339/2/4 307/2/4 342/2/4
f 341/3/4 339/3/4 342/3/4
f 340/3/4 341/3/4 343/3/4
f 306/2/4 340/2/4 343/2/4
f 341/2/4 342/2/4 344/2/4
f 343/3/4 341/3/4 344/3/4
f 342/2/4 307/2/4 345/2/4
f 344/2/4 342/2/4 345/2/4
f 343/2/4 344/2/4 346/2/4
f 306/2/4 343/2/4 346/2/4
f 344/3/4 345/3/4 347/3/4
f 346/2/4 344/2/4 347/2/4
f 345/2/4 307/2/4 348/2/4
f 347/3/4 345/3/4 348/3/4
f 346/3/4 347/3/4 349/3/4
f 306/2/4 346/2/4 349/2/4
f 347/2/4 348/2/4 350/2/4
f 349/3/4 347/3/4 350/3/4
f 348/2/4 307/2/4 351/2/4
f 350/2/4 348/2/4 351/2/4
f 349/2/4 350/2/4 352/2/4
f 350/3/4 351/3/4 352/3/4
f 351/2/4 307/2/4 353/2/4
f 352/3/4 351/3/4 353/3/4
f 349/2/4 352/2/4 354/2/4
f 306/2/4 349/2/4 354/2/4
f 352/2/4 353/2/4 354/2/4
f 307/1/4 305/1/4 355/1/4
f 354/2/4 353/2/4 355/2/4
f 353/2/4 307/2/4 355/2/4
f 354/1/4 355/1/4 356/1/4
f 355/1/4 305/1/4 357/1/4
f 356/1/4 355/1/4 357/1/4
f 357/1/4 305/1/4 358/1/4
f 359/1/4 360/1/4 361/1/4
f 361/1/4 360/1/4 362/1/4
f 361/4/4 362/4/4 363/4/4
f 363/4/4 362/4/4 364/4/4
f 362/1/4 360/1/4 365/1/4
f 364/4/4 362/4/4 365/4/4
f 365/1/4 360/1/4 366/1/4
f 363/1/4 364/1/4 367/1/4
f 367/1/4 364/1/4 368/1/4
f 367/4/4 368/4/4 371/4/4
f 368/4/4 369/4/4 371/4/4
f 369/1/4 370/1/4 372/1/4
f 371/4/4 369/4/4 372/4/4
f 371/1/4 372/1/4 373/1/4
f 372/1/4 370/1/4 374/1/4
f 373/1/4 372/1/4 374/1/4
f 375/2/4 376/2/4 377/2/4
f 377/2/4 376/2/4 378/2/4
f 375/2/4 377/2/4 379/2/4
f 378/2/4 376/2/4 380/2/4
f 375/2/4 379/2/4 381/2/4
f 379/2/4 380/2/4 381/2/4
f 380/2/4 376/2/4 382/2/4
f 381/2/4 380/2/4 382/2/4
f 383/4/4 384/4/4 390/4/4
f 385/4/4 386/4/4 391/4/4
f 391/4/4 386/4/4 392/4/4
f 387/4/4 388/4/4 393/4/4
f 383/4/4 390/4/4 394/4/4
f 390/1/4 391/1/4 394/1/4
f 391/4/4 392/4/4 395/4/4
f 394/1/4 391/1/4 395/1/4
f 392/1/4 393/1/4 396/1/4
f 395/4/4 392/4/4 396/4/4
f 393/4/4 388/4/4 397/4/4
f 396/1/4 393/1/4 397/1/4
f 394/4/4 395/4/4 398/4/4
f 395/4/4 396/4/4 398/4/4
f 396/4/4 397/4/4 398/4/4
f 388/1/4 389/1/4 399/1/4
f 398/4/4 397/4/4 399/4/4
f 397/4/4 388/4/4 399/4/4
f 400/1/4 401/1/4 402/1/4
f 402/1/4 401/1/4 403/1/4
f 394/4/4 398/4/4 404/4/4
f 399/1/4 389/1/4 405/1/4
f 394/4/4 404/4/4 406/4/4
f 404/4/4 405/4/4 406/4/4
f 383/4/4 394/4/4 406/4/4
f 406/4/4 405/4/4 407/4/4
f 407/4/4 405/4/4 408/4/4
f 408/4/4 405/4/4 409/4/4
f 383/4/4 406/4/4 410/4/4
f 406/1/4 407/1/4 410/1/4
f 407/4/4 408/4/4 411/4/4
f 410/1/4 407/1/4 411/1/4
f 408/1/4 409/1/4 412/1/4
f 411/4/4 408/4/4 412/4/4
f 409/4/4 405/4/4 413/4/4
f 412/1/4 409/1/4 413/1/4
f 383/4/4 410/4/4 414/4/4
f 414/4/4 410/4/4 415/4/4
f 411/4/4 412/4/4 416/4/4
f 416/4/4 412/4/4 417/4/4
f 413/4/4 405/4/4 418/4/4
f 405/1/4 389/1/4 419/1/4
f 418/4/4 405/4/4 419/4/4
f 419/1/4 389/1/4 420/1/4
f 421/4/4 422/4/4 423/4/4
f 423/4/4 422/4/4 424/4/4
f 425/4/4 426/4/4 427/4/4
f 427/4/4 426/4/4 428/4/4
f 429/4/4 430/4/4 431/4/4
f 431/4/4 430/4/4 432/4/4
f 433/4/4 434/4/4 435/4/4
f 435/4/4 434/4/4 436/4/4
f 437/4/4 438/4/4 439/4/4
f 439/4/4 438/4/4 440/4/4
f 441/4/4 442/4/4 443/4/4
f 443/4/4 442/4/4 444/4/4
f 445/4/4 446/4/4 447/4/4
f 447/4/4 446/4/4 448/4/4
f 449/4/4 450/4/4 451/4/4
f 451/4/4 450/4/4 452/4/4
f 453/4/4 454/4/4 455/4/4
f 455/4/4 454/4/4 456/4/4
f 457/4/4 458/4/4 459/4/4
f 459/4/4 458/4/4 460/4/4
f 461/1/4 462/1/4 463/1/4
f 463/1/4 462/1/4 464/1/4
f 467/1/5 466/1/5 465/1/5
f 468/1/5 466/1/5 467/1/5
f 471/4/5 470/4/5 469/4/5
f 472/4/5 470/4/5 471/4/5
f 473/4/5 471/4/5 469/4/5
f 474/4/5 471/4/5 473/4/5
f 475/4/5 470/4/5 472/4/5
f 476/4/5 470/4/5 475/4/5
f 479/4/5 478/4/5 477/4/5
f 480/4/5 478/4/5 479/4/5
f 483/4/5 479/4/5 477/4/5
f 484/4/5 479/4/5 483/4/5
f 485/1/5 482/1/5 481/1/5
f 486/1/5 482/1/5 485/1/5
f 487/4/5 478/4/5 480/4/5
f 488/4/5 478/4/5 487/4/5
f 491/1/5 490/1/5 489/1/5
f 492/1/5 490/1/5 491/1/5
f 497/1/5 494/1/5 493/1/5
f 498/1/5 494/1/5 497/1/5
f 501/1/5 496/1/5 495/1/5
f 502/1/5 496/1/5 501/1/5
f 503/1/5 497/1/5 493/1/5
f 503/4/5 498/4/5 497/4/5
f 504/4/5 498/4/5 503/4/5
f 505/4/5 500/4/5 499/4/5
f 506/4/5 500/4/5 505/4/5
f 507/4/5 502/4/5 501/4/5
f 508/1/5 496/1/5 502/1/5
f 508/4/5 502/4/5 507/4/5
f 509/1/5 504/1/5 503/1/5
f 509/1/5 503/1/5 493/1/5
f 510/1/5 504/1/5 509/1/5
f 511/1/5 508/1/5 507/1/5
f 512/1/5 496/1/5 508/1/5
f 512/1/5 508/1/5 511/1/5
f 513/1/6 514/1/6 515/1/6
f 515/1/6 514/1/6 516/1/6
f 513/1/6 515/1/6 517/1/6
f 516/1/6 514/1/6 518/1/6
f 517/1/6 518/1/6 519/1/6
f 519/1/6 518/1/6 520/1/6
f 520/1/6 518/1/6 521/1/6
f 521/1/6 518/1/6 522/1/6
f 522/1/6 518/1/6 523/1/6
f 523/1/6 518/1/6 524/1/6
f 524/1/6 518/1/6 525/1/6
f 525/1/6 518/1/6 526/1/6
f 526/1/6 518/1/6 527/1/6
f 527/1/6 518/1/6 528/1/6
f 528/1/6 518/1/6 529/1/6
f 529/1/6 518/1/6 530/1/6
f 517/1/6 519/1/6 531/1/6
f 520/1/6 521/1/6 532/1/6
f 532/1/6 521/1/6 533/1/6
f 522/1/6 523/1/6 534/1/6
f 534/1/6 523/1/6 535/1/6
f 524/1/6 525/1/6 536/1/6
f 536/1/6 525/1/6 537/1/6
f 526/1/6 527/1/6 538/1/6
f 538/1/6 527/1/6 539/1/6
f 528/1/6 529/1/6 540/1/6
f 540/1/6 529/1/6 541/1/6
f 530/1/6 518/1/6 542/1/6
f 540/1/6 541/1/6 543/1/6
f 541/1/6 542/1/6 543/1/6
f 538/1/6 539/1/6 543/1/6
f 517/1/6 531/1/6 543/1/6
f 539/1/6 540/1/6 543/1/6
f 536/1/6 537/1/6 543/1/6
f 537/1/6 538/1/6 543/1/6
f 532/1/6 533/1/6 543/1/6
f 535/1/6 536/1/6 543/1/6
f 534/1/6 535/1/6 543/1/6
f 533/1/6 534/1/6 543/1/6
f 531/1/6 532/1/6 543/1/6
f 543/1/6 542/1/6 544/1/6
f 544/1/6 542/1/6 545/1/6
f 545/1/6 542/1/6 546/1/6
f 546/1/6 542/1/6 547/1/6
f 547/1/6 542/1/6 548/1/6
f 548/1/6 542/1/6 549/1/6
f 542/1/6 518/1/6 550/1/6
f 549/1/6 542/1/6 550/1/6
f 517/1/6 543/1/6 551/1/6
f 544/1/6 545/1/6 552/1/6
f 552/1/6 545/1/6 553/1/6
f 546/1/6 547/1/6 554/1/6
f 554/1/6 547/1/6 555/1/6
f 548/1/6 549/1/6 556/1/6
f 556/1/6 549/1/6 557/1/6
f 550/1/6 518/1/6 558/1/6
f 513/1/6 517/1/6 559/1/6
f 557/1/6 558/1/6 559/1/6
f 554/1/6 555/1/6 559/1/6
f 556/1/6 557/1/6 559/1/6
f 555/1/6 556/1/6 559/1/6
f 552/1/6 553/1/6 559/1/6
f 553/1/6 554/1/6 559/1/6
f 517/1/6 551/1/6 559/1/6
f 551/1/6 552/1/6 559/1/6
f 558/1/6 518/1/6 560/1/6
f 559/1/6 558/1/6 560/1/6
f 518/1/6 514/1/6 560/1/6
f 561/4/6 562/4/6 563/4/6
f 563/4/6 562/4/6 564/4/6
f 561/4/6 563/4/6 565/4/6
f 565/4/6 563/4/6 566/4/6
f 564/4/6 562/4/6 567/4/6
f 567/4/6 562/4/6 568/4/6
f 569/4/6 570/4/6 581/4/6
f 581/4/6 570/4/6 582/4/6
f 571/4/6 572/4/6 583/4/6
f 583/4/6 572/4/6 584/4/6
f 573/4/6 574/4/6 585/4/6
f 585/4/6 574/4/6 586/4/6
f 575/4/6 576/4/6 587/4/6
f 587/4/6 576/4/6 588/4/6
f 577/4/6 578/4/6 589/4/6
f 589/4/6 578/4/6 590/4/6
f 579/4/6 580/4/6 591/4/6
f 591/4/6 580/4/6 592/4/6
f 593/4/6 594/4/6 601/4/6
f 601/4/6 594/4/6 602/4/6
f 595/4/6 596/4/6 603/4/6
f 603/4/6 596/4/6 604/4/6
f 597/4/6 598/4/6 605/4/6
f 605/4/6 598/4/6 606/4/6
f 599/4/6 600/4/6 607/4/6
f 607/4/6 600/4/6 608/4/6
f 609/4/6 610/4/6 611/4/6
f 611/4/6 610/4/6 612/4/6
f 609/4/6 611/4/6 615/4/6
f 615/4/6 611/4/6 616/4/6
f 613/4/6 614/4/6 617/4/6
f 617/4/6 614/4/6 618/4/6
f 612/4/6 610/4/6 619/4/6
f 619/4/6 610/4/6 620/4/6
f 621/1/6 622/1/6 623/1/6
f 623/1/6 622/1/6 624/1/6
f 625/1/6 626/1/6 631/1/6
f 626/4/6 627/4/6 631/4/6
f 628/4/6 629/4/6 631/4/6
f 627/4/6 628/4/6 631/4/6
f 629/1/6 630/1/6 632/1/6
f 631/4/6 629/4/6 632/4/6
f 625/1/6 631/1/6 633/1/6
f 631/1/6 632/1/6 633/1/6
f 632/1/6 630/1/6 634/1/6
f 633/1/6 632/1/6 634/1/6
f 635/1/6 636/1/6 639/1/6
f 636/2/6 637/2/6 639/2/6
f 637/1/6 638/1/6 640/1/6
f 639/2/6 637/2/6 640/2/6
f 635/1/6 639/1/6 641/1/6
f 639/1/6 640/1/6 641/1/6
f 640/1/6 638/1/6 642/1/6
f 641/1/6 640/1/6 642/1/6
f 643/4/6 644/4/6 645/4/6
f 645/4/6 644/4/6 646/4/6
f 647/1/6 648/1/6 649/1/6
f 649/1/6 648/1/6 650/1/6
f 647/1/6 649/1/6 651/1/6
f 650/1/6 648/1/6 654/1/6
f 647/1/6 651/1/6 655/1/6
f 652/4/6 653/4/6 656/4/6
f 656/4/6 653/4/6 657/4/6
f 654/1/6 648/1/6 658/1/6
f 647/1/6 655/1/6 659/1/6
f 658/1/6 648/1/6 660/1/6
f 660/1/6 648/1/6 661/1/6
f 659/1/6 660/1/6 661/1/6
f 661/1/6 648/1/6 662/1/6
f 647/1/6 659/1/6 663/1/6
f 659/1/6 661/1/6 663/1/6
f 663/1/6 661/1/6 664/1/6
f 662/1/6 648/1/6 665/1/6
f 665/1/6 648/1/6 666/1/6
f 667/1/6 668/1/6 669/1/6
f 669/1/6 668/1/6 670/1/6
f 667/1/6 669/1/6 671/1/6
f 669/4/6 670/4/6 671/4/6
f 670/1/6 668/1/6 672/1/6
f 671/4/6 670/4/6 672/4/6
f 667/1/6 671/1/6 673/1/6
f 671/1/6 672/1/6 673/1/6
f 672/1/6 668/1/6 674/1/6
f 673/1/6 672/1/6 674/1/6
