# MagicaVoxel @ Ephtracy

# group
g couch_aux

# material
mtllib couch_aux.mtl
usemtl palette

# normals
vn -1 0 0
vn 1 0 0
vn 0 0 1
vn 0 0 -1
vn 0 -1 0
vn 0 1 0

# texcoords
vt 0.146484 0.5
vt 0.306641 0.5

# verts
v -7 2 6
v -7 2 -8
v -7 3 5
v -7 3 -7
v -7 5 5
v -7 5 -7
v -7 6 6
v -7 6 -8
v -7 10 6
v -7 10 -8
v -7 11 5
v -7 11 -7
v -7 16 5
v -7 16 -7
v -7 17 6
v -7 17 -8
v -6 1 6
v -6 1 5
v -6 1 -7
v -6 1 -8
v -6 2 6
v -6 2 5
v -6 2 -7
v -6 2 -8
v -6 6 6
v -6 6 5
v -6 6 -7
v -6 6 -8
v -6 10 6
v -6 10 5
v -6 10 -7
v -6 10 -8
v -4 6 6
v -4 6 5
v -4 6 -7
v -4 6 -8
v -4 7 6
v -4 7 5
v -4 7 -7
v -4 7 -8
v -4 14 6
v -4 14 5
v -4 14 -7
v -4 14 -8
v -4 16 6
v -4 16 5
v -4 16 -7
v -4 16 -8
v -3 7 6
v -3 7 5
v -3 7 -7
v -3 7 -8
v -3 8 6
v -3 8 5
v -3 8 -7
v -3 8 -8
v -3 12 6
v -3 12 5
v -3 12 -7
v -3 12 -8
v -3 14 6
v -3 14 5
v -3 14 -7
v -3 14 -8
v -2 9 6
v -2 9 5
v -2 9 -7
v -2 9 -8
v -2 12 6
v -2 12 5
v -2 12 -7
v -2 12 -8
v -1 8 6
v -1 8 5
v -1 8 -7
v -1 8 -8
v -1 9 6
v -1 9 5
v -1 9 -7
v -1 9 -8
v 2 3 6
v 2 3 5
v 2 3 -7
v 2 3 -8
v 2 4 6
v 2 4 5
v 2 4 -7
v 2 4 -8
v 5 6 6
v 5 6 5
v 5 6 -7
v 5 6 -8
v 5 7 6
v 5 7 5
v 5 7 -7
v 5 7 -8
v 6 4 6
v 6 4 5
v 6 4 -7
v 6 4 -8
v 6 6 6
v 6 6 5
v 6 6 -7
v 6 6 -8
v -6 3 6
v -6 3 5
v -6 3 -7
v -6 3 -8
v -6 5 6
v -6 5 5
v -6 5 -7
v -6 5 -8
v -6 11 6
v -6 11 5
v -6 11 -7
v -6 11 -8
v -6 16 6
v -6 16 5
v -6 16 -7
v -6 16 -8
v -5 6 6
v -5 6 5
v -5 6 -7
v -5 6 -8
v -5 11 6
v -5 11 5
v -5 11 -7
v -5 11 -8
v -4 5 6
v -4 5 5
v -4 5 -7
v -4 5 -8
v -4 6 6
v -4 6 5
v -4 6 -7
v -4 6 -8
v -3 6 6
v -3 6 5
v -3 6 -7
v -3 6 -8
v -3 7 6
v -3 7 5
v -3 7 -7
v -3 7 -8
v -3 14 6
v -3 14 5
v -3 14 -7
v -3 14 -8
v -3 16 5
v -3 16 -7
v -3 17 6
v -3 17 -8
v -2 12 6
v -2 12 5
v -2 12 -7
v -2 12 -8
v -2 14 6
v -2 14 5
v -2 14 -7
v -2 14 -8
v -1 9 6
v -1 9 5
v -1 9 -7
v -1 9 -8
v -1 12 6
v -1 12 5
v -1 12 -7
v -1 12 -8
v 0 7 5
v 0 7 -7
v 0 8 6
v 0 8 5
v 0 8 -7
v 0 8 -8
v 0 9 6
v 0 9 5
v 0 9 -7
v 0 9 -8
v 2 2 6
v 2 2 5
v 2 2 -7
v 2 2 -8
v 2 3 6
v 2 3 5
v 2 3 -7
v 2 3 -8
v 5 7 6
v 5 7 5
v 5 7 -7
v 5 7 -8
v 5 8 6
v 5 8 5
v 5 8 -7
v 5 8 -8
v 6 2 5
v 6 2 -7
v 6 3 5
v 6 3 -7
v 7 1 6
v 7 1 -8
v 7 2 6
v 7 2 -8
v 7 3 6
v 7 3 5
v 7 3 -7
v 7 3 -8
v 7 7 6
v 7 7 5
v 7 7 -7
v 7 7 -8
v -7 2 6
v -7 6 6
v -7 10 6
v -7 17 6
v -6 1 6
v -6 2 6
v -6 3 6
v -6 5 6
v -6 6 6
v -6 10 6
v -6 11 6
v -6 16 6
v -5 6 6
v -5 11 6
v -4 5 6
v -4 6 6
v -4 7 6
v -4 14 6
v -4 16 6
v -3 6 6
v -3 7 6
v -3 8 6
v -3 12 6
v -3 14 6
v -3 17 6
v -2 9 6
v -2 12 6
v -2 14 6
v -1 8 6
v -1 9 6
v -1 12 6
v 0 8 6
v 0 9 6
v 2 2 6
v 2 3 6
v 2 4 6
v 5 6 6
v 5 7 6
v 5 8 6
v 6 4 6
v 6 6 6
v 7 1 6
v 7 2 6
v 7 3 6
v 7 7 6
v -6 3 5
v -6 5 5
v -6 11 5
v -6 16 5
v -5 6 5
v -5 11 5
v -4 5 5
v -4 6 5
v -4 7 5
v -4 14 5
v -4 16 5
v -3 6 5
v -3 7 5
v -3 8 5
v -3 12 5
v -3 14 5
v -2 9 5
v -2 12 5
v -1 8 5
v -1 9 5
v 2 2 5
v 2 3 5
v 2 4 5
v 5 6 5
v 5 7 5
v 6 2 5
v 6 3 5
v 6 4 5
v 6 6 5
v 0 7 -7
v 0 8 -7
v 5 7 -7
v 5 8 -7
v 0 7 5
v 0 8 5
v 5 7 5
v 5 8 5
v -6 3 -7
v -6 5 -7
v -6 11 -7
v -6 16 -7
v -5 6 -7
v -5 11 -7
v -4 5 -7
v -4 6 -7
v -4 7 -7
v -4 14 -7
v -4 16 -7
v -3 6 -7
v -3 7 -7
v -3 8 -7
v -3 12 -7
v -3 14 -7
v -2 9 -7
v -2 12 -7
v -1 8 -7
v -1 9 -7
v 2 2 -7
v 2 3 -7
v 2 4 -7
v 5 6 -7
v 5 7 -7
v 6 2 -7
v 6 3 -7
v 6 4 -7
v 6 6 -7
v -7 2 -8
v -7 6 -8
v -7 10 -8
v -7 17 -8
v -6 1 -8
v -6 2 -8
v -6 3 -8
v -6 5 -8
v -6 6 -8
v -6 10 -8
v -6 11 -8
v -6 16 -8
v -5 6 -8
v -5 11 -8
v -4 5 -8
v -4 6 -8
v -4 7 -8
v -4 14 -8
v -4 16 -8
v -3 6 -8
v -3 7 -8
v -3 8 -8
v -3 12 -8
v -3 14 -8
v -3 17 -8
v -2 9 -8
v -2 12 -8
v -2 14 -8
v -1 8 -8
v -1 9 -8
v -1 12 -8
v 0 8 -8
v 0 9 -8
v 2 2 -8
v 2 3 -8
v 2 4 -8
v 5 6 -8
v 5 7 -8
v 5 8 -8
v 6 4 -8
v 6 6 -8
v 7 1 -8
v 7 2 -8
v 7 3 -8
v 7 7 -8
v -6 1 6
v 7 1 6
v -6 1 5
v 6 1 5
v -6 1 -7
v 6 1 -7
v -6 1 -8
v 7 1 -8
v -7 2 6
v -6 2 6
v -6 2 5
v -6 2 -7
v -7 2 -8
v -6 2 -8
v 2 3 6
v 7 3 6
v 2 3 5
v 6 3 5
v 7 3 5
v 2 3 -7
v 6 3 -7
v 7 3 -7
v 2 3 -8
v 7 3 -8
v -6 5 6
v -4 5 6
v -6 5 5
v -4 5 5
v -6 5 -7
v -4 5 -7
v -6 5 -8
v -4 5 -8
v -4 6 6
v -3 6 6
v 5 6 6
v 6 6 6
v -4 6 5
v -3 6 5
v 5 6 5
v 6 6 5
v -4 6 -7
v -3 6 -7
v 5 6 -7
v 6 6 -7
v -4 6 -8
v -3 6 -8
v 5 6 -8
v 6 6 -8
v -3 7 6
v 5 7 6
v -3 7 5
v 5 7 5
v -3 7 -7
v 5 7 -7
v -3 7 -8
v 5 7 -8
v -2 9 6
v -1 9 6
v -2 9 5
v -1 9 5
v -2 9 -7
v -1 9 -7
v -2 9 -8
v -1 9 -8
v -7 10 6
v -6 10 6
v -6 10 5
v -6 10 -7
v -7 10 -8
v -6 10 -8
v -3 12 6
v -2 12 6
v -3 12 5
v -2 12 5
v -3 12 -7
v -2 12 -7
v -3 12 -8
v -2 12 -8
v -4 14 6
v -3 14 6
v -4 14 5
v -3 14 5
v -4 14 -7
v -3 14 -7
v -4 14 -8
v -3 14 -8
v -6 16 6
v -4 16 6
v -6 16 5
v -4 16 5
v -6 16 -7
v -4 16 -7
v -6 16 -8
v -4 16 -8
v 2 2 6
v 7 2 6
v 2 2 5
v 6 2 5
v 2 2 -7
v 6 2 -7
v 2 2 -8
v 7 2 -8
v -6 3 6
v 2 3 6
v -6 3 5
v 2 3 5
v -6 3 -7
v 2 3 -7
v -6 3 -8
v 2 3 -8
v 2 4 6
v 6 4 6
v 2 4 5
v 6 4 5
v 2 4 -7
v 6 4 -7
v 2 4 -8
v 6 4 -8
v -7 6 6
v -6 6 6
v -5 6 6
v -4 6 6
v -6 6 5
v -5 6 5
v -4 6 5
v -6 6 -7
v -5 6 -7
v -4 6 -7
v -7 6 -8
v -6 6 -8
v -5 6 -8
v -4 6 -8
v -4 7 6
v -3 7 6
v 5 7 6
v 7 7 6
v -4 7 5
v -3 7 5
v 0 7 5
v 5 7 5
v 7 7 5
v -4 7 -7
v -3 7 -7
v 0 7 -7
v 5 7 -7
v 7 7 -7
v -4 7 -8
v -3 7 -8
v 5 7 -8
v 7 7 -8
v -3 8 6
v -1 8 6
v 0 8 6
v 5 8 6
v -3 8 5
v -1 8 5
v 0 8 5
v 5 8 5
v -3 8 -7
v -1 8 -7
v 0 8 -7
v 5 8 -7
v -3 8 -8
v -1 8 -8
v 0 8 -8
v 5 8 -8
v -1 9 6
v 0 9 6
v -1 9 5
v 0 9 5
v -1 9 -7
v 0 9 -7
v -1 9 -8
v 0 9 -8
v -6 11 6
v -5 11 6
v -6 11 5
v -5 11 5
v -6 11 -7
v -5 11 -7
v -6 11 -8
v -5 11 -8
v -2 12 6
v -1 12 6
v -2 12 5
v -1 12 5
v -2 12 -7
v -1 12 -7
v -2 12 -8
v -1 12 -8
v -3 14 6
v -2 14 6
v -3 14 5
v -2 14 5
v -3 14 -7
v -2 14 -7
v -3 14 -8
v -2 14 -8
v -7 17 6
v -3 17 6
v -7 17 -8
v -3 17 -8

# faces
f 3/1/1 2/1/1 1/1/1
f 4/1/1 2/1/1 3/1/1
f 5/1/1 3/1/1 1/1/1
f 5/2/1 4/2/1 3/2/1
f 6/1/1 2/1/1 4/1/1
f 6/2/1 4/2/1 5/2/1
f 7/1/1 5/1/1 1/1/1
f 7/1/1 6/1/1 5/1/1
f 8/1/1 2/1/1 6/1/1
f 8/1/1 6/1/1 7/1/1
f 11/1/1 10/1/1 9/1/1
f 12/1/1 10/1/1 11/1/1
f 13/1/1 11/1/1 9/1/1
f 13/2/1 12/2/1 11/2/1
f 14/1/1 10/1/1 12/1/1
f 14/2/1 12/2/1 13/2/1
f 15/1/1 13/1/1 9/1/1
f 15/1/1 14/1/1 13/1/1
f 16/1/1 10/1/1 14/1/1
f 16/1/1 14/1/1 15/1/1
f 21/1/1 18/1/1 17/1/1
f 22/2/1 19/2/1 18/2/1
f 22/1/1 18/1/1 21/1/1
f 23/1/1 20/1/1 19/1/1
f 23/2/1 19/2/1 22/2/1
f 24/1/1 20/1/1 23/1/1
f 29/1/1 26/1/1 25/1/1
f 30/2/1 27/2/1 26/2/1
f 30/1/1 26/1/1 29/1/1
f 31/1/1 28/1/1 27/1/1
f 31/2/1 27/2/1 30/2/1
f 32/1/1 28/1/1 31/1/1
f 37/1/1 34/1/1 33/1/1
f 38/1/1 34/1/1 37/1/1
f 39/1/1 36/1/1 35/1/1
f 40/1/1 36/1/1 39/1/1
f 45/1/1 42/1/1 41/1/1
f 46/1/1 42/1/1 45/1/1
f 47/1/1 44/1/1 43/1/1
f 48/1/1 44/1/1 47/1/1
f 53/1/1 50/1/1 49/1/1
f 54/1/1 50/1/1 53/1/1
f 55/1/1 52/1/1 51/1/1
f 56/1/1 52/1/1 55/1/1
f 61/1/1 58/1/1 57/1/1
f 62/1/1 58/1/1 61/1/1
f 63/1/1 60/1/1 59/1/1
f 64/1/1 60/1/1 63/1/1
f 69/1/1 66/1/1 65/1/1
f 70/1/1 66/1/1 69/1/1
f 71/1/1 68/1/1 67/1/1
f 72/1/1 68/1/1 71/1/1
f 77/1/1 74/1/1 73/1/1
f 78/1/1 74/1/1 77/1/1
f 79/1/1 76/1/1 75/1/1
f 80/1/1 76/1/1 79/1/1
f 85/1/1 82/1/1 81/1/1
f 86/1/1 82/1/1 85/1/1
f 87/1/1 84/1/1 83/1/1
f 88/1/1 84/1/1 87/1/1
f 93/1/1 90/1/1 89/1/1
f 94/1/1 90/1/1 93/1/1
f 95/1/1 92/1/1 91/1/1
f 96/1/1 92/1/1 95/1/1
f 101/1/1 98/1/1 97/1/1
f 102/1/1 98/1/1 101/1/1
f 103/1/1 100/1/1 99/1/1
f 104/1/1 100/1/1 103/1/1
f 105/1/2 106/1/2 109/1/2
f 109/1/2 106/1/2 110/1/2
f 107/1/2 108/1/2 111/1/2
f 111/1/2 108/1/2 112/1/2
f 113/1/2 114/1/2 117/1/2
f 117/1/2 114/1/2 118/1/2
f 115/1/2 116/1/2 119/1/2
f 119/1/2 116/1/2 120/1/2
f 121/1/2 122/1/2 125/1/2
f 125/1/2 122/1/2 126/1/2
f 123/1/2 124/1/2 127/1/2
f 127/1/2 124/1/2 128/1/2
f 129/1/2 130/1/2 133/1/2
f 133/1/2 130/1/2 134/1/2
f 131/1/2 132/1/2 135/1/2
f 135/1/2 132/1/2 136/1/2
f 137/1/2 138/1/2 141/1/2
f 141/1/2 138/1/2 142/1/2
f 139/1/2 140/1/2 143/1/2
f 143/1/2 140/1/2 144/1/2
f 145/1/2 146/1/2 149/1/2
f 146/2/2 147/2/2 149/2/2
f 147/1/2 148/1/2 150/1/2
f 149/2/2 147/2/2 150/2/2
f 145/1/2 149/1/2 151/1/2
f 149/1/2 150/1/2 151/1/2
f 150/1/2 148/1/2 152/1/2
f 151/1/2 150/1/2 152/1/2
f 153/1/2 154/1/2 157/1/2
f 154/2/2 155/2/2 158/2/2
f 157/1/2 154/1/2 158/1/2
f 155/1/2 156/1/2 159/1/2
f 158/2/2 155/2/2 159/2/2
f 159/1/2 156/1/2 160/1/2
f 161/1/2 162/1/2 165/1/2
f 162/2/2 163/2/2 166/2/2
f 165/1/2 162/1/2 166/1/2
f 163/1/2 164/1/2 167/1/2
f 166/2/2 163/2/2 167/2/2
f 167/1/2 164/1/2 168/1/2
f 169/2/2 170/2/2 172/2/2
f 172/2/2 170/2/2 173/2/2
f 171/1/2 172/1/2 175/1/2
f 172/2/2 173/2/2 176/2/2
f 175/1/2 172/1/2 176/1/2
f 173/1/2 174/1/2 177/1/2
f 176/2/2 173/2/2 177/2/2
f 177/1/2 174/1/2 178/1/2
f 179/1/2 180/1/2 183/1/2
f 183/1/2 180/1/2 184/1/2
f 181/1/2 182/1/2 185/1/2
f 185/1/2 182/1/2 186/1/2
f 187/1/2 188/1/2 191/1/2
f 191/1/2 188/1/2 192/1/2
f 189/1/2 190/1/2 193/1/2
f 193/1/2 190/1/2 194/1/2
f 195/2/2 196/2/2 197/2/2
f 197/2/2 196/2/2 198/2/2
f 199/1/2 200/1/2 201/1/2
f 201/1/2 200/1/2 202/1/2
f 203/1/2 204/1/2 207/1/2
f 204/2/2 205/2/2 208/2/2
f 207/1/2 204/1/2 208/1/2
f 205/1/2 206/1/2 209/1/2
f 208/2/2 205/2/2 209/2/2
f 209/1/2 206/1/2 210/1/2
f 216/1/3 212/1/3 211/1/3
f 217/1/3 212/1/3 216/1/3
f 218/1/3 212/1/3 217/1/3
f 219/1/3 212/1/3 218/1/3
f 220/1/3 214/1/3 213/1/3
f 221/1/3 214/1/3 220/1/3
f 222/1/3 214/1/3 221/1/3
f 223/1/3 219/1/3 218/1/3
f 223/1/3 221/1/3 220/1/3
f 223/1/3 220/1/3 219/1/3
f 224/1/3 221/1/3 223/1/3
f 225/1/3 223/1/3 218/1/3
f 226/1/3 223/1/3 225/1/3
f 229/1/3 214/1/3 222/1/3
f 230/1/3 227/1/3 226/1/3
f 231/1/3 227/1/3 230/1/3
f 234/1/3 229/1/3 228/1/3
f 235/1/3 214/1/3 229/1/3
f 235/1/3 229/1/3 234/1/3
f 237/1/3 234/1/3 233/1/3
f 238/1/3 234/1/3 237/1/3
f 239/1/3 232/1/3 231/1/3
f 240/1/3 237/1/3 236/1/3
f 241/1/3 237/1/3 240/1/3
f 242/1/3 239/1/3 231/1/3
f 242/1/3 240/1/3 239/1/3
f 243/1/3 240/1/3 242/1/3
f 244/1/3 216/1/3 215/1/3
f 244/1/3 217/1/3 216/1/3
f 245/1/3 217/1/3 244/1/3
f 248/1/3 242/1/3 231/1/3
f 249/1/3 242/1/3 248/1/3
f 250/1/3 246/1/3 245/1/3
f 251/1/3 248/1/3 247/1/3
f 252/1/3 244/1/3 215/1/3
f 253/1/3 244/1/3 252/1/3
f 254/1/3 251/1/3 250/1/3
f 254/1/3 250/1/3 245/1/3
f 255/1/3 248/1/3 251/1/3
f 255/1/3 251/1/3 254/1/3
f 261/2/3 259/2/3 258/2/3
f 262/2/3 257/2/3 256/2/3
f 263/2/3 261/2/3 260/2/3
f 264/2/3 261/2/3 263/2/3
f 265/2/3 259/2/3 261/2/3
f 265/2/3 261/2/3 264/2/3
f 266/2/3 259/2/3 265/2/3
f 267/2/3 263/2/3 262/2/3
f 268/2/3 265/2/3 264/2/3
f 269/2/3 265/2/3 268/2/3
f 270/2/3 265/2/3 269/2/3
f 271/2/3 265/2/3 270/2/3
f 272/2/3 270/2/3 269/2/3
f 273/2/3 270/2/3 272/2/3
f 274/2/3 272/2/3 269/2/3
f 275/2/3 272/2/3 274/2/3
f 277/2/3 262/2/3 256/2/3
f 277/2/3 267/2/3 262/2/3
f 277/2/3 268/2/3 267/2/3
f 278/2/3 268/2/3 277/2/3
f 279/2/3 268/2/3 278/2/3
f 280/2/3 268/2/3 279/2/3
f 281/2/3 277/2/3 276/2/3
f 282/2/3 277/2/3 281/2/3
f 283/2/3 279/2/3 278/2/3
f 284/2/3 279/2/3 283/2/3
f 287/1/3 286/1/3 285/1/3
f 288/1/3 286/1/3 287/1/3
f 289/1/4 290/1/4 291/1/4
f 291/1/4 290/1/4 292/1/4
f 295/2/4 296/2/4 298/2/4
f 293/2/4 294/2/4 299/2/4
f 297/2/4 298/2/4 300/2/4
f 300/2/4 298/2/4 301/2/4
f 298/2/4 296/2/4 302/2/4
f 301/2/4 298/2/4 302/2/4
f 302/2/4 296/2/4 303/2/4
f 299/2/4 300/2/4 304/2/4
f 301/2/4 302/2/4 305/2/4
f 305/2/4 302/2/4 306/2/4
f 306/2/4 302/2/4 307/2/4
f 307/2/4 302/2/4 308/2/4
f 306/2/4 307/2/4 309/2/4
f 309/2/4 307/2/4 310/2/4
f 306/2/4 309/2/4 311/2/4
f 311/2/4 309/2/4 312/2/4
f 293/2/4 299/2/4 314/2/4
f 299/2/4 304/2/4 314/2/4
f 304/2/4 305/2/4 314/2/4
f 314/2/4 305/2/4 315/2/4
f 315/2/4 305/2/4 316/2/4
f 316/2/4 305/2/4 317/2/4
f 313/2/4 314/2/4 318/2/4
f 318/2/4 314/2/4 319/2/4
f 315/2/4 316/2/4 320/2/4
f 320/2/4 316/2/4 321/2/4
f 322/1/4 323/1/4 327/1/4
f 327/1/4 323/1/4 328/1/4
f 328/1/4 323/1/4 329/1/4
f 329/1/4 323/1/4 330/1/4
f 324/1/4 325/1/4 331/1/4
f 331/1/4 325/1/4 332/1/4
f 332/1/4 325/1/4 333/1/4
f 329/1/4 330/1/4 334/1/4
f 331/1/4 332/1/4 334/1/4
f 330/1/4 331/1/4 334/1/4
f 334/1/4 332/1/4 335/1/4
f 329/1/4 334/1/4 336/1/4
f 336/1/4 334/1/4 337/1/4
f 333/1/4 325/1/4 340/1/4
f 337/1/4 338/1/4 341/1/4
f 341/1/4 338/1/4 342/1/4
f 339/1/4 340/1/4 345/1/4
f 340/1/4 325/1/4 346/1/4
f 345/1/4 340/1/4 346/1/4
f 344/1/4 345/1/4 348/1/4
f 348/1/4 345/1/4 349/1/4
f 342/1/4 343/1/4 350/1/4
f 347/1/4 348/1/4 351/1/4
f 351/1/4 348/1/4 352/1/4
f 342/1/4 350/1/4 353/1/4
f 350/1/4 351/1/4 353/1/4
f 353/1/4 351/1/4 354/1/4
f 326/1/4 327/1/4 355/1/4
f 327/1/4 328/1/4 355/1/4
f 355/1/4 328/1/4 356/1/4
f 342/1/4 353/1/4 359/1/4
f 359/1/4 353/1/4 360/1/4
f 356/1/4 357/1/4 361/1/4
f 358/1/4 359/1/4 362/1/4
f 326/1/4 355/1/4 363/1/4
f 363/1/4 355/1/4 364/1/4
f 361/1/4 362/1/4 365/1/4
f 356/1/4 361/1/4 365/1/4
f 362/1/4 359/1/4 366/1/4
f 365/1/4 362/1/4 366/1/4
f 369/1/5 368/1/5 367/1/5
f 370/1/5 368/1/5 369/1/5
f 371/2/5 370/2/5 369/2/5
f 372/1/5 368/1/5 370/1/5
f 372/2/5 370/2/5 371/2/5
f 373/1/5 372/1/5 371/1/5
f 374/1/5 368/1/5 372/1/5
f 374/1/5 372/1/5 373/1/5
f 377/1/5 376/1/5 375/1/5
f 378/1/5 377/1/5 375/1/5
f 379/1/5 378/1/5 375/1/5
f 380/1/5 378/1/5 379/1/5
f 383/1/5 382/1/5 381/1/5
f 384/1/5 382/1/5 383/1/5
f 385/1/5 382/1/5 384/1/5
f 387/2/5 385/2/5 384/2/5
f 388/2/5 385/2/5 387/2/5
f 389/1/5 387/1/5 386/1/5
f 389/1/5 388/1/5 387/1/5
f 390/1/5 388/1/5 389/1/5
f 393/1/5 392/1/5 391/1/5
f 394/1/5 392/1/5 393/1/5
f 397/1/5 396/1/5 395/1/5
f 398/1/5 396/1/5 397/1/5
f 403/1/5 400/1/5 399/1/5
f 404/1/5 400/1/5 403/1/5
f 405/1/5 402/1/5 401/1/5
f 406/1/5 402/1/5 405/1/5
f 411/1/5 408/1/5 407/1/5
f 412/1/5 408/1/5 411/1/5
f 413/1/5 410/1/5 409/1/5
f 414/1/5 410/1/5 413/1/5
f 417/1/5 416/1/5 415/1/5
f 418/1/5 416/1/5 417/1/5
f 421/1/5 420/1/5 419/1/5
f 422/1/5 420/1/5 421/1/5
f 425/1/5 424/1/5 423/1/5
f 426/1/5 424/1/5 425/1/5
f 429/1/5 428/1/5 427/1/5
f 430/1/5 428/1/5 429/1/5
f 433/1/5 432/1/5 431/1/5
f 434/1/5 433/1/5 431/1/5
f 435/1/5 434/1/5 431/1/5
f 436/1/5 434/1/5 435/1/5
f 439/1/5 438/1/5 437/1/5
f 440/1/5 438/1/5 439/1/5
f 443/1/5 442/1/5 441/1/5
f 444/1/5 442/1/5 443/1/5
f 447/1/5 446/1/5 445/1/5
f 448/1/5 446/1/5 447/1/5
f 451/1/5 450/1/5 449/1/5
f 452/1/5 450/1/5 451/1/5
f 455/1/5 454/1/5 453/1/5
f 456/1/5 454/1/5 455/1/5
f 459/1/5 458/1/5 457/1/5
f 460/1/5 458/1/5 459/1/5
f 461/1/6 462/1/6 463/1/6
f 463/1/6 462/1/6 464/1/6
f 464/1/6 462/1/6 466/1/6
f 465/1/6 466/1/6 467/1/6
f 466/1/6 462/1/6 468/1/6
f 467/1/6 466/1/6 468/1/6
f 469/1/6 470/1/6 471/1/6
f 471/1/6 470/1/6 472/1/6
f 473/1/6 474/1/6 475/1/6
f 475/1/6 474/1/6 476/1/6
f 477/1/6 478/1/6 479/1/6
f 479/1/6 478/1/6 480/1/6
f 481/1/6 482/1/6 483/1/6
f 483/1/6 482/1/6 484/1/6
f 485/1/6 486/1/6 489/1/6
f 487/1/6 488/1/6 490/1/6
f 490/1/6 488/1/6 491/1/6
f 485/1/6 489/1/6 492/1/6
f 485/1/6 492/1/6 495/1/6
f 495/1/6 492/1/6 496/1/6
f 493/1/6 494/1/6 497/1/6
f 497/1/6 494/1/6 498/1/6
f 499/1/6 500/1/6 503/1/6
f 503/1/6 500/1/6 504/1/6
f 501/1/6 502/1/6 506/1/6
f 506/1/6 502/1/6 507/1/6
f 505/2/6 506/2/6 510/2/6
f 506/2/6 507/2/6 510/2/6
f 510/2/6 507/2/6 511/2/6
f 511/2/6 507/2/6 512/2/6
f 508/1/6 509/1/6 513/1/6
f 513/1/6 509/1/6 514/1/6
f 511/1/6 512/1/6 515/1/6
f 515/1/6 512/1/6 516/1/6
f 517/1/6 518/1/6 521/1/6
f 521/1/6 518/1/6 522/1/6
f 519/1/6 520/1/6 523/1/6
f 523/1/6 520/1/6 524/1/6
f 525/1/6 526/1/6 529/1/6
f 529/1/6 526/1/6 530/1/6
f 527/1/6 528/1/6 531/1/6
f 531/1/6 528/1/6 532/1/6
f 533/1/6 534/1/6 535/1/6
f 535/1/6 534/1/6 536/1/6
f 535/2/6 536/2/6 537/2/6
f 537/2/6 536/2/6 538/2/6
f 537/1/6 538/1/6 539/1/6
f 539/1/6 538/1/6 540/1/6
f 541/1/6 542/1/6 543/1/6
f 543/1/6 542/1/6 544/1/6
f 545/1/6 546/1/6 547/1/6
f 547/1/6 546/1/6 548/1/6
f 549/1/6 550/1/6 551/1/6
f 551/1/6 550/1/6 552/1/6
f 551/2/6 552/2/6 553/2/6
f 553/2/6 552/2/6 554/2/6
f 553/1/6 554/1/6 555/1/6
f 555/1/6 554/1/6 556/1/6
f 557/1/6 558/1/6 559/1/6
f 559/1/6 558/1/6 560/1/6
f 559/2/6 560/2/6 561/2/6
f 561/2/6 560/2/6 562/2/6
f 561/1/6 562/1/6 563/1/6
f 563/1/6 562/1/6 564/1/6
f 565/1/6 566/1/6 567/1/6
f 567/1/6 566/1/6 568/1/6
