# MagicaVoxel @ Ephtracy

# group
g desk

# material
mtllib desk.mtl
usemtl palette

# normals
vn -1 0 0
vn 1 0 0
vn 0 0 1
vn 0 0 -1
vn 0 -1 0
vn 0 1 0

# texcoords
vt 0.0527344 0.5
vt 0.0839844 0.5
vt 0.947266 0.5

# verts
v -20 0 8
v -20 0 -9
v -20 1 8
v -20 1 6
v -20 1 -7
v -20 1 -9
v -20 2 7
v -20 2 6
v -20 3 7
v -20 3 6
v -20 4 7
v -20 4 6
v -20 11 7
v -20 11 6
v -20 11 -7
v -20 12 7
v -20 12 6
v -20 12 -7
v -20 13 7
v -20 13 6
v -20 13 -7
v -20 14 6
v -20 14 -7
v -18 3 -6
v -18 3 -7
v -18 10 -6
v -18 10 -7
v -9 3 -2
v -9 3 -5
v -9 9 -2
v -9 9 -5
v -7 5 -6
v -7 5 -7
v -7 6 -6
v -7 6 -7
v -6 4 8
v -6 4 7
v -6 9 8
v -6 9 7
v -5 3 8
v -5 3 7
v -5 4 8
v -5 4 7
v -5 9 8
v -5 9 7
v -5 10 8
v -5 10 7
v -4 2 8
v -4 2 7
v -4 3 8
v -4 3 7
v -4 5 9
v -4 5 8
v -4 8 9
v -4 8 8
v -4 10 8
v -4 10 7
v -4 11 8
v -4 11 7
v -3 1 8
v -3 1 7
v -3 2 8
v -3 2 7
v -3 3 -6
v -3 3 -7
v -3 4 9
v -3 4 8
v -3 5 9
v -3 5 8
v -3 8 9
v -3 8 8
v -3 9 9
v -3 9 8
v -3 10 -6
v -3 10 -7
v -3 11 8
v -3 11 7
v -3 12 8
v -3 12 7
v -2 3 9
v -2 3 8
v -2 4 9
v -2 4 8
v -2 9 9
v -2 9 8
v -2 10 9
v -2 10 8
v -1 6 8
v -1 6 7
v -1 7 8
v -1 7 7
v 0 5 8
v 0 5 7
v 0 6 9
v 0 6 8
v 0 6 7
v 0 7 9
v 0 7 8
v 0 7 7
v 0 8 8
v 0 8 7
v 1 5 -6
v 1 5 -7
v 1 6 8
v 1 6 7
v 1 6 -6
v 1 6 -7
v 1 7 8
v 1 7 7
v 11 3 -2
v 11 3 -7
v 11 9 -2
v 11 9 -6
v 11 10 -6
v 11 10 -7
v 18 3 -2
v 18 3 -7
v 18 9 -2
v 18 9 -6
v 18 10 -6
v 18 10 -7
v -19 3 -6
v -19 3 -7
v -19 10 -6
v -19 10 -7
v -18 3 -2
v -18 3 -5
v -18 9 -2
v -18 9 -5
v -9 3 -6
v -9 3 -7
v -9 10 -6
v -9 10 -7
v -6 5 -6
v -6 5 -7
v -6 6 -6
v -6 6 -7
v -2 3 -6
v -2 3 -7
v -2 6 8
v -2 6 7
v -2 7 8
v -2 7 7
v -2 10 -6
v -2 10 -7
v -1 5 8
v -1 5 7
v -1 6 9
v -1 6 8
v -1 6 7
v -1 7 9
v -1 7 8
v -1 7 7
v -1 8 8
v -1 8 7
v 0 6 8
v 0 6 7
v 0 7 8
v 0 7 7
v 1 3 9
v 1 3 8
v 1 4 9
v 1 4 8
v 1 9 9
v 1 9 8
v 1 10 9
v 1 10 8
v 2 1 8
v 2 1 7
v 2 2 8
v 2 2 7
v 2 4 9
v 2 4 8
v 2 5 9
v 2 5 8
v 2 5 -6
v 2 5 -7
v 2 6 -6
v 2 6 -7
v 2 8 9
v 2 8 8
v 2 9 9
v 2 9 8
v 2 11 8
v 2 11 7
v 2 12 8
v 2 12 7
v 3 2 8
v 3 2 7
v 3 3 8
v 3 3 7
v 3 5 9
v 3 5 8
v 3 8 9
v 3 8 8
v 3 10 8
v 3 10 7
v 3 11 8
v 3 11 7
v 4 3 8
v 4 3 7
v 4 3 -2
v 4 3 -6
v 4 4 8
v 4 4 7
v 4 9 8
v 4 9 7
v 4 9 -2
v 4 9 -6
v 4 10 8
v 4 10 7
v 5 4 8
v 5 4 7
v 5 9 8
v 5 9 7
v 12 3 -2
v 12 3 -7
v 12 9 -2
v 12 9 -6
v 12 10 -6
v 12 10 -7
v 19 0 8
v 19 0 -9
v 19 1 8
v 19 1 6
v 19 1 -7
v 19 1 -9
v 19 2 7
v 19 2 6
v 19 3 7
v 19 3 6
v 19 4 7
v 19 4 6
v 19 11 7
v 19 11 6
v 19 11 -7
v 19 12 7
v 19 12 6
v 19 12 -7
v 19 13 7
v 19 13 6
v 19 13 -7
v 19 14 6
v 19 14 -7
v -4 5 9
v -4 8 9
v -3 4 9
v -3 5 9
v -3 8 9
v -3 9 9
v -2 3 9
v -2 4 9
v -2 9 9
v -2 10 9
v -1 6 9
v -1 7 9
v 0 6 9
v 0 7 9
v 1 3 9
v 1 4 9
v 1 9 9
v 1 10 9
v 2 4 9
v 2 5 9
v 2 8 9
v 2 9 9
v 3 5 9
v 3 8 9
v -20 0 8
v -20 1 8
v -6 4 8
v -6 9 8
v -5 3 8
v -5 4 8
v -5 9 8
v -5 10 8
v -4 2 8
v -4 3 8
v -4 5 8
v -4 8 8
v -4 10 8
v -4 11 8
v -3 1 8
v -3 2 8
v -3 4 8
v -3 5 8
v -3 8 8
v -3 9 8
v -3 11 8
v -3 12 8
v -2 3 8
v -2 4 8
v -2 9 8
v -2 10 8
v -1 6 8
v -1 7 8
v 0 6 8
v 0 7 8
v 1 3 8
v 1 4 8
v 1 9 8
v 1 10 8
v 2 1 8
v 2 2 8
v 2 4 8
v 2 5 8
v 2 8 8
v 2 9 8
v 2 11 8
v 2 12 8
v 3 2 8
v 3 3 8
v 3 5 8
v 3 8 8
v 3 10 8
v 3 11 8
v 4 3 8
v 4 4 8
v 4 9 8
v 4 10 8
v 5 4 8
v 5 9 8
v 19 0 8
v 19 1 8
v -20 2 7
v -20 3 7
v -20 4 7
v -20 11 7
v -20 12 7
v -20 13 7
v -6 4 7
v -6 9 7
v -5 3 7
v -5 9 7
v -5 10 7
v -4 2 7
v -4 3 7
v -4 10 7
v -4 11 7
v -3 12 7
v -2 6 7
v -2 7 7
v -1 5 7
v -1 6 7
v -1 7 7
v -1 8 7
v 0 5 7
v 0 6 7
v 0 7 7
v 0 8 7
v 1 6 7
v 1 7 7
v 2 12 7
v 3 2 7
v 3 3 7
v 3 10 7
v 3 11 7
v 4 3 7
v 4 9 7
v 4 10 7
v 5 4 7
v 5 9 7
v 19 2 7
v 19 3 7
v 19 4 7
v 19 11 7
v 19 12 7
v 19 13 7
v -20 1 6
v -20 2 6
v -20 3 6
v -20 4 6
v -20 11 6
v -20 12 6
v -20 13 6
v -20 14 6
v 19 1 6
v 19 2 6
v 19 3 6
v 19 4 6
v 19 11 6
v 19 12 6
v 19 13 6
v 19 14 6
v -18 3 -5
v -18 9 -5
v -9 3 -5
v -9 9 -5
v -2 6 8
v -2 7 8
v -1 5 8
v -1 6 8
v -1 7 8
v -1 8 8
v 0 5 8
v 0 6 8
v 0 7 8
v 0 8 8
v 1 6 8
v 1 7 8
v -5 3 7
v -5 4 7
v -3 1 7
v -3 2 7
v -3 11 7
v -3 12 7
v 2 1 7
v 2 2 7
v 2 11 7
v 2 12 7
v 4 3 7
v 4 4 7
v -18 3 -2
v -18 9 -2
v -9 3 -2
v -9 9 -2
v 4 3 -2
v 4 9 -2
v 11 3 -2
v 11 9 -2
v 12 3 -2
v 12 9 -2
v 18 3 -2
v 18 9 -2
v -19 3 -6
v -19 10 -6
v -18 3 -6
v -18 10 -6
v -9 3 -6
v -9 10 -6
v -7 5 -6
v -7 6 -6
v -6 5 -6
v -6 6 -6
v -3 3 -6
v -3 10 -6
v -2 3 -6
v -2 10 -6
v 1 5 -6
v 1 6 -6
v 2 5 -6
v 2 6 -6
v 4 3 -6
v 4 9 -6
v 11 9 -6
v 11 10 -6
v 12 9 -6
v 12 10 -6
v 18 9 -6
v 18 10 -6
v -20 1 -7
v -20 11 -7
v -20 12 -7
v -20 13 -7
v -20 14 -7
v -19 3 -7
v -19 10 -7
v -18 3 -7
v -18 10 -7
v -9 3 -7
v -9 10 -7
v -7 5 -7
v -7 6 -7
v -6 5 -7
v -6 6 -7
v -3 3 -7
v -3 10 -7
v -2 3 -7
v -2 10 -7
v 1 5 -7
v 1 6 -7
v 2 5 -7
v 2 6 -7
v 11 3 -7
v 11 10 -7
v 12 3 -7
v 12 10 -7
v 18 3 -7
v 18 10 -7
v 19 1 -7
v 19 11 -7
v 19 12 -7
v 19 13 -7
v 19 14 -7
v -20 0 -9
v -20 1 -9
v 19 0 -9
v 19 1 -9
v -20 0 8
v 19 0 8
v -19 0 6
v 18 0 6
v -19 0 -7
v 18 0 -7
v -20 0 -9
v 19 0 -9
v -4 2 8
v -3 2 8
v 2 2 8
v 3 2 8
v -20 2 7
v -4 2 7
v -3 2 7
v 2 2 7
v 3 2 7
v 19 2 7
v -20 2 6
v 19 2 6
v -2 3 9
v 1 3 9
v -5 3 8
v -4 3 8
v -2 3 8
v 1 3 8
v 3 3 8
v 4 3 8
v -5 3 7
v -4 3 7
v 3 3 7
v 4 3 7
v -3 4 9
v -2 4 9
v 1 4 9
v 2 4 9
v -6 4 8
v -5 4 8
v -3 4 8
v -2 4 8
v 1 4 8
v 2 4 8
v 4 4 8
v 5 4 8
v -20 4 7
v -6 4 7
v -5 4 7
v 4 4 7
v 5 4 7
v 19 4 7
v -20 4 6
v 19 4 6
v -4 5 9
v -3 5 9
v 2 5 9
v 3 5 9
v -4 5 8
v -3 5 8
v 2 5 8
v 3 5 8
v -7 5 -6
v -6 5 -6
v 1 5 -6
v 2 5 -6
v -7 5 -7
v -6 5 -7
v 1 5 -7
v 2 5 -7
v -1 6 8
v 0 6 8
v -1 6 7
v 0 6 7
v -1 7 9
v 0 7 9
v -2 7 8
v -1 7 8
v 0 7 8
v 1 7 8
v -2 7 7
v -1 7 7
v 0 7 7
v 1 7 7
v -1 8 8
v 0 8 8
v -1 8 7
v 0 8 7
v -18 9 -2
v -9 9 -2
v 4 9 -2
v 11 9 -2
v 12 9 -2
v 18 9 -2
v -18 9 -5
v -9 9 -5
v 4 9 -6
v 11 9 -6
v 12 9 -6
v 18 9 -6
v -19 10 -6
v -18 10 -6
v -9 10 -6
v -3 10 -6
v -2 10 -6
v 11 10 -6
v 12 10 -6
v 18 10 -6
v -19 10 -7
v -18 10 -7
v -9 10 -7
v -3 10 -7
v -2 10 -7
v 11 10 -7
v 12 10 -7
v 18 10 -7
v -20 12 7
v -3 12 7
v 2 12 7
v 19 12 7
v -20 12 6
v 19 12 6
v -20 1 8
v -3 1 8
v 2 1 8
v 19 1 8
v -3 1 7
v 2 1 7
v -20 1 6
v 19 1 6
v -20 1 -7
v 19 1 -7
v -20 1 -9
v 19 1 -9
v -20 3 7
v -5 3 7
v 4 3 7
v 19 3 7
v -20 3 6
v 19 3 6
v -18 3 -2
v -9 3 -2
v 4 3 -2
v 11 3 -2
v 12 3 -2
v 18 3 -2
v -18 3 -5
v -9 3 -5
v -19 3 -6
v -18 3 -6
v -9 3 -6
v -3 3 -6
v -2 3 -6
v 4 3 -6
v -19 3 -7
v -18 3 -7
v -9 3 -7
v -3 3 -7
v -2 3 -7
v 11 3 -7
v 12 3 -7
v 18 3 -7
v -1 5 8
v 0 5 8
v -1 5 7
v 0 5 7
v -1 6 9
v 0 6 9
v -2 6 8
v -1 6 8
v 0 6 8
v 1 6 8
v -2 6 7
v -1 6 7
v 0 6 7
v 1 6 7
v -7 6 -6
v -6 6 -6
v 1 6 -6
v 2 6 -6
v -7 6 -7
v -6 6 -7
v 1 6 -7
v 2 6 -7
v -1 7 8
v 0 7 8
v -1 7 7
v 0 7 7
v -4 8 9
v -3 8 9
v 2 8 9
v 3 8 9
v -4 8 8
v -3 8 8
v 2 8 8
v 3 8 8
v -3 9 9
v -2 9 9
v 1 9 9
v 2 9 9
v -6 9 8
v -5 9 8
v -3 9 8
v -2 9 8
v 1 9 8
v 2 9 8
v 4 9 8
v 5 9 8
v -6 9 7
v -5 9 7
v 4 9 7
v 5 9 7
v -2 10 9
v 1 10 9
v -5 10 8
v -4 10 8
v -2 10 8
v 1 10 8
v 3 10 8
v 4 10 8
v -5 10 7
v -4 10 7
v 3 10 7
v 4 10 7
v -4 11 8
v -3 11 8
v 2 11 8
v 3 11 8
v -20 11 7
v -4 11 7
v -3 11 7
v 2 11 7
v 3 11 7
v 19 11 7
v -20 11 6
v 19 11 6
v -3 12 8
v 2 12 8
v -3 12 7
v 2 12 7
v -20 13 7
v 19 13 7
v -20 13 6
v 19 13 6
v -20 14 6
v 19 14 6
v -20 14 -7
v 19 14 -7

# faces
f 3/3/1 2/3/1 1/3/1
f 4/3/1 2/3/1 3/3/1
f 5/3/1 2/3/1 4/3/1
f 6/3/1 2/3/1 5/3/1
f 8/1/1 5/1/1 4/1/1
f 9/1/1 8/1/1 7/1/1
f 10/1/1 5/1/1 8/1/1
f 10/1/1 8/1/1 9/1/1
f 12/1/1 5/1/1 10/1/1
f 13/1/1 12/1/1 11/1/1
f 14/1/1 5/1/1 12/1/1
f 14/1/1 12/1/1 13/1/1
f 15/1/1 5/1/1 14/1/1
f 17/3/1 15/3/1 14/3/1
f 18/3/1 15/3/1 17/3/1
f 19/1/1 17/1/1 16/1/1
f 19/1/1 18/1/1 17/1/1
f 20/1/1 18/1/1 19/1/1
f 21/1/1 18/1/1 20/1/1
f 22/3/1 21/3/1 20/3/1
f 23/3/1 21/3/1 22/3/1
f 26/3/1 25/3/1 24/3/1
f 27/3/1 25/3/1 26/3/1
f 30/1/1 29/1/1 28/1/1
f 31/1/1 29/1/1 30/1/1
f 34/3/1 33/3/1 32/3/1
f 35/3/1 33/3/1 34/3/1
f 38/2/1 37/2/1 36/2/1
f 39/2/1 37/2/1 38/2/1
f 42/2/1 41/2/1 40/2/1
f 43/2/1 41/2/1 42/2/1
f 46/2/1 45/2/1 44/2/1
f 47/2/1 45/2/1 46/2/1
f 50/2/1 49/2/1 48/2/1
f 51/2/1 49/2/1 50/2/1
f 54/3/1 53/3/1 52/3/1
f 55/3/1 53/3/1 54/3/1
f 58/2/1 57/2/1 56/2/1
f 59/2/1 57/2/1 58/2/1
f 62/2/1 61/2/1 60/2/1
f 63/2/1 61/2/1 62/2/1
f 68/3/1 67/3/1 66/3/1
f 69/3/1 67/3/1 68/3/1
f 72/3/1 71/3/1 70/3/1
f 73/3/1 71/3/1 72/3/1
f 74/3/1 65/3/1 64/3/1
f 75/3/1 65/3/1 74/3/1
f 78/2/1 77/2/1 76/2/1
f 79/2/1 77/2/1 78/2/1
f 82/3/1 81/3/1 80/3/1
f 83/3/1 81/3/1 82/3/1
f 86/3/1 85/3/1 84/3/1
f 87/3/1 85/3/1 86/3/1
f 90/1/1 89/1/1 88/1/1
f 91/1/1 89/1/1 90/1/1
f 95/2/1 93/2/1 92/2/1
f 96/2/1 93/2/1 95/2/1
f 97/3/1 95/3/1 94/3/1
f 98/3/1 95/3/1 97/3/1
f 100/2/1 99/2/1 98/2/1
f 101/2/1 99/2/1 100/2/1
f 106/3/1 103/3/1 102/3/1
f 107/3/1 103/3/1 106/3/1
f 108/2/1 105/2/1 104/2/1
f 109/2/1 105/2/1 108/2/1
f 112/3/1 111/3/1 110/3/1
f 113/3/1 111/3/1 112/3/1
f 114/3/1 111/3/1 113/3/1
f 115/3/1 111/3/1 114/3/1
f 118/1/1 117/1/1 116/1/1
f 119/1/1 117/1/1 118/1/1
f 120/1/1 117/1/1 119/1/1
f 121/1/1 117/1/1 120/1/1
f 122/1/2 123/1/2 124/1/2
f 124/1/2 123/1/2 125/1/2
f 126/1/2 127/1/2 128/1/2
f 128/1/2 127/1/2 129/1/2
f 130/3/2 131/3/2 132/3/2
f 132/3/2 131/3/2 133/3/2
f 134/3/2 135/3/2 136/3/2
f 136/3/2 135/3/2 137/3/2
f 140/2/2 141/2/2 142/2/2
f 142/2/2 141/2/2 143/2/2
f 138/3/2 139/3/2 144/3/2
f 144/3/2 139/3/2 145/3/2
f 146/2/2 147/2/2 149/2/2
f 149/2/2 147/2/2 150/2/2
f 148/3/2 149/3/2 151/3/2
f 151/3/2 149/3/2 152/3/2
f 152/2/2 153/2/2 154/2/2
f 154/2/2 153/2/2 155/2/2
f 156/1/2 157/1/2 158/1/2
f 158/1/2 157/1/2 159/1/2
f 160/3/2 161/3/2 162/3/2
f 162/3/2 161/3/2 163/3/2
f 164/3/2 165/3/2 166/3/2
f 166/3/2 165/3/2 167/3/2
f 168/2/2 169/2/2 170/2/2
f 170/2/2 169/2/2 171/2/2
f 172/3/2 173/3/2 174/3/2
f 174/3/2 173/3/2 175/3/2
f 176/3/2 177/3/2 178/3/2
f 178/3/2 177/3/2 179/3/2
f 180/3/2 181/3/2 182/3/2
f 182/3/2 181/3/2 183/3/2
f 184/2/2 185/2/2 186/2/2
f 186/2/2 185/2/2 187/2/2
f 188/2/2 189/2/2 190/2/2
f 190/2/2 189/2/2 191/2/2
f 192/3/2 193/3/2 194/3/2
f 194/3/2 193/3/2 195/3/2
f 196/2/2 197/2/2 198/2/2
f 198/2/2 197/2/2 199/2/2
f 200/2/2 201/2/2 204/2/2
f 204/2/2 201/2/2 205/2/2
f 202/1/2 203/1/2 208/1/2
f 208/1/2 203/1/2 209/1/2
f 206/2/2 207/2/2 210/2/2
f 210/2/2 207/2/2 211/2/2
f 212/2/2 213/2/2 214/2/2
f 214/2/2 213/2/2 215/2/2
f 216/3/2 217/3/2 218/3/2
f 218/3/2 217/3/2 219/3/2
f 219/3/2 217/3/2 220/3/2
f 220/3/2 217/3/2 221/3/2
f 222/3/2 223/3/2 224/3/2
f 224/3/2 223/3/2 225/3/2
f 225/3/2 223/3/2 226/3/2
f 226/3/2 223/3/2 227/3/2
f 225/1/2 226/1/2 229/1/2
f 228/1/2 229/1/2 230/1/2
f 229/1/2 226/1/2 231/1/2
f 230/1/2 229/1/2 231/1/2
f 231/1/2 226/1/2 233/1/2
f 232/1/2 233/1/2 234/1/2
f 233/1/2 226/1/2 235/1/2
f 234/1/2 233/1/2 235/1/2
f 235/1/2 226/1/2 236/1/2
f 235/3/2 236/3/2 238/3/2
f 238/3/2 236/3/2 239/3/2
f 237/1/2 238/1/2 240/1/2
f 238/1/2 239/1/2 240/1/2
f 240/1/2 239/1/2 241/1/2
f 241/1/2 239/1/2 242/1/2
f 241/3/2 242/3/2 243/3/2
f 243/3/2 242/3/2 244/3/2
f 248/3/3 246/3/3 245/3/3
f 249/3/3 246/3/3 248/3/3
f 252/3/3 248/3/3 247/3/3
f 252/3/3 250/3/3 249/3/3
f 252/3/3 249/3/3 248/3/3
f 253/3/3 250/3/3 252/3/3
f 255/3/3 252/3/3 251/3/3
f 255/3/3 254/3/3 253/3/3
f 255/3/3 253/3/3 252/3/3
f 256/3/3 254/3/3 255/3/3
f 257/3/3 255/3/3 251/3/3
f 258/3/3 254/3/3 256/3/3
f 259/3/3 257/3/3 251/3/3
f 259/3/3 258/3/3 257/3/3
f 260/3/3 258/3/3 259/3/3
f 261/3/3 254/3/3 258/3/3
f 261/3/3 258/3/3 260/3/3
f 262/3/3 254/3/3 261/3/3
f 263/3/3 261/3/3 260/3/3
f 264/3/3 261/3/3 263/3/3
f 265/3/3 261/3/3 264/3/3
f 266/3/3 261/3/3 265/3/3
f 267/3/3 265/3/3 264/3/3
f 268/3/3 265/3/3 267/3/3
f 274/2/3 272/2/3 271/2/3
f 275/2/3 272/2/3 274/2/3
f 278/2/3 274/2/3 273/2/3
f 278/2/3 276/2/3 275/2/3
f 278/2/3 275/2/3 274/2/3
f 279/2/3 276/2/3 278/2/3
f 280/2/3 276/2/3 279/2/3
f 281/2/3 276/2/3 280/2/3
f 283/3/3 270/3/3 269/3/3
f 284/2/3 278/2/3 277/2/3
f 284/2/3 279/2/3 278/2/3
f 285/2/3 279/2/3 284/2/3
f 286/2/3 279/2/3 285/2/3
f 287/2/3 282/2/3 281/2/3
f 287/2/3 281/2/3 280/2/3
f 288/2/3 282/2/3 287/2/3
f 289/2/3 282/2/3 288/2/3
f 291/2/3 285/2/3 284/2/3
f 291/2/3 284/2/3 283/2/3
f 292/2/3 285/2/3 291/2/3
f 293/2/3 290/2/3 289/2/3
f 293/2/3 289/2/3 288/2/3
f 294/2/3 290/2/3 293/2/3
f 297/1/3 296/1/3 295/1/3
f 298/1/3 296/1/3 297/1/3
f 299/2/3 291/2/3 283/2/3
f 302/2/3 290/2/3 294/2/3
f 303/2/3 299/2/3 283/2/3
f 303/3/3 283/3/3 269/3/3
f 303/2/3 300/2/3 299/2/3
f 304/2/3 300/2/3 303/2/3
f 305/2/3 300/2/3 304/2/3
f 308/2/3 302/2/3 301/2/3
f 309/2/3 290/2/3 302/2/3
f 309/2/3 302/2/3 308/2/3
f 310/2/3 290/2/3 309/2/3
f 311/2/3 306/2/3 305/2/3
f 311/2/3 305/2/3 304/2/3
f 312/2/3 306/2/3 311/2/3
f 313/2/3 306/2/3 312/2/3
f 314/2/3 308/2/3 307/2/3
f 314/2/3 309/2/3 308/2/3
f 315/2/3 309/2/3 314/2/3
f 316/2/3 309/2/3 315/2/3
f 317/2/3 313/2/3 312/2/3
f 317/2/3 315/2/3 314/2/3
f 317/2/3 314/2/3 313/2/3
f 318/2/3 315/2/3 317/2/3
f 319/2/3 315/2/3 318/2/3
f 320/2/3 315/2/3 319/2/3
f 321/2/3 319/2/3 318/2/3
f 322/2/3 319/2/3 321/2/3
f 323/3/3 303/3/3 269/3/3
f 324/3/3 303/3/3 323/3/3
f 331/1/3 328/1/3 327/1/3
f 332/1/3 328/1/3 331/1/3
f 333/1/3 326/1/3 325/1/3
f 334/1/3 328/1/3 332/1/3
f 335/1/3 328/1/3 334/1/3
f 336/1/3 333/1/3 325/1/3
f 337/1/3 333/1/3 336/1/3
f 338/1/3 328/1/3 335/1/3
f 339/1/3 328/1/3 338/1/3
f 340/1/3 330/1/3 329/1/3
f 344/1/3 342/1/3 341/1/3
f 345/1/3 342/1/3 344/1/3
f 347/1/3 344/1/3 343/1/3
f 348/1/3 344/1/3 347/1/3
f 349/1/3 346/1/3 345/1/3
f 350/1/3 346/1/3 349/1/3
f 351/1/3 349/1/3 348/1/3
f 352/1/3 349/1/3 351/1/3
f 353/1/3 330/1/3 340/1/3
f 358/1/3 355/1/3 354/1/3
f 360/1/3 357/1/3 356/1/3
f 362/1/3 360/1/3 359/1/3
f 363/1/3 358/1/3 354/1/3
f 364/1/3 358/1/3 363/1/3
f 365/1/3 362/1/3 361/1/3
f 366/1/3 357/1/3 360/1/3
f 366/1/3 362/1/3 365/1/3
f 366/1/3 360/1/3 362/1/3
f 367/1/3 330/1/3 353/1/3
f 368/1/3 330/1/3 367/1/3
f 377/1/3 370/1/3 369/1/3
f 378/1/3 370/1/3 377/1/3
f 379/1/3 372/1/3 371/1/3
f 380/1/3 372/1/3 379/1/3
f 381/3/3 374/3/3 373/3/3
f 382/3/3 374/3/3 381/3/3
f 383/3/3 376/3/3 375/3/3
f 384/3/3 376/3/3 383/3/3
f 387/3/3 386/3/3 385/3/3
f 388/3/3 386/3/3 387/3/3
f 389/3/4 390/3/4 392/3/4
f 392/3/4 390/3/4 393/3/4
f 391/3/4 392/3/4 395/3/4
f 395/3/4 392/3/4 396/3/4
f 393/3/4 394/3/4 397/3/4
f 397/3/4 394/3/4 398/3/4
f 396/3/4 397/3/4 399/3/4
f 399/3/4 397/3/4 400/3/4
f 403/2/4 404/2/4 407/2/4
f 407/2/4 404/2/4 408/2/4
f 405/2/4 406/2/4 409/2/4
f 409/2/4 406/2/4 410/2/4
f 401/2/4 402/2/4 411/2/4
f 411/2/4 402/2/4 412/2/4
f 413/1/4 414/1/4 415/1/4
f 415/1/4 414/1/4 416/1/4
f 417/1/4 418/1/4 419/1/4
f 419/1/4 418/1/4 420/1/4
f 421/1/4 422/1/4 423/1/4
f 423/1/4 422/1/4 424/1/4
f 425/1/4 426/1/4 427/1/4
f 427/1/4 426/1/4 428/1/4
f 429/1/4 430/1/4 431/1/4
f 431/1/4 430/1/4 432/1/4
f 429/1/4 431/1/4 433/1/4
f 432/1/4 430/1/4 434/1/4
f 429/1/4 433/1/4 435/1/4
f 433/1/4 434/1/4 435/1/4
f 434/1/4 430/1/4 436/1/4
f 435/1/4 434/1/4 436/1/4
f 437/1/4 438/1/4 439/1/4
f 439/1/4 438/1/4 440/1/4
f 437/1/4 439/1/4 441/1/4
f 440/1/4 438/1/4 442/1/4
f 437/1/4 441/1/4 443/1/4
f 441/1/4 442/1/4 443/1/4
f 442/1/4 438/1/4 444/1/4
f 443/1/4 442/1/4 444/1/4
f 444/1/4 438/1/4 445/1/4
f 445/1/4 438/1/4 446/1/4
f 447/1/4 448/1/4 449/1/4
f 449/1/4 448/1/4 450/1/4
f 451/1/4 452/1/4 456/1/4
f 456/1/4 452/1/4 457/1/4
f 451/1/4 456/1/4 458/1/4
f 457/1/4 452/1/4 459/1/4
f 451/1/4 458/1/4 460/1/4
f 458/3/4 459/3/4 460/3/4
f 459/1/4 452/1/4 461/1/4
f 460/3/4 459/3/4 461/3/4
f 462/3/4 463/3/4 464/3/4
f 464/3/4 463/3/4 465/3/4
f 451/1/4 460/1/4 466/1/4
f 461/1/4 452/1/4 467/1/4
f 451/1/4 466/1/4 468/1/4
f 466/3/4 467/3/4 468/3/4
f 467/1/4 452/1/4 469/1/4
f 468/3/4 467/3/4 469/3/4
f 470/3/4 471/3/4 472/3/4
f 472/3/4 471/3/4 473/3/4
f 451/1/4 468/1/4 474/1/4
f 469/1/4 452/1/4 475/1/4
f 451/1/4 474/1/4 476/1/4
f 474/3/4 475/3/4 476/3/4
f 475/1/4 452/1/4 477/1/4
f 476/3/4 475/3/4 477/3/4
f 451/1/4 476/1/4 478/1/4
f 477/1/4 452/1/4 479/1/4
f 451/1/4 478/1/4 480/1/4
f 478/1/4 479/1/4 480/1/4
f 452/3/4 453/3/4 481/3/4
f 480/1/4 479/1/4 481/1/4
f 479/1/4 452/1/4 481/1/4
f 453/1/4 454/1/4 482/1/4
f 481/3/4 453/3/4 482/3/4
f 454/3/4 455/3/4 483/3/4
f 482/1/4 454/1/4 483/1/4
f 483/3/4 455/3/4 484/3/4
f 485/3/4 486/3/4 487/3/4
f 487/3/4 486/3/4 488/3/4
f 491/3/5 490/3/5 489/3/5
f 492/3/5 490/3/5 491/3/5
f 493/3/5 491/3/5 489/3/5
f 493/1/5 492/1/5 491/1/5
f 494/3/5 490/3/5 492/3/5
f 494/1/5 492/1/5 493/1/5
f 495/3/5 493/3/5 489/3/5
f 495/3/5 494/3/5 493/3/5
f 496/3/5 490/3/5 494/3/5
f 496/3/5 494/3/5 495/3/5
f 502/2/5 498/2/5 497/2/5
f 503/2/5 498/2/5 502/2/5
f 504/2/5 500/2/5 499/2/5
f 505/2/5 500/2/5 504/2/5
f 507/1/5 503/1/5 502/1/5
f 507/1/5 506/1/5 505/1/5
f 507/1/5 505/1/5 504/1/5
f 507/1/5 504/1/5 503/1/5
f 507/1/5 502/1/5 501/1/5
f 508/1/5 506/1/5 507/1/5
f 513/3/5 510/3/5 509/3/5
f 514/3/5 510/3/5 513/3/5
f 517/2/5 512/2/5 511/2/5
f 518/2/5 512/2/5 517/2/5
f 519/2/5 516/2/5 515/2/5
f 520/2/5 516/2/5 519/2/5
f 527/3/5 522/3/5 521/3/5
f 528/3/5 522/3/5 527/3/5
f 529/3/5 524/3/5 523/3/5
f 530/3/5 524/3/5 529/3/5
f 534/2/5 526/2/5 525/2/5
f 535/2/5 526/2/5 534/2/5
f 536/2/5 532/2/5 531/2/5
f 537/2/5 532/2/5 536/2/5
f 539/1/5 535/1/5 534/1/5
f 539/1/5 538/1/5 537/1/5
f 539/1/5 537/1/5 536/1/5
f 539/1/5 536/1/5 535/1/5
f 539/1/5 534/1/5 533/1/5
f 540/1/5 538/1/5 539/1/5
f 545/3/5 542/3/5 541/3/5
f 546/3/5 542/3/5 545/3/5
f 547/3/5 544/3/5 543/3/5
f 548/3/5 544/3/5 547/3/5
f 553/3/5 550/3/5 549/3/5
f 554/3/5 550/3/5 553/3/5
f 555/3/5 552/3/5 551/3/5
f 556/3/5 552/3/5 555/3/5
f 559/1/5 558/1/5 557/1/5
f 560/1/5 558/1/5 559/1/5
f 564/3/5 562/3/5 561/3/5
f 565/3/5 562/3/5 564/3/5
f 567/2/5 564/2/5 563/2/5
f 568/2/5 564/2/5 567/2/5
f 569/2/5 566/2/5 565/2/5
f 570/2/5 566/2/5 569/2/5
f 573/2/5 572/2/5 571/2/5
f 574/2/5 572/2/5 573/2/5
f 581/1/5 576/1/5 575/1/5
f 582/1/5 576/1/5 581/1/5
f 583/1/5 578/1/5 577/1/5
f 584/1/5 578/1/5 583/1/5
f 585/1/5 580/1/5 579/1/5
f 586/1/5 580/1/5 585/1/5
f 595/1/5 588/1/5 587/1/5
f 596/1/5 588/1/5 595/1/5
f 597/1/5 590/1/5 589/1/5
f 598/1/5 590/1/5 597/1/5
f 599/1/5 592/1/5 591/1/5
f 600/1/5 592/1/5 599/1/5
f 601/1/5 594/1/5 593/1/5
f 602/1/5 594/1/5 601/1/5
f 607/1/5 604/1/5 603/1/5
f 607/1/5 606/1/5 605/1/5
f 607/1/5 605/1/5 604/1/5
f 608/1/5 606/1/5 607/1/5
f 609/3/6 610/3/6 613/3/6
f 611/3/6 612/3/6 614/3/6
f 609/3/6 613/3/6 615/3/6
f 613/3/6 614/3/6 615/3/6
f 614/3/6 612/3/6 616/3/6
f 615/3/6 614/3/6 616/3/6
f 617/3/6 618/3/6 619/3/6
f 619/3/6 618/3/6 620/3/6
f 621/1/6 622/1/6 625/1/6
f 623/1/6 624/1/6 625/1/6
f 622/1/6 623/1/6 625/1/6
f 625/1/6 624/1/6 626/1/6
f 627/1/6 628/1/6 633/1/6
f 633/1/6 628/1/6 634/1/6
f 629/1/6 630/1/6 640/1/6
f 635/1/6 636/1/6 641/1/6
f 641/1/6 636/1/6 642/1/6
f 637/1/6 638/1/6 643/1/6
f 643/1/6 638/1/6 644/1/6
f 639/1/6 640/1/6 645/1/6
f 640/1/6 630/1/6 646/1/6
f 645/1/6 640/1/6 646/1/6
f 631/1/6 632/1/6 647/1/6
f 647/1/6 632/1/6 648/1/6
f 649/2/6 650/2/6 651/2/6
f 651/2/6 650/2/6 652/2/6
f 653/3/6 654/3/6 656/3/6
f 656/3/6 654/3/6 657/3/6
f 655/2/6 656/2/6 659/2/6
f 659/2/6 656/2/6 660/2/6
f 657/2/6 658/2/6 661/2/6
f 661/2/6 658/2/6 662/2/6
f 663/3/6 664/3/6 667/3/6
f 667/3/6 664/3/6 668/3/6
f 665/3/6 666/3/6 669/3/6
f 669/3/6 666/3/6 670/3/6
f 671/1/6 672/1/6 673/1/6
f 673/1/6 672/1/6 674/1/6
f 675/3/6 676/3/6 679/3/6
f 679/3/6 676/3/6 680/3/6
f 677/3/6 678/3/6 681/3/6
f 681/3/6 678/3/6 682/3/6
f 683/3/6 684/3/6 689/3/6
f 689/3/6 684/3/6 690/3/6
f 685/3/6 686/3/6 691/3/6
f 691/3/6 686/3/6 692/3/6
f 687/2/6 688/2/6 695/2/6
f 695/2/6 688/2/6 696/2/6
f 693/2/6 694/2/6 697/2/6
f 697/2/6 694/2/6 698/2/6
f 699/3/6 700/3/6 703/3/6
f 703/3/6 700/3/6 704/3/6
f 701/2/6 702/2/6 707/2/6
f 707/2/6 702/2/6 708/2/6
f 705/2/6 706/2/6 709/2/6
f 709/2/6 706/2/6 710/2/6
f 711/2/6 712/2/6 716/2/6
f 716/2/6 712/2/6 717/2/6
f 713/2/6 714/2/6 718/2/6
f 718/2/6 714/2/6 719/2/6
f 716/1/6 717/1/6 721/1/6
f 719/1/6 720/1/6 721/1/6
f 718/1/6 719/1/6 721/1/6
f 717/1/6 718/1/6 721/1/6
f 715/1/6 716/1/6 721/1/6
f 721/1/6 720/1/6 722/1/6
f 723/2/6 724/2/6 725/2/6
f 725/2/6 724/2/6 726/2/6
f 727/1/6 728/1/6 729/1/6
f 729/1/6 728/1/6 730/1/6
f 731/3/6 732/3/6 733/3/6
f 733/3/6 732/3/6 734/3/6
