# MagicaVoxel @ Ephtracy

# group
g flower1

# material
mtllib flower1.mtl
usemtl palette

# normals
vn -1 0 0
vn 1 0 0
vn 0 0 1
vn 0 0 -1
vn 0 -1 0
vn 0 1 0

# texcoords
vt 0.0253906 0.5
vt 0.650391 0.5
vt 0.873047 0.5

# verts
v -12 8 -3
v -12 8 -8
v -12 10 -3
v -12 10 -8
v -11 7 -3
v -11 7 -8
v -11 8 -1
v -11 8 -3
v -11 8 -8
v -11 8 -10
v -11 10 -1
v -11 10 -3
v -11 10 -8
v -11 10 -10
v -11 11 -3
v -11 11 -8
v -10 6 -3
v -10 6 -8
v -10 7 -2
v -10 7 -3
v -10 7 -8
v -10 7 -9
v -10 8 -0
v -10 8 -1
v -10 8 -2
v -10 8 -3
v -10 8 -8
v -10 8 -9
v -10 8 -10
v -10 8 -11
v -10 10 -0
v -10 10 -1
v -10 10 -2
v -10 10 -3
v -10 10 -8
v -10 10 -9
v -10 10 -10
v -10 10 -11
v -10 11 -2
v -10 11 -3
v -10 11 -8
v -10 11 -9
v -10 12 -3
v -10 12 -8
v -9 6 -2
v -9 6 -3
v -9 6 -8
v -9 6 -9
v -9 7 -1
v -9 7 -2
v -9 7 -3
v -9 7 -8
v -9 7 -9
v -9 7 -10
v -9 8 -1
v -9 8 -2
v -9 8 -9
v -9 8 -10
v -9 10 -1
v -9 10 -2
v -9 10 -9
v -9 10 -10
v -9 11 -1
v -9 11 -2
v -9 11 -3
v -9 11 -8
v -9 11 -9
v -9 11 -10
v -9 12 -2
v -9 12 -3
v -9 12 -8
v -9 12 -9
v -8 6 -1
v -8 6 -2
v -8 6 -9
v -8 6 -10
v -8 7 -0
v -8 7 -1
v -8 7 -2
v -8 7 -9
v -8 7 -10
v -8 7 -11
v -8 8 1
v -8 8 -0
v -8 8 -1
v -8 8 -10
v -8 8 -11
v -8 8 -12
v -8 10 1
v -8 10 -0
v -8 10 -1
v -8 10 -10
v -8 10 -11
v -8 10 -12
v -8 11 -0
v -8 11 -1
v -8 11 -2
v -8 11 -9
v -8 11 -10
v -8 11 -11
v -8 12 -1
v -8 12 -2
v -8 12 -9
v -8 12 -10
v -7 11 -6
v -7 11 -7
v -7 19 -6
v -7 19 -7
v -6 11 -4
v -6 11 -5
v -6 21 -4
v -6 21 -5
v -5 11 -5
v -5 11 -6
v -5 21 -5
v -5 24 -5
v -5 24 -6
v -3 11 -3
v -3 11 -8
v -3 12 -3
v -3 12 -8
v -8 11 -3
v -8 11 -8
v -8 12 -3
v -8 12 -8
v -6 11 -6
v -6 11 -7
v -6 19 -6
v -6 19 -7
v -5 11 -4
v -5 11 -5
v -5 21 -4
v -5 21 -5
v -4 11 -5
v -4 11 -6
v -4 24 -5
v -4 24 -6
v -3 6 -1
v -3 6 -2
v -3 6 -9
v -3 6 -10
v -3 7 -0
v -3 7 -1
v -3 7 -2
v -3 7 -9
v -3 7 -10
v -3 7 -11
v -3 8 1
v -3 8 -0
v -3 8 -1
v -3 8 -10
v -3 8 -11
v -3 8 -12
v -3 10 1
v -3 10 -0
v -3 10 -1
v -3 10 -10
v -3 10 -11
v -3 10 -12
v -3 11 -0
v -3 11 -1
v -3 11 -2
v -3 11 -9
v -3 11 -10
v -3 11 -11
v -3 12 -1
v -3 12 -2
v -3 12 -9
v -3 12 -10
v -2 6 -2
v -2 6 -3
v -2 6 -8
v -2 6 -9
v -2 7 -1
v -2 7 -2
v -2 7 -3
v -2 7 -8
v -2 7 -9
v -2 7 -10
v -2 8 -1
v -2 8 -2
v -2 8 -9
v -2 8 -10
v -2 10 -1
v -2 10 -2
v -2 10 -9
v -2 10 -10
v -2 11 -1
v -2 11 -2
v -2 11 -3
v -2 11 -8
v -2 11 -9
v -2 11 -10
v -2 12 -2
v -2 12 -3
v -2 12 -8
v -2 12 -9
v -1 6 -3
v -1 6 -8
v -1 7 -2
v -1 7 -3
v -1 7 -8
v -1 7 -9
v -1 8 -0
v -1 8 -1
v -1 8 -2
v -1 8 -3
v -1 8 -8
v -1 8 -9
v -1 8 -10
v -1 8 -11
v -1 10 -0
v -1 10 -1
v -1 10 -2
v -1 10 -3
v -1 10 -8
v -1 10 -9
v -1 10 -10
v -1 10 -11
v -1 11 -2
v -1 11 -3
v -1 11 -8
v -1 11 -9
v -1 12 -3
v -1 12 -8
v 0 7 -3
v 0 7 -8
v 0 8 -1
v 0 8 -3
v 0 8 -8
v 0 8 -10
v 0 10 -1
v 0 10 -3
v 0 10 -8
v 0 10 -10
v 0 11 -3
v 0 11 -8
v 1 8 -3
v 1 8 -8
v 1 10 -3
v 1 10 -8
v -8 8 1
v -8 10 1
v -3 8 1
v -3 10 1
v -10 8 -0
v -10 10 -0
v -8 7 -0
v -8 8 -0
v -8 10 -0
v -8 11 -0
v -3 7 -0
v -3 8 -0
v -3 10 -0
v -3 11 -0
v -1 8 -0
v -1 10 -0
v -11 8 -1
v -11 10 -1
v -10 8 -1
v -10 10 -1
v -9 7 -1
v -9 8 -1
v -9 10 -1
v -9 11 -1
v -8 6 -1
v -8 7 -1
v -8 8 -1
v -8 10 -1
v -8 11 -1
v -8 12 -1
v -3 6 -1
v -3 7 -1
v -3 8 -1
v -3 10 -1
v -3 11 -1
v -3 12 -1
v -2 7 -1
v -2 8 -1
v -2 10 -1
v -2 11 -1
v -1 8 -1
v -1 10 -1
v 0 8 -1
v 0 10 -1
v -10 7 -2
v -10 8 -2
v -10 10 -2
v -10 11 -2
v -9 6 -2
v -9 7 -2
v -9 8 -2
v -9 10 -2
v -9 11 -2
v -9 12 -2
v -8 6 -2
v -8 7 -2
v -8 11 -2
v -8 12 -2
v -3 6 -2
v -3 7 -2
v -3 11 -2
v -3 12 -2
v -2 6 -2
v -2 7 -2
v -2 8 -2
v -2 10 -2
v -2 11 -2
v -2 12 -2
v -1 7 -2
v -1 8 -2
v -1 10 -2
v -1 11 -2
v -12 8 -3
v -12 10 -3
v -11 7 -3
v -11 8 -3
v -11 10 -3
v -11 11 -3
v -10 6 -3
v -10 7 -3
v -10 8 -3
v -10 10 -3
v -10 11 -3
v -10 12 -3
v -9 6 -3
v -9 7 -3
v -9 11 -3
v -9 12 -3
v -2 6 -3
v -2 7 -3
v -2 11 -3
v -2 12 -3
v -1 6 -3
v -1 7 -3
v -1 8 -3
v -1 10 -3
v -1 11 -3
v -1 12 -3
v 0 7 -3
v 0 8 -3
v 0 10 -3
v 0 11 -3
v 1 8 -3
v 1 10 -3
v -6 11 -4
v -6 21 -4
v -5 11 -4
v -5 21 -4
v -5 11 -5
v -5 21 -5
v -5 24 -5
v -4 11 -5
v -4 24 -5
v -7 11 -6
v -7 19 -6
v -6 11 -6
v -6 19 -6
v -8 11 -8
v -8 12 -8
v -3 11 -8
v -3 12 -8
v -8 11 -3
v -8 12 -3
v -3 11 -3
v -3 12 -3
v -6 11 -5
v -6 21 -5
v -5 11 -5
v -5 21 -5
v -5 11 -6
v -5 24 -6
v -4 11 -6
v -4 24 -6
v -7 11 -7
v -7 19 -7
v -6 11 -7
v -6 19 -7
v -12 8 -8
v -12 10 -8
v -11 7 -8
v -11 8 -8
v -11 10 -8
v -11 11 -8
v -10 6 -8
v -10 7 -8
v -10 8 -8
v -10 10 -8
v -10 11 -8
v -10 12 -8
v -9 6 -8
v -9 7 -8
v -9 11 -8
v -9 12 -8
v -2 6 -8
v -2 7 -8
v -2 11 -8
v -2 12 -8
v -1 6 -8
v -1 7 -8
v -1 8 -8
v -1 10 -8
v -1 11 -8
v -1 12 -8
v 0 7 -8
v 0 8 -8
v 0 10 -8
v 0 11 -8
v 1 8 -8
v 1 10 -8
v -10 7 -9
v -10 8 -9
v -10 10 -9
v -10 11 -9
v -9 6 -9
v -9 7 -9
v -9 8 -9
v -9 10 -9
v -9 11 -9
v -9 12 -9
v -8 6 -9
v -8 7 -9
v -8 11 -9
v -8 12 -9
v -3 6 -9
v -3 7 -9
v -3 11 -9
v -3 12 -9
v -2 6 -9
v -2 7 -9
v -2 8 -9
v -2 10 -9
v -2 11 -9
v -2 12 -9
v -1 7 -9
v -1 8 -9
v -1 10 -9
v -1 11 -9
v -11 8 -10
v -11 10 -10
v -10 8 -10
v -10 10 -10
v -9 7 -10
v -9 8 -10
v -9 10 -10
v -9 11 -10
v -8 6 -10
v -8 7 -10
v -8 8 -10
v -8 10 -10
v -8 11 -10
v -8 12 -10
v -3 6 -10
v -3 7 -10
v -3 8 -10
v -3 10 -10
v -3 11 -10
v -3 12 -10
v -2 7 -10
v -2 8 -10
v -2 10 -10
v -2 11 -10
v -1 8 -10
v -1 10 -10
v 0 8 -10
v 0 10 -10
v -10 8 -11
v -10 10 -11
v -8 7 -11
v -8 8 -11
v -8 10 -11
v -8 11 -11
v -3 7 -11
v -3 8 -11
v -3 10 -11
v -3 11 -11
v -1 8 -11
v -1 10 -11
v -8 8 -12
v -8 10 -12
v -3 8 -12
v -3 10 -12
v -8 6 -1
v -3 6 -1
v -9 6 -2
v -8 6 -2
v -3 6 -2
v -2 6 -2
v -10 6 -3
v -9 6 -3
v -2 6 -3
v -1 6 -3
v -10 6 -8
v -9 6 -8
v -2 6 -8
v -1 6 -8
v -9 6 -9
v -8 6 -9
v -3 6 -9
v -2 6 -9
v -8 6 -10
v -3 6 -10
v -8 7 -0
v -3 7 -0
v -9 7 -1
v -8 7 -1
v -3 7 -1
v -2 7 -1
v -10 7 -2
v -9 7 -2
v -8 7 -2
v -3 7 -2
v -2 7 -2
v -1 7 -2
v -11 7 -3
v -10 7 -3
v -9 7 -3
v -2 7 -3
v -1 7 -3
v 0 7 -3
v -11 7 -8
v -10 7 -8
v -9 7 -8
v -2 7 -8
v -1 7 -8
v 0 7 -8
v -10 7 -9
v -9 7 -9
v -8 7 -9
v -3 7 -9
v -2 7 -9
v -1 7 -9
v -9 7 -10
v -8 7 -10
v -3 7 -10
v -2 7 -10
v -8 7 -11
v -3 7 -11
v -8 8 1
v -3 8 1
v -10 8 -0
v -8 8 -0
v -3 8 -0
v -1 8 -0
v -11 8 -1
v -10 8 -1
v -9 8 -1
v -8 8 -1
v -3 8 -1
v -2 8 -1
v -1 8 -1
v 0 8 -1
v -10 8 -2
v -9 8 -2
v -2 8 -2
v -1 8 -2
v -12 8 -3
v -11 8 -3
v -10 8 -3
v -1 8 -3
v 0 8 -3
v 1 8 -3
v -12 8 -8
v -11 8 -8
v -10 8 -8
v -1 8 -8
v 0 8 -8
v 1 8 -8
v -10 8 -9
v -9 8 -9
v -2 8 -9
v -1 8 -9
v -11 8 -10
v -10 8 -10
v -9 8 -10
v -8 8 -10
v -3 8 -10
v -2 8 -10
v -1 8 -10
v 0 8 -10
v -10 8 -11
v -8 8 -11
v -3 8 -11
v -1 8 -11
v -8 8 -12
v -3 8 -12
v -8 10 1
v -3 10 1
v -10 10 -0
v -8 10 -0
v -3 10 -0
v -1 10 -0
v -11 10 -1
v -10 10 -1
v -9 10 -1
v -8 10 -1
v -3 10 -1
v -2 10 -1
v -1 10 -1
v 0 10 -1
v -10 10 -2
v -9 10 -2
v -2 10 -2
v -1 10 -2
v -12 10 -3
v -11 10 -3
v -10 10 -3
v -1 10 -3
v 0 10 -3
v 1 10 -3
v -12 10 -8
v -11 10 -8
v -10 10 -8
v -1 10 -8
v 0 10 -8
v 1 10 -8
v -10 10 -9
v -9 10 -9
v -2 10 -9
v -1 10 -9
v -11 10 -10
v -10 10 -10
v -9 10 -10
v -8 10 -10
v -3 10 -10
v -2 10 -10
v -1 10 -10
v 0 10 -10
v -10 10 -11
v -8 10 -11
v -3 10 -11
v -1 10 -11
v -8 10 -12
v -3 10 -12
v -8 11 -0
v -3 11 -0
v -9 11 -1
v -8 11 -1
v -3 11 -1
v -2 11 -1
v -10 11 -2
v -9 11 -2
v -8 11 -2
v -3 11 -2
v -2 11 -2
v -1 11 -2
v -11 11 -3
v -10 11 -3
v -9 11 -3
v -8 11 -3
v -3 11 -3
v -2 11 -3
v -1 11 -3
v 0 11 -3
v -6 11 -4
v -5 11 -4
v -6 11 -5
v -5 11 -5
v -4 11 -5
v -7 11 -6
v -6 11 -6
v -5 11 -6
v -4 11 -6
v -7 11 -7
v -6 11 -7
v -11 11 -8
v -10 11 -8
v -9 11 -8
v -8 11 -8
v -3 11 -8
v -2 11 -8
v -1 11 -8
v 0 11 -8
v -10 11 -9
v -9 11 -9
v -8 11 -9
v -3 11 -9
v -2 11 -9
v -1 11 -9
v -9 11 -10
v -8 11 -10
v -3 11 -10
v -2 11 -10
v -8 11 -11
v -3 11 -11
v -8 12 -1
v -3 12 -1
v -9 12 -2
v -8 12 -2
v -3 12 -2
v -2 12 -2
v -10 12 -3
v -9 12 -3
v -8 12 -3
v -3 12 -3
v -2 12 -3
v -1 12 -3
v -10 12 -8
v -9 12 -8
v -8 12 -8
v -3 12 -8
v -2 12 -8
v -1 12 -8
v -9 12 -9
v -8 12 -9
v -3 12 -9
v -2 12 -9
v -8 12 -10
v -3 12 -10
v -7 19 -6
v -6 19 -6
v -7 19 -7
v -6 19 -7
v -6 21 -4
v -5 21 -4
v -6 21 -5
v -5 21 -5
v -5 24 -5
v -4 24 -5
v -5 24 -6
v -4 24 -6

# faces
f 3/3/1 2/3/1 1/3/1
f 4/3/1 2/3/1 3/3/1
f 8/3/1 6/3/1 5/3/1
f 9/3/1 6/3/1 8/3/1
f 11/3/1 8/3/1 7/3/1
f 12/3/1 8/3/1 11/3/1
f 13/3/1 10/3/1 9/3/1
f 14/3/1 10/3/1 13/3/1
f 15/3/1 13/3/1 12/3/1
f 16/3/1 13/3/1 15/3/1
f 20/3/1 18/3/1 17/3/1
f 21/3/1 18/3/1 20/3/1
f 25/3/1 20/3/1 19/3/1
f 26/3/1 20/3/1 25/3/1
f 27/3/1 22/3/1 21/3/1
f 28/3/1 22/3/1 27/3/1
f 31/3/1 24/3/1 23/3/1
f 32/3/1 24/3/1 31/3/1
f 37/3/1 30/3/1 29/3/1
f 38/3/1 30/3/1 37/3/1
f 39/3/1 34/3/1 33/3/1
f 40/3/1 34/3/1 39/3/1
f 41/3/1 36/3/1 35/3/1
f 42/3/1 36/3/1 41/3/1
f 43/3/1 41/3/1 40/3/1
f 44/3/1 41/3/1 43/3/1
f 50/3/1 46/3/1 45/3/1
f 51/3/1 46/3/1 50/3/1
f 52/3/1 48/3/1 47/3/1
f 53/3/1 48/3/1 52/3/1
f 55/3/1 50/3/1 49/3/1
f 56/3/1 50/3/1 55/3/1
f 57/3/1 54/3/1 53/3/1
f 58/3/1 54/3/1 57/3/1
f 63/3/1 60/3/1 59/3/1
f 64/3/1 60/3/1 63/3/1
f 67/3/1 62/3/1 61/3/1
f 68/3/1 62/3/1 67/3/1
f 69/3/1 65/3/1 64/3/1
f 70/3/1 65/3/1 69/3/1
f 71/3/1 67/3/1 66/3/1
f 72/3/1 67/3/1 71/3/1
f 78/3/1 74/3/1 73/3/1
f 79/3/1 74/3/1 78/3/1
f 80/3/1 76/3/1 75/3/1
f 81/3/1 76/3/1 80/3/1
f 84/3/1 78/3/1 77/3/1
f 85/3/1 78/3/1 84/3/1
f 86/3/1 82/3/1 81/3/1
f 87/3/1 82/3/1 86/3/1
f 89/3/1 84/3/1 83/3/1
f 90/3/1 84/3/1 89/3/1
f 93/3/1 88/3/1 87/3/1
f 94/3/1 88/3/1 93/3/1
f 95/3/1 91/3/1 90/3/1
f 96/3/1 91/3/1 95/3/1
f 99/3/1 93/3/1 92/3/1
f 100/3/1 93/3/1 99/3/1
f 101/3/1 97/3/1 96/3/1
f 102/3/1 97/3/1 101/3/1
f 103/3/1 99/3/1 98/3/1
f 104/3/1 99/3/1 103/3/1
f 107/2/1 106/2/1 105/2/1
f 108/2/1 106/2/1 107/2/1
f 111/2/1 110/2/1 109/2/1
f 112/2/1 110/2/1 111/2/1
f 115/2/1 114/2/1 113/2/1
f 116/2/1 114/2/1 115/2/1
f 117/2/1 114/2/1 116/2/1
f 120/3/1 119/3/1 118/3/1
f 121/3/1 119/3/1 120/3/1
f 122/3/2 123/3/2 124/3/2
f 124/3/2 123/3/2 125/3/2
f 126/2/2 127/2/2 128/2/2
f 128/2/2 127/2/2 129/2/2
f 130/2/2 131/2/2 132/2/2
f 132/2/2 131/2/2 133/2/2
f 134/2/2 135/2/2 136/2/2
f 136/2/2 135/2/2 137/2/2
f 138/3/2 139/3/2 143/3/2
f 143/3/2 139/3/2 144/3/2
f 140/3/2 141/3/2 145/3/2
f 145/3/2 141/3/2 146/3/2
f 142/3/2 143/3/2 149/3/2
f 149/3/2 143/3/2 150/3/2
f 146/3/2 147/3/2 151/3/2
f 151/3/2 147/3/2 152/3/2
f 148/3/2 149/3/2 154/3/2
f 154/3/2 149/3/2 155/3/2
f 152/3/2 153/3/2 158/3/2
f 158/3/2 153/3/2 159/3/2
f 155/3/2 156/3/2 160/3/2
f 160/3/2 156/3/2 161/3/2
f 157/3/2 158/3/2 164/3/2
f 164/3/2 158/3/2 165/3/2
f 161/3/2 162/3/2 166/3/2
f 166/3/2 162/3/2 167/3/2
f 163/3/2 164/3/2 168/3/2
f 168/3/2 164/3/2 169/3/2
f 170/3/2 171/3/2 175/3/2
f 175/3/2 171/3/2 176/3/2
f 172/3/2 173/3/2 177/3/2
f 177/3/2 173/3/2 178/3/2
f 174/3/2 175/3/2 180/3/2
f 180/3/2 175/3/2 181/3/2
f 178/3/2 179/3/2 182/3/2
f 182/3/2 179/3/2 183/3/2
f 184/3/2 185/3/2 188/3/2
f 188/3/2 185/3/2 189/3/2
f 186/3/2 187/3/2 192/3/2
f 192/3/2 187/3/2 193/3/2
f 189/3/2 190/3/2 194/3/2
f 194/3/2 190/3/2 195/3/2
f 191/3/2 192/3/2 196/3/2
f 196/3/2 192/3/2 197/3/2
f 198/3/2 199/3/2 201/3/2
f 201/3/2 199/3/2 202/3/2
f 200/3/2 201/3/2 206/3/2
f 206/3/2 201/3/2 207/3/2
f 202/3/2 203/3/2 208/3/2
f 208/3/2 203/3/2 209/3/2
f 204/3/2 205/3/2 212/3/2
f 212/3/2 205/3/2 213/3/2
f 210/3/2 211/3/2 218/3/2
f 218/3/2 211/3/2 219/3/2
f 214/3/2 215/3/2 220/3/2
f 220/3/2 215/3/2 221/3/2
f 216/3/2 217/3/2 222/3/2
f 222/3/2 217/3/2 223/3/2
f 221/3/2 222/3/2 224/3/2
f 224/3/2 222/3/2 225/3/2
f 226/3/2 227/3/2 229/3/2
f 229/3/2 227/3/2 230/3/2
f 228/3/2 229/3/2 232/3/2
f 232/3/2 229/3/2 233/3/2
f 230/3/2 231/3/2 234/3/2
f 234/3/2 231/3/2 235/3/2
f 233/3/2 234/3/2 236/3/2
f 236/3/2 234/3/2 237/3/2
f 238/3/2 239/3/2 240/3/2
f 240/3/2 239/3/2 241/3/2
f 244/3/3 243/3/3 242/3/3
f 245/3/3 243/3/3 244/3/3
f 249/3/3 247/3/3 246/3/3
f 250/3/3 247/3/3 249/3/3
f 252/3/3 249/3/3 248/3/3
f 253/3/3 249/3/3 252/3/3
f 254/3/3 251/3/3 250/3/3
f 255/3/3 251/3/3 254/3/3
f 256/3/3 254/3/3 253/3/3
f 257/3/3 254/3/3 256/3/3
f 260/3/3 259/3/3 258/3/3
f 261/3/3 259/3/3 260/3/3
f 267/3/3 263/3/3 262/3/3
f 268/3/3 263/3/3 267/3/3
f 269/3/3 265/3/3 264/3/3
f 270/3/3 265/3/3 269/3/3
f 272/3/3 267/3/3 266/3/3
f 273/3/3 267/3/3 272/3/3
f 276/3/3 271/3/3 270/3/3
f 277/3/3 271/3/3 276/3/3
f 278/3/3 274/3/3 273/3/3
f 279/3/3 274/3/3 278/3/3
f 280/3/3 276/3/3 275/3/3
f 281/3/3 276/3/3 280/3/3
f 284/3/3 283/3/3 282/3/3
f 285/3/3 283/3/3 284/3/3
f 291/3/3 287/3/3 286/3/3
f 292/3/3 287/3/3 291/3/3
f 293/3/3 289/3/3 288/3/3
f 294/3/3 289/3/3 293/3/3
f 296/3/3 291/3/3 290/3/3
f 297/3/3 291/3/3 296/3/3
f 298/3/3 295/3/3 294/3/3
f 299/3/3 295/3/3 298/3/3
f 304/3/3 301/3/3 300/3/3
f 305/3/3 301/3/3 304/3/3
f 308/3/3 303/3/3 302/3/3
f 309/3/3 303/3/3 308/3/3
f 310/3/3 306/3/3 305/3/3
f 311/3/3 306/3/3 310/3/3
f 312/3/3 308/3/3 307/3/3
f 313/3/3 308/3/3 312/3/3
f 317/3/3 315/3/3 314/3/3
f 318/3/3 315/3/3 317/3/3
f 321/3/3 317/3/3 316/3/3
f 322/3/3 317/3/3 321/3/3
f 323/3/3 319/3/3 318/3/3
f 324/3/3 319/3/3 323/3/3
f 326/3/3 321/3/3 320/3/3
f 327/3/3 321/3/3 326/3/3
f 328/3/3 325/3/3 324/3/3
f 329/3/3 325/3/3 328/3/3
f 334/3/3 331/3/3 330/3/3
f 335/3/3 331/3/3 334/3/3
f 338/3/3 333/3/3 332/3/3
f 339/3/3 333/3/3 338/3/3
f 340/3/3 336/3/3 335/3/3
f 341/3/3 336/3/3 340/3/3
f 342/3/3 338/3/3 337/3/3
f 343/3/3 338/3/3 342/3/3
f 344/3/3 342/3/3 341/3/3
f 345/3/3 342/3/3 344/3/3
f 348/2/3 347/2/3 346/2/3
f 349/2/3 347/2/3 348/2/3
f 353/2/3 351/2/3 350/2/3
f 353/2/3 352/2/3 351/2/3
f 354/2/3 352/2/3 353/2/3
f 357/2/3 356/2/3 355/2/3
f 358/2/3 356/2/3 357/2/3
f 361/3/3 360/3/3 359/3/3
f 362/3/3 360/3/3 361/3/3
f 363/3/4 364/3/4 365/3/4
f 365/3/4 364/3/4 366/3/4
f 367/2/4 368/2/4 369/2/4
f 369/2/4 368/2/4 370/2/4
f 371/2/4 372/2/4 373/2/4
f 373/2/4 372/2/4 374/2/4
f 375/2/4 376/2/4 377/2/4
f 377/2/4 376/2/4 378/2/4
f 379/3/4 380/3/4 382/3/4
f 382/3/4 380/3/4 383/3/4
f 381/3/4 382/3/4 386/3/4
f 386/3/4 382/3/4 387/3/4
f 383/3/4 384/3/4 388/3/4
f 388/3/4 384/3/4 389/3/4
f 385/3/4 386/3/4 391/3/4
f 391/3/4 386/3/4 392/3/4
f 389/3/4 390/3/4 393/3/4
f 393/3/4 390/3/4 394/3/4
f 395/3/4 396/3/4 399/3/4
f 399/3/4 396/3/4 400/3/4
f 397/3/4 398/3/4 403/3/4
f 403/3/4 398/3/4 404/3/4
f 400/3/4 401/3/4 405/3/4
f 405/3/4 401/3/4 406/3/4
f 402/3/4 403/3/4 407/3/4
f 407/3/4 403/3/4 408/3/4
f 406/3/4 407/3/4 409/3/4
f 409/3/4 407/3/4 410/3/4
f 411/3/4 412/3/4 416/3/4
f 416/3/4 412/3/4 417/3/4
f 413/3/4 414/3/4 418/3/4
f 418/3/4 414/3/4 419/3/4
f 415/3/4 416/3/4 421/3/4
f 421/3/4 416/3/4 422/3/4
f 419/3/4 420/3/4 423/3/4
f 423/3/4 420/3/4 424/3/4
f 425/3/4 426/3/4 429/3/4
f 429/3/4 426/3/4 430/3/4
f 427/3/4 428/3/4 433/3/4
f 433/3/4 428/3/4 434/3/4
f 430/3/4 431/3/4 435/3/4
f 435/3/4 431/3/4 436/3/4
f 432/3/4 433/3/4 437/3/4
f 437/3/4 433/3/4 438/3/4
f 439/3/4 440/3/4 441/3/4
f 441/3/4 440/3/4 442/3/4
f 443/3/4 444/3/4 448/3/4
f 448/3/4 444/3/4 449/3/4
f 445/3/4 446/3/4 450/3/4
f 450/3/4 446/3/4 451/3/4
f 447/3/4 448/3/4 453/3/4
f 453/3/4 448/3/4 454/3/4
f 451/3/4 452/3/4 457/3/4
f 457/3/4 452/3/4 458/3/4
f 454/3/4 455/3/4 459/3/4
f 459/3/4 455/3/4 460/3/4
f 456/3/4 457/3/4 461/3/4
f 461/3/4 457/3/4 462/3/4
f 463/3/4 464/3/4 465/3/4
f 465/3/4 464/3/4 466/3/4
f 467/3/4 468/3/4 470/3/4
f 470/3/4 468/3/4 471/3/4
f 469/3/4 470/3/4 473/3/4
f 473/3/4 470/3/4 474/3/4
f 471/3/4 472/3/4 475/3/4
f 475/3/4 472/3/4 476/3/4
f 474/3/4 475/3/4 477/3/4
f 477/3/4 475/3/4 478/3/4
f 479/3/4 480/3/4 481/3/4
f 481/3/4 480/3/4 482/3/4
f 486/3/5 484/3/5 483/3/5
f 487/3/5 484/3/5 486/3/5
f 490/3/5 486/3/5 485/3/5
f 490/3/5 488/3/5 487/3/5
f 490/3/5 487/3/5 486/3/5
f 491/3/5 488/3/5 490/3/5
f 493/3/5 490/3/5 489/3/5
f 493/3/5 492/3/5 491/3/5
f 493/3/5 491/3/5 490/3/5
f 494/3/5 492/3/5 493/3/5
f 495/3/5 492/3/5 494/3/5
f 496/3/5 492/3/5 495/3/5
f 497/3/5 495/3/5 494/3/5
f 498/3/5 495/3/5 497/3/5
f 499/3/5 495/3/5 498/3/5
f 500/3/5 495/3/5 499/3/5
f 501/3/5 499/3/5 498/3/5
f 502/3/5 499/3/5 501/3/5
f 506/3/5 504/3/5 503/3/5
f 507/3/5 504/3/5 506/3/5
f 510/3/5 506/3/5 505/3/5
f 511/3/5 506/3/5 510/3/5
f 512/3/5 508/3/5 507/3/5
f 513/3/5 508/3/5 512/3/5
f 516/3/5 510/3/5 509/3/5
f 517/3/5 510/3/5 516/3/5
f 518/3/5 514/3/5 513/3/5
f 519/3/5 514/3/5 518/3/5
f 521/3/5 516/3/5 515/3/5
f 522/3/5 516/3/5 521/3/5
f 525/3/5 520/3/5 519/3/5
f 526/3/5 520/3/5 525/3/5
f 527/3/5 523/3/5 522/3/5
f 528/3/5 523/3/5 527/3/5
f 531/3/5 525/3/5 524/3/5
f 532/3/5 525/3/5 531/3/5
f 533/3/5 529/3/5 528/3/5
f 534/3/5 529/3/5 533/3/5
f 535/3/5 531/3/5 530/3/5
f 536/3/5 531/3/5 535/3/5
f 537/3/5 535/3/5 534/3/5
f 538/3/5 535/3/5 537/3/5
f 542/3/5 540/3/5 539/3/5
f 543/3/5 540/3/5 542/3/5
f 546/3/5 542/3/5 541/3/5
f 547/3/5 542/3/5 546/3/5
f 548/3/5 542/3/5 547/3/5
f 549/3/5 544/3/5 543/3/5
f 550/3/5 544/3/5 549/3/5
f 551/3/5 544/3/5 550/3/5
f 553/3/5 546/3/5 545/3/5
f 553/3/5 547/3/5 546/3/5
f 554/3/5 547/3/5 553/3/5
f 555/3/5 552/3/5 551/3/5
f 555/3/5 551/3/5 550/3/5
f 556/3/5 552/3/5 555/3/5
f 558/3/5 553/3/5 545/3/5
f 559/3/5 553/3/5 558/3/5
f 560/3/5 552/3/5 556/3/5
f 561/3/5 552/3/5 560/3/5
f 563/3/5 558/3/5 557/3/5
f 564/3/5 558/3/5 563/3/5
f 567/3/5 562/3/5 561/3/5
f 568/3/5 562/3/5 567/3/5
f 569/3/5 565/3/5 564/3/5
f 572/3/5 567/3/5 566/3/5
f 573/3/5 570/3/5 569/3/5
f 573/3/5 569/3/5 564/3/5
f 574/3/5 570/3/5 573/3/5
f 575/3/5 570/3/5 574/3/5
f 578/3/5 572/3/5 571/3/5
f 579/3/5 567/3/5 572/3/5
f 579/3/5 572/3/5 578/3/5
f 580/3/5 567/3/5 579/3/5
f 581/3/5 576/3/5 575/3/5
f 581/3/5 575/3/5 574/3/5
f 582/3/5 576/3/5 581/3/5
f 583/3/5 578/3/5 577/3/5
f 583/3/5 579/3/5 578/3/5
f 584/3/5 579/3/5 583/3/5
f 585/3/5 583/3/5 582/3/5
f 586/3/5 583/3/5 585/3/5
f 587/3/6 588/3/6 590/3/6
f 590/3/6 588/3/6 591/3/6
f 589/3/6 590/3/6 594/3/6
f 594/3/6 590/3/6 595/3/6
f 595/3/6 590/3/6 596/3/6
f 591/3/6 592/3/6 597/3/6
f 597/3/6 592/3/6 598/3/6
f 598/3/6 592/3/6 599/3/6
f 593/3/6 594/3/6 601/3/6
f 594/3/6 595/3/6 601/3/6
f 601/3/6 595/3/6 602/3/6
f 599/3/6 600/3/6 603/3/6
f 598/3/6 599/3/6 603/3/6
f 603/3/6 600/3/6 604/3/6
f 593/3/6 601/3/6 606/3/6
f 606/3/6 601/3/6 607/3/6
f 604/3/6 600/3/6 608/3/6
f 608/3/6 600/3/6 609/3/6
f 605/3/6 606/3/6 611/3/6
f 611/3/6 606/3/6 612/3/6
f 609/3/6 610/3/6 615/3/6
f 615/3/6 610/3/6 616/3/6
f 612/3/6 613/3/6 617/3/6
f 614/3/6 615/3/6 620/3/6
f 617/3/6 618/3/6 621/3/6
f 612/3/6 617/3/6 621/3/6
f 621/3/6 618/3/6 622/3/6
f 622/3/6 618/3/6 623/3/6
f 619/3/6 620/3/6 626/3/6
f 620/3/6 615/3/6 627/3/6
f 626/3/6 620/3/6 627/3/6
f 627/3/6 615/3/6 628/3/6
f 623/3/6 624/3/6 629/3/6
f 622/3/6 623/3/6 629/3/6
f 629/3/6 624/3/6 630/3/6
f 625/3/6 626/3/6 631/3/6
f 626/3/6 627/3/6 631/3/6
f 631/3/6 627/3/6 632/3/6
f 630/3/6 631/3/6 633/3/6
f 633/3/6 631/3/6 634/3/6
f 635/3/6 636/3/6 638/3/6
f 638/3/6 636/3/6 639/3/6
f 637/3/6 638/3/6 642/3/6
f 642/3/6 638/3/6 643/3/6
f 639/3/6 640/3/6 644/3/6
f 644/3/6 640/3/6 645/3/6
f 641/3/6 642/3/6 648/3/6
f 648/3/6 642/3/6 649/3/6
f 645/3/6 646/3/6 652/3/6
f 652/3/6 646/3/6 653/3/6
f 650/1/6 651/1/6 655/1/6
f 655/1/6 651/1/6 656/1/6
f 650/1/6 655/1/6 657/1/6
f 656/1/6 651/1/6 658/1/6
f 658/1/6 651/1/6 659/1/6
f 650/1/6 657/1/6 660/1/6
f 657/1/6 658/1/6 660/1/6
f 660/1/6 658/1/6 661/1/6
f 661/1/6 658/1/6 662/1/6
f 659/1/6 651/1/6 663/1/6
f 650/1/6 660/1/6 664/1/6
f 661/1/6 662/1/6 665/1/6
f 662/1/6 663/1/6 665/1/6
f 647/3/6 648/3/6 666/3/6
f 666/3/6 648/3/6 667/3/6
f 664/1/6 665/1/6 669/1/6
f 650/1/6 664/1/6 669/1/6
f 663/1/6 651/1/6 670/1/6
f 669/1/6 665/1/6 670/1/6
f 665/1/6 663/1/6 670/1/6
f 653/3/6 654/3/6 672/3/6
f 672/3/6 654/3/6 673/3/6
f 667/3/6 668/3/6 674/3/6
f 674/3/6 668/3/6 675/3/6
f 671/3/6 672/3/6 678/3/6
f 678/3/6 672/3/6 679/3/6
f 675/3/6 676/3/6 680/3/6
f 680/3/6 676/3/6 681/3/6
f 677/3/6 678/3/6 682/3/6
f 682/3/6 678/3/6 683/3/6
f 681/3/6 682/3/6 684/3/6
f 684/3/6 682/3/6 685/3/6
f 686/3/6 687/3/6 689/3/6
f 689/3/6 687/3/6 690/3/6
f 688/3/6 689/3/6 693/3/6
f 690/3/6 691/3/6 693/3/6
f 689/3/6 690/3/6 693/3/6
f 693/3/6 691/3/6 694/3/6
f 694/3/6 691/3/6 695/3/6
f 695/3/6 691/3/6 696/3/6
f 692/3/6 693/3/6 698/3/6
f 693/3/6 694/3/6 698/3/6
f 698/3/6 694/3/6 699/3/6
f 699/3/6 694/3/6 700/3/6
f 696/3/6 697/3/6 701/3/6
f 695/3/6 696/3/6 701/3/6
f 701/3/6 697/3/6 702/3/6
f 702/3/6 697/3/6 703/3/6
f 699/3/6 700/3/6 704/3/6
f 701/3/6 702/3/6 704/3/6
f 700/3/6 701/3/6 704/3/6
f 704/3/6 702/3/6 705/3/6
f 705/3/6 702/3/6 706/3/6
f 706/3/6 702/3/6 707/3/6
f 705/3/6 706/3/6 708/3/6
f 708/3/6 706/3/6 709/3/6
f 710/2/6 711/2/6 712/2/6
f 712/2/6 711/2/6 713/2/6
f 714/2/6 715/2/6 716/2/6
f 716/2/6 715/2/6 717/2/6
f 718/2/6 719/2/6 720/2/6
f 720/2/6 719/2/6 721/2/6
